<?xml version="1.0" encoding="utf-8"?>
<!-- Generator: Adobe Illustrator 25.2.0, SVG Export Plug-In . SVG Version: 6.00 Build 0)  -->
<svg version="1.1" id="Ebene_1" xmlns="http://www.w3.org/2000/svg" xmlns:xlink="http://www.w3.org/1999/xlink" x="0px" y="0px"
	 viewBox="0 0 1080 1080" style="enable-background:new 0 0 1080 1080;" xml:space="preserve">
<style type="text/css">
	.st0{fill:none;stroke:#000000;stroke-width:30;stroke-miterlimit:10;}
	.st1{fill:none;stroke:#000000;stroke-width:30;stroke-linecap:round;stroke-linejoin:round;stroke-miterlimit:10;}
</style>
<g>
	<g>
		<path class="st0" d="M697.5,245.9c-40.4,39.7-65.4,95-65.4,156.2c0,60.5,24.5,115.3,64.2,154.9"/>
		<path class="st0" d="M382.5,557c40.4-39.7,65.4-95,65.4-156.2c0-60.5-24.5-115.3-64.2-154.9"/>
	</g>
	<g>
		<circle class="st0" cx="540" cy="402.1" r="219.1"/>
		<line class="st0" x1="320.9" y1="402.1" x2="759.1" y2="402.1"/>
		<line class="st0" x1="540" y1="183" x2="540" y2="621.2"/>
	</g>
	<path class="st1" d="M540,987.9l266.9-428.1c27.4-46.2,43.1-100.2,43.1-157.8c0-171.2-138.8-310-310-310s-310,138.8-310,310
		c0,57.7,14,108.7,41.4,154.9L540,987.9z"/>
</g>
</svg>
