<svg version="1.1" id="Ebene_1" xmlns="http://www.w3.org/2000/svg" x="0" y="0" viewBox="0 0 1500 600" xml:space="preserve"><style>.st1{fill:#cccbcf}</style><path fill="#b5b4b9" d="M0 0h1500v600H0z"/><path class="st1" d="M20.4 65.4c3.3-4.3 6-8.5 9.3-12 3.3-3.5 7.2-6.3 10.8-9.4 1.5 3.3 1.7 5.5.9 7-4.4 7.5-9.3 14.7-13.7 22.2-1.8 3-4.5 7.2-3.5 9.5s5.9 3.7 9.2 4.1c5.7.7 10.2 2 13.1 7.7 1.2 2.2 4.7 4.4 7.2 4.4 1.8 0 4-3.3 5.5-5.5 5.4-8 3.4-19.7 13.1-25.6.6-.4.8-2.2.5-3.2-2.7-11 5.4-15.5 12.8-17.9 8.5-2.8 12.1-8.5 15.2-15.7 1.3-3 3.2-5.7 4.9-8.6 1.2.4 2.5.8 3.7 1.2-.8 5.8-1.4 11.7-2.6 17.5-2 9.3 1.3 17.3 10.7 20.4-.5-6.4.2-12.5-1.5-17.7-2.8-8.1.2-13.8 5.3-19.1 11-11.3 11.1-11.2 3.1-23.8h-23.8c-4.2 9-8.5 18.1-11.4 24.4-6.5.5-12.7-.7-14.1 1.4-4.8 7.1-8.3 15.2-11.7 23.2-2.4 5.7-3.2 12.2-6.1 17.6-1.2 2.3-6.2 2.4-9.5 3.6 0-3.2-.1-6.3.2-9.5.1-.9 1.9-1.6 2.1-2.5 1.2-5.1 1.5-10.5 3.3-15.4 1.8-4.8 4.9-9.1 7.1-13.1-5.9 0-11 .6-15.8-.3-2.3-.6-4.7-3.8-5.7-6.3-1.7-4.4-1.9-9.3-3.8-13.6-.5-1.2-6.1-1.9-7.1-.8-5 5.8-12.2 10.7-10.1 20.4.3 1.7-3 3.9-4.3 6.1-1.4 2.3-3.8 5.5-3.1 7.3 2.4 7 6 13.7 9.8 22zM132.9 74.2c.9 3 2.2 5.9 2.5 9 .2 1.6-1.2 3.4-1.9 5.1-1.9-.8-4.5-1.1-5.4-2.6-1.7-2.5-2-5.9-3.5-8.6-1-1.7-3.2-2.6-4.9-3.9-1.2 2-2.8 3.8-3.5 6-.5 1.4.1 3.4.7 4.9 3.4 7.8 6.8 15.6 10.6 23.2 1 2.1 3.3 3.5 5 5.2 1.5-1.8 3.7-3.4 4.4-5.5 5.9-17.4 11.6-34.8 17.1-52.3.8-2.6-.1-5.7.3-8.4 1.1-6.5 2.3-13.1 4.2-19.4.6-1.9 3.5-3.6 5.7-4.1.9-.2 3.1 2.9 3.8 4.8 2.8 7.7 4.8 15.7 8 23.2 1.1 2.5 4.6 5.2 7.3 5.5 1.9.2 4.3-3.4 6.1-5.6 1.7-2 2.9-4.4 4.8-7.3 2 8.8 2 17 5.8 22.8 4.1 6.4 12.2 8.3 21.1 4.1-.5 10.7-1.4 20.3-1.2 29.8.1 2.9 3.1 5.8 4.8 8.6 1.9-2.5 5.6-5.1 5.5-7.6-.4-10.9-1.8-21.8-3.2-32.6-.2-1.2-2.6-3.3-3.5-3.1-6.1 1.5-5.9-3.6-7.7-6.7-1.9-3.3-4.1-6.4-6.3-9.8-2.6 2-4.3 3.3-7.1 5.4-1.3-6.5-2-12-3.4-17.4-3.5-13.3-9.5-16.8-22.7-13.6-.4.1-1-.4-2.9-1.1 1.7-7 3.4-14.2 5.2-21.4h-10.2c-3.7 6.6-6.4 14.3-15.5 15.3-9 1-12.1 6.8-13.3 15-.9 6.1-1.7 12.7-4.7 17.8-4.7 8.5-4.6 16.6-2 25.3zM658.5 33.1c-6.4 2-2.7 8.5-2.9 13.3-.2 5.5-2.9 5.6-7.3 2.8-7.3-4.6-11.2-2.6-13.3 5.8-3.4 13.9-.9 27.6 1.8 41.2 1.1 5.7 16 8.7 19.1 3.5 2.9-4.8 4.4-10.9 4.8-16.5.3-4.8-2.9-6.4-7.3-2.7-2 1.7-4.4 3-7.3 4.8-3.2-6-5.9-11-8.9-16.4 9.3-2.8 17.2-6.2 22.5 6 4.3-6.1 10.5-10.9 10.4-15.5-.1-7.6 1.3-11.9 6.2-18.3 8.3-11.1 15.1-24.7 12-40.2h-11.9c4.4 5.2 5.5 9.7-.3 15.3-2.8 2.7-3.7 8-4.6 12.3-.7 3.4-.1 7-.1 10.4-5-2.5-9.7-6.8-12.9-5.8zM566.2 40.8c5.2 6.5 10.9 12.8 17.1 18.3 1.4 1.2 8.2-.6 8.7-2.1 2-7.3 3.8-15 3.4-22.4-.2-4.4-4.6-8.7-7.1-13-1 .3-2 .5-3 .8-1.8 6.2-3.6 12.4-5.4 18.5-1.4-.1-2.8-.3-4.2-.4-.9-7.2-2.1-14.4-2.7-21.7-.5-6-.3-12.1-.4-18.1h-17c-.3 6.1-.6 12.1-.7 18.2 0 2.1.3 4.4 1.3 6.2 3.3 5.4 6.2 10.9 10 15.7zM325.2 79.6c9.3-2.5 10.8-6.7 8.7-24.8 5 3.9 7.3 1.4 7.5-3.5.4-7.1 0-14.2.4-21.2.2-3.2.6-7.4 2.6-9.3 5.8-5.6 7.8-12.2 7.6-19.9h-15.3c-1.6 7.3-2.7 14.7-4.9 21.8-2.9 9.2-8.5 18-9.5 27.3-1.2 9.5 1.7 19.6 2.9 29.6zM228.5 13.9c1.9.2 3.9 2.1 5.2 3.7 2.2 2.9 3.9 6.2 5.7 9.4 4.3 7.3 11.3 9.8 19.4 11.3-2.9-8.9-6.5-17-10.4-25.1-.5-1-2.4-1.9-3.6-1.8-7.8.3-8.6-4.6-8.3-10.6h-20.4c.5 11.9.5 11.8 12.4 13.1zM313.2 36.4c-.1-4.6.1-9.3-.4-13.8-.2-2.1-2.4-4-2.8-6.1-.5-2.8-.1-5.8-.1-11.2 3.2 3.6 4.4 5.2 5.8 6.4 1.7 1.6 3.6 2.9 5.4 4.3 1.2-2.3 2.7-4.5 3.5-7 .9-2.6 1.2-5.5 1.8-8.3h-23.8c-2 7.1-4.8 14-5.6 21.2-.4 4 1.6 9.4 4.5 12.1 2.5 2.4 7.7 1.8 11.7 2.4zM387.3 27.9c1.5 6.5 9.8 7 11.9 1.1 3.2-9.1 4.8-18.8 7.1-28.3h-20.4c.4 9.2-.6 18.5 1.4 27.2zM529.2 32.1c5.7 1.2 8.7-4 9.4-9.5.8-7.2 1.3-14.5 1.9-21.8h-18.7c-.5 7.3-2 14.7-1 21.7.5 3.7 5 8.8 8.4 9.6zM431.9 17.8c3-3.6 1.3-11.2 1.6-17.1h-15.3c-4 6.9-6.3 14-3.9 21.8 6.7-1.5 14.5-1.1 17.6-4.7z"/><path class="st1" d="M61 18.7c9.2.2 8.4-7.2 9.5-13 .3-1.6.8-3.3 1.2-4.9H44.5c0 .8 0 1.7.1 2.5 1 10 6.4 15.2 16.4 15.4zM459.9 13.6c2.6 2.4 6.2 3.8 9.3 5.6 1.7-3.7 3.9-7.2 4.8-11 .6-2.2-.9-4.9-1.4-7.4h-23.8c3.6 4.3 7 8.9 11.1 12.8zM206.2 19.6c.2-3.6.9-7.4.3-10.9-.5-2.8-2.6-5.3-4.1-8h-18.7c4 5.3 7.5 11 12.1 15.6 2.5 2.3 6.9 2.3 10.4 3.3zM647.1 6.7c4.7 3.6 10.2 10 14.4 9.3 7.2-1.2 4.1-9.7 4.7-15.2h-23.8c1.6 2 2.8 4.4 4.7 5.9zM729.5 18.6c6.2-5.5 4.8-11.6 2.9-17.8h-13.6c-.7 8.4 4.6 13 10.7 17.8zM624.9 10.8c3.2-1.1 4.9-6.6 7.4-10.1h-22.1c4.2 4.6 6.6 12.9 14.7 10.1zM151.4 7.1c2.7-2.3 5.8-4.3 8.7-6.4H138c.4 1 .8 2.1 1.2 3.1 3.1 9.4 4.6 9.7 12.2 3.3zM288.4 13.6c1.9-4.3 3.8-8.6 5.8-12.9h-15.3c.2.5.4 1.1.7 1.5 3 3.9 5.9 7.7 8.8 11.4zM25.4 2.4c.3-.4.3-1.1.5-1.6H12.3c1.8 3.1 3.6 6.3 5.4 9.4 2.5-2.6 5.1-5.2 7.7-7.8zM759.6.8h-11.9c3.2 4 6.5 8 11 13.5.4-5.9.7-9.7.9-13.5zM4.4 15.8c-.4-5-1.5-10-2.3-15H.4v24.7c1.1 0 2.2.1 3.3.1.3-3.2 1-6.5.7-9.8zM85 11c1.2-3.4 2.4-6.8 3.7-10.2h-8.5c.7 3.3 1.4 6.6 2.1 10 .9 0 1.8.1 2.7.2zM406.5 533.4c8.1-3 10.1-10.9 12.7-17.1 2.6-6.4 2.2-14.2 2.5-21.4.3-7.4-.5-14.8-.3-22.2.1-3.6 1.1-7.2 1.9-10.8 1.6-7.9 3.4-15.7 4.8-23.6.7-3.8 1.6-7.9.9-11.6-1.8-9.4.9-17.3 6.1-24.8 2.6-3.7 5.2-7.5 7-11.6 1-2.2.2-5.1.2-7.8-.7 0-1.5-.1-2.2-.1-1.2 2.7-2.3 5.3-3.7 8.4-1.1-1-1.9-1.5-2.2-2.1-4.2-10.7-8.4-11.7-16.7-4-5.2 4.8-4.7 10.4-3.1 16.5 1.3 5.2 2.5 10.4 2.8 15.7.1 2.2-1.8 5.7-3.8 6.6-9.6 4.7-19.4 8.7-29.2 13 4 14.3 1.9 18.7-13.6 29.5-3.7 2.6-6.9 7.6-7.7 12-1.1 5.9.6 12.3.7 18.5.2 5 .6 10.2-.3 15-1.5 7.5-3.9 14.8-6.5 22-.8 2.3-3.3 5.2-5.4 5.5-7.4 1.1-10.3 6.3-12.9 12.1-6 13.2-12 26.3-17.7 39.5-.9 2.1-.2 5-.2 7.5 2.9-.5 6.2-.2 8.5-1.6 3.5-2.1 6.6-5.2 9.5-8.2 7.5-7.7 15.7-15.1 15.2-27.3-.2-5.8-.8-11.8 8.1-11.4 1.3.1 3.3-2.3 4-3.9 5.5-12.4 11.1-24.8 16-37.5 1.2-3.1-.5-7.3-.8-10 2.6-4.6 5.4-9.1 7.9-13.8 3.5-6.8 6.5-13.8 10.4-20.4 2.8-4.7 7.5-8.2 12.6-4.1 4.8 3.8 3.2 8.8-.2 13.6-3.1 4.3-5.9 8.9-7.7 13.8-7 19.8-8.1 42.2-25.4 57.4-.6.5-.7 1.5-1.1 2.3-3.1 5.3-7.1 10.3-9 16.1-1.5 4.5-2.5 11.5-.2 14.6 7.2 9.7 26.8 8.3 32.6-2.4 5.4-10 10.6-20.9 4.7-33.2-1.5-2.3-.5-8.2.8-8.7zM708 388c5.9-6.4 11.2-15.3 12.3-23.8 1.2-9-2.2-18.9-4.6-28.1-1.6-6-6.5-6.6-10.1-1.8-2 2.7-2.3 7.1-2.1 10.7.8 11.3 2.3 22.5 3.2 33.7.1 1.3-1.3 2.7-2 3.9-1.1-.3-2-.3-2.2-.7-6.2-14.4-12.4-28.9-18.4-43.3-.4-.9.1-2.3.6-3.3 4.4-8.8 9.5-17.4 13.2-26.5 2-4.8 2.9-10.7 2.1-15.8-.7-4.3-4.4-8.3-7.1-12.2-4-5.6-2.7-10.8 3.8-10.9 6.1-.1 7.5-3.3 9.1-8 .6-1.8 3.8-2.6 5.8-3.9.7 2.4 2.2 4.9 1.8 7.2-.4 2.7-3.1 5.1-3.3 7.7-.4 5-1.6 12.2 1.1 14.7 5.2 4.9 5 9.3 3.8 15.1-2.4 12 1.7 20.8 13.3 27.7 0-9.3 1.1-18.1-.2-26.4-3.1-19.1-7.4-38-11.6-56.9-.4-1.7-4.5-4.4-5.4-3.9-5.4 3.2-12.3 6-15.2 11-5.8 10-16.4 12.6-24.9 17.8-7.9 4.9-10.5 9.9-9.7 18.4.8 8.7 1.2 17.5 1.6 26.3.2 5.5 0 11.1 0 16.6 1.5.1 2.9.3 4.4.4 1.9-9.5 3.5-19 5.8-28.4 1.3-5.5 2.9-11 5.6-15.9 1.3-2.3 5.5-2.9 8.3-4.3.8 3 3 6.6 2.1 9-3.3 8.6-7.7 16.8-11.7 25.3-.9 2-1.9 4.1-2.3 6.2-1.1 7.3-1.8 14.6-2.8 21.8-2.1 15.3.1 29.3 14.7 37.5 6.3 3.7 14.6 10 21 3.1zM10.1 466.9c1.7-6.4 2.6-13 3.9-19.5.9.2 1.9.4 2.8.6-1.4 7.2-2.9 14.4-4.6 23 3.4-.4 5-.2 5.4-.8 5.1-7.6 10-15.4 15-23.1 2.8-4.3 5.1-9.1 8.7-12.6 9.6-9.4 19.8-18.3 29.9-27.3 1.9-1.7 4.6-3.7 7-3.7 6.5-.1 8.8-3.8 10.3-9.2 1.9-6.5 4.2-12.9 6.4-19.3 1.2-3.5 3.5-6.9 3.5-10.3 0-10.6-.8-21.3-1.5-31.9-.4-5.9-3.7-7.1-8.8-4.7-8 3.7-9.8 10.1-8.8 18.3 1.5 12.5 2.4 25.1 3.7 39.8-7.7-5-11.9-3-15.5 2.3-4.8 6.9-9.9 13.5-15.1 20.1-1.2 1.6-4.2 3.7-5.1 3.2-1.9-1.1-4-3.6-4-5.6-.1-6.3 3.6-10.1 9.3-12.7 10.6-4.9 13.5-17.6 6.3-29.1-2.7 3.2-5.8 5.7-7.3 9-7.9 17.2-25.5 28-30 48.1-2.1 9.3-11.6 16.8-17.3 25.5-8.2 12.4-2.3 25.9-2.1 39.2 3.9-6.2 6.2-12.7 7.9-19.3zM80.9 260.4c1.5.5 5.8-2.3 6.2-4.2.6-2.8-1-6.1-1.9-9.1-1.6-5.3-3.6-10.4-5-15.7-1.2-4.6-1.4-9.5-2.9-14-.6-1.9-3.5-4.1-5.4-4.3-7.5-.5-17.7 9.4-16.7 17 1.1 8-1.3 13.7-6.9 18.9-1.8 1.7-3.3 4-4.2 6.3-9.6 25.7-19.1 51.5-28.4 77.4-2.9 8.3-5 16.8-7.8 26.5-3.2-2.9-4.9-4.5-7.2-6.5v38.8c13.5-20.8 31-39.3 32-66 .4-9.2 3.5-17.9 13.5-21.9 1.6-.7 2.5-3 3.9-4.3 2.9-2.7 6-5.2 9.1-7.8 5.3-4.5 10.6-9.1 14.4-12.3-5-5.8-11.2-9.7-11.1-13.4.1-5.2 5-10.3 8.8-17.4 2.5 4 3 4.9 3.7 5.8 2 2.1 3.5 5.4 5.9 6.2zM623.1 531.5c2.5-.5 5.2-1.2 8-1.7 10.5-2 17.5-12.9 13.8-23-1.2-3.2-6-7.6-8.8-7.3-13.2 1.2-25.5 6.3-34.4 16.3-3.8 4.3-6.1 6.9-12.3 5.7-3.1-.6-10 2.7-9.9 3.6 1.4 12.4-7.6 17.1-15.5 22.9-1.3.9-1.9 2.8-2.7 4.3-2.3 4.1-5 6.4-10.4 4.7-1.8-.6-5.6 1.1-6.8 2.9-8.1 12.5-16.3 24.5-31.4 29.7-1.7.6-2.6 4-3.8 6 2 1.1 4 3.1 6 3.3 7.1.4 14.2.8 21.2 0 5-.6 10.7-2.1 14.3-5.2 8.1-6.8 14.8-15.3 22.6-22.4 6.5-6 13.1-12.8 21-16.2 11.8-5.1 18-11.7 17.6-24.7-.1-3.8-.5-7.6-.7-11.5.8-.4 1.6-.8 2.5-1.2 3.3 4.5 6.4 9 9.7 13.8zM339 98.8c-1.6-1-5.1-1.2-6.5-.2-5.4 3.9-6 19.5-.5 23 8 5.1 13.2 12 16.9 20.6 2.3 5.3 6.1 7.6 12.2 3.8 7.1-4.5 13.2-2.1 15.2 6.5 1.9 8.2 6.5 12.6 13.7 15.8 6.5 2.9 12.1 7.1 14.1 17.2-5.9-1.1-11.2-.9-15-3.2-5.9-3.5-10.6-9-16.1-13.3-4.1-3.2-8.3-7-13.1-8.3-2.4-.6-8.4 3.3-8.9 5.9-2.7 14.5-.3 28.7 4.9 42.4.6 1.5 2.7 3.4 4.1 3.5 1.4 0 3.4-1.8 4.3-3.3 4.5-7.4 3.6-17-1.1-24.1-2-3.1-4.3-9.8-3.5-10.4 6.1-4 7.7 2.7 10.8 5.8.2.2.4.4.5.7 7.6 15.6 22.9 21.9 36.5 30 6.2 3.7 9.8 1.5 8.6-5.5-1.5-9.4-4.8-18.4-7.6-27.6-3.5-11.6-13.4-21.7-8.6-35.4.3-.9-.8-2.7-1.8-3.6-7.7-7.3-15.5-14.4-23.2-21.6-.8.5-1.5.9-2.3 1.4.7 6 1.4 12 2.2 18l-2.1.9c-4.4-4.7-8.8-9.5-14.1-15.3-.8 6-6.7-15.4-19.6-23.7z"/><path class="st1" d="M311.5 198.3c-4.3 9.4-3.4 13.7 5.4 20.4 2.2-1.9 4.4-3.8 7.6-6.6.5 3.2 1.3 5.1 1 6.8-2.4 11 2.8 16.9 11.9 22.6 5.2 3.2 8 10.8 11 16.9 2.5 5.3 2.6 11.8 5.6 16.7 6.7 10.9 14.5 21.3 22.1 31.7 4.4 6.1 12.1 7.5 16.1 2.6 4.4-5.4 2.2-11.2-2.3-15.1-5.1-4.4-11.3-7.5-17-11.1-3.3-2.1-7.2-3.6-9.9-6.2-1.9-1.9-2.2-5.3-3.2-8.1 2.7.1 5.7-.5 8.1.5 7.8 3.1 15.3 6.7 23 10.1 2.7-10.1-3-21.2-10.8-22.3-5.2-.8-10.5-1.1-15.8-1.9-8.9-1.3-13.6-10.1-9.3-18.1 3.3-6.2.9-10.3-3.5-14.1-5.6-4.7-11.3-9.4-17.1-13.9-2-1.5-4.5-2.2-6.7-3.4-2.4-1.3-5.9-2.3-6.6-4.2-.7-2 .9-7 2.2-7.3 2.7-.6 6.2.5 8.9 1.8 4.7 2.2 9.1 5 13.6 7.6.7-3.7-.3-5.2-.4-6.8-.8-13.8-15.3-26.8-2.5-41.5.6-.7.5-2.3.2-3.3-2.7-10.4-10.1-17.3-18.1-24.4-1.6 18.1-5.2 36 5.7 54.8-5-2.8-7.3-4.1-11-6.1-2.9 7.9-5.1 15.1-8.2 21.9zM328.2 530.6c-1-6.1-2.7-12.1-3.5-18.2-.8-6.2-4.5-7.8-9.5-6.2-6.3 2-10.1 6.6-8.2 13.7 1.1 4.3 3 8.6 5.1 12.6 4 7.5 1.1 12.7-6.4 18.9-1.4-9.8-2.2-17.9-3.8-25.8-.5-2.7-3.1-4.9-4.7-7.4-2.4 1.7-5.1 3.1-7.3 5.1-3 2.8-5.4 6.2-8.3 9.2-4 4.1-10.1 7.3-12 12.2-6.9 17.6-12.4 35.8-18.4 53.7 14.2 2.4 14.6 1.7 18.3-11.9 3.1-11.2 7.6-21.9 11.8-32.7 1.1-2.8 3.2-5.7 5.7-7.1 2.4-1.3 5.8-.8 8.7-1 0 2.6 1 5.7-.1 7.7-4 7.8-9.2 15-13 22.8-2.5 5.2-4 11-5 16.7-.3 1.6 2.7 5.1 4.7 5.6 16.1 4 22.3.9 29-13.7.7-1.5 1.9-2.8 2.5-4.4 5.1-12.9 10.3-25.7 14.9-38.7 1.1-3.4.1-7.5-.5-11.1zM304.6 577c-2.6-4.2-4.9-6.3-4.6-8 .3-2.2 2.7-4.2 4.1-6.2 1.2 1.6 3.3 3.1 3.4 4.8.1 2.2-1.3 4.6-2.9 9.4zM453.3 531.2c-1.9-7.7 1.7-12.8 5.6-18.6 6.3-9.2 12.6-19.1 6.1-30.7-5.9-10.6-7.4-21.8-8-33.5-.4-7.8-2.6-15.5-4-23.3-1.1-.1-2.3-.2-3.4-.3-3.1 5.8-8.2 11.4-9.1 17.5-3.1 21.7-4.8 43.6-6.8 65.5-.5 5.8 1.3 10.4 9.4 7.9.4.7.9 1.3 1.3 2-4.2 7.7-8.4 15.4-13.7 25.2-1.9-5.8-2.9-8.8-3.9-12-8.1 5.4-8.7 15.4-2.7 23.9 2.7 3.8 4.3 8.4 6.3 12.6 1.5 3.3 2.7 6.9 4.5 10.1.8 1.5 3 3.3 4.3 3.2 1.5-.2 3.2-2.2 4-3.8.9-2 .8-4.4 1.3-6.6 2.1-9.5 4.2-19 6.4-28.5.7-3.6 3.1-7.5 2.4-10.6zM577.7 362.2c10.6 3.6 13.7 1.2 18.3-11.2.8-2.1 3.4-5.4 4.2-5.1 2.4.7 4.7 2.7 6.3 4.8 4.4 5.7 8 12.1 13 17.3 2 2.1 7 3 9.8 2.1 1.7-.6 2.7-5.8 2.6-8.9-.1-6.7 2.6-11 6.8-16.3 6.2-7.8 10.5-17.7 13.4-27.4 2.1-7.1.7-15.2.3-22.9-.1-2.8-2-5.4-3-8.2-3 1.8-6.3 3.1-8.8 5.4-2.2 2-3.4 5.1-5.8 9-5-10.3-10.7-9.9-17.9-5-8.2 5.6-10.5 9.7-6.6 19.1 4.2 10.2 9.7 19.8 14.1 29.9 1.6 3.7 1.9 8 2.7 12-.9.3-1.8.6-2.6.9-6.7-6.5-16.7-9.9-17.1-22.1-.1-4.4-2.2-8.8-4.1-12.9-1.4-2.9-3.9-5.3-6.9-9-6.6 12.4-4.5 26-13.9 35.9-2.7-3.9-4.8-7-8.1-11.8-1 3.7-1.5 5.3-1.8 6.9-1 6.8-3.8 14.5 5.1 17.5zM641.1 458.4c2.8 0 6.7-.8 8.3-2.8 7-8.6 16.2-16.6 11.9-29.9-.7-2 0-4.5 0-6.8-.2-20.4-.2-40.7-.8-61.1-.1-4-2.3-8-3.6-12-1 .1-1.9.2-2.9.2-.9 2.8-2.3 5.5-2.7 8.4-.7 4.5-.3 9.1-1.2 13.5-.6 3.1-2.7 5.8-4.2 8.7-2.3-1.6-4.7-3.2-9.2-6.4 2 5.8 2.9 9.6 4.5 13 2.8 5.9 6.2 11.5 8.9 17.4 3.6 7.7 2.2 10-5.8 13-2.7 1-5.1 3.2-7 5.5-3 3.7-6 7.6-8.1 11.9-3.4 6.9-5.8 14.3-9 21.3-1.4 3.2-3 6.8-5.5 8.9-8.8 7.4-12.6 16.4-11.2 27.8.9 7.2 4.3 9.4 10 4.9 7.8-6.2 16.1-12.4 15.4-24.6-.4-8.5 3.3-10.9 12.2-10.9z"/><path class="st1" d="M442.6 307.3c.9 2.1 6 4.3 7.9 3.4 2.7-1.1 6.3-5.6 5.8-7.7-2.3-10.1-4.1-20.9-9.3-29.5-7.9-13.2-17.6-25.5-28-36.8-5.6-6.1-13.9-11-21.9-13.3-5-1.5-8.6-2.5-11.2-7-1.6-2.7-3.6-5.1-5.6-7.5-4.2-5.1-9-3.6-10.5 1.3s0 10.7-.1 16.2c-.1 3.6-.8 7.1-.8 10.6 0 2.4-.2 6.1 1 6.8 2.9 1.7 6.6 2 10 2.8.5-3.5 2-7.1 1.3-10.4-1-5.3-3.1-10.2 3.4-15.9 1.7 4.9 3.2 8.6 4.4 12.4 2.4 7.5 3.4 15.8 7.2 22.5 4.7 8.3 8.1 15.6 4.4 25.4-2.7 7.3 6.8 16.7 13.6 15.1 5.2-1.3 10.5-2.2 17-3.4 2.1-5.7-1.1-10.9-5.7-16-4.8-5.5-9.4-11.2-13.5-17.2-1.1-1.7.2-5 .4-7.6 2.3.5 5.6.1 6.9 1.6 10.7 11.3 21.9 22.4 21.1 40.1-.2 4.8.4 9.9 2.2 14.1zM604 443.3c6.1-2.7 6.2-8 8.2-12.9 2.9-7.1 7-13.8 10.9-20.5 2.1-3.6 5.5-6.7 6.9-10.5 3.2-8.3-.6-14.7-7.9-17.9-4.8-2.1-8.8-6.2-13.2-9.2-2.2-1.5-4.9-4-6.9-3.6-2 .4-4.8 3.9-4.8 6 .2 7.5.9 15.1 2.4 22.4.9 4.3 4.6 8.3 4.8 12.5.1 3.3-3.2 6.8-5 10.2-3.1-1.8-8-3-8.9-5.6-2.8-7.9-4.9-16.3-5.7-24.7-.9-8.7-5.1-14.2-12.4-17.9-1.7-.9-4.7-1.1-6.3-.2-7.8 4.3-8.4 24.2-1.3 29.8 17.1 13.6 28.5 30.2 28.7 53.3 0 3.9 3.2 7.8 4.9 11.7 1.6-.5 3.1-1 4.7-1.6-.5-4.2-1.3-8.5-1.3-12.7.1-3 .5-7.9 2.2-8.6zM664.3 254.9c5.2-2.6 11.4-3.7 16-7 11.9-8.7 25.9-14.9 35.1-27.3 1.3-1.7 3.3-3.1 5.3-4.1 7.5-3.8 15.3-7 22.5-11.2 2.8-1.6 4.4-5.3 6.6-8-2.9-2.1-5.9-6.1-8.5-5.8-7.8.9-16.2 2.1-22.9 5.8-7.2 4.1-12.3 11.6-18.9 16.8-4.9 3.9-10.8 6.8-16.5 9.6-13.7 6.6-28.1 11.9-41 19.7-6.8 4.1-11.9 11.8-16.4 18.7-4 6.3.4 12.7 11.3 13 4.7-3.5 11.8-8.8 18.8-14.1 2.9-2.1 5.5-4.6 8.6-6.1zM83.7 422.4c.2-2-.4-4.2-.6-6.3-2.6.5-6.3.1-7.6 1.7-2.2 2.7-4 6.6-4.2 10.2-.4 7 .3 14 .7 21.1.1 2.5-.1 5.7 1.3 7.4 6.5 7.8 2.6 15.4.6 24.7-18.7-11.6-9.1-31.2-14.7-48.5-4 5.9-7.1 9.5-9.2 13.6-2.4 4.5-3.9 8.9-7.7 13.1-4.1 4.7-6.5 10.4-13.1 12.6-1.2.4-2.3 2.8-2.3 4.3 0 13.1.3 26.1.5 39.2 1.5.1 3 .2 4.6.3.3-2.7.5-5.4.8-8.1.4-4.5-.4-9.7 1.6-13.5 3.3-6.5 8.1-12.3 12.8-17.9 1.5-1.8 4.7-2.1 7.1-3.2l1.8 2.4c-3.6 4.9-7.1 9.9-10.7 14.8-5.5 7.3-6.9 15.3-4.5 24.2 1.7 6.5 7.1 8.7 12.2 7.8 2.6-.5 5.7-5.7 6.3-9.2 1.1-6.1.3-12.4.5-18.7.1-2.8.8-5.5 1.3-8.3 1-.1 2-.1 3.1-.2 1.3 5.7 2.6 11.4 3.8 17.1.8.2 1.5.4 2.3.6 7.1-11.1 10.5-23.8 12.9-36.7.3-1.6-1.3-3.6-1.9-5.5-.6-1.8-1.8-3.7-1.6-5.4 1-11.2 2.6-22.4 3.9-33.6z"/><path class="st1" d="M557.3 322.7c-.5-2.2-3-5.5-4.7-5.6-2-.1-4.9 2.3-6.2 4.4-2.1 3.3-2.9 7.4-4.7 10.9-2.8 5.3-3.3 9.5 1.8 14.3 2.1 2 2.5 10 1.3 10.6-10.1 5.2-12.3 13-10.4 23.4.4 2.3-.7 5.1-1.6 7.4-6.4 17.4 2.1 32.1 8.3 47.2.4 1 1.3 2.1 2.2 2.4 9.7 2.9 12.3 11.8 16.7 19.3 2.7 4.5 6.1 8.6 9.2 12.9.8-.4 1.7-.9 2.5-1.3.2-2.1.7-4.3.4-6.4-1.2-8.8-2-17.3 2.8-25.6 1.1-1.9-.1-6.2-1.6-8.5-7.2-10.9-17.5-17.9-30.3-22.5.4-12 1-23.5 8.3-34 10.3-14.9 9.7-31.9 6-48.9zM568.1 216.5c-.8-2.9-5.2-4.8-8-7.1-1.9 2.8-4.5 5.5-5.4 8.6-.7 2.8.5 6.1 1.2 11.4-.8 1.1-2.7 3.5-4.5 5.9-1.9-2.4-4-4.7-5.7-7.3-.7-1.1.1-2.9-.4-4.2-1.2-2.9-2.6-7.6-4.4-7.8-3.5-.4-8.4.8-10.7 3.2-1.5 1.6-.3 6.8.9 9.9 1.1 2.7 4.2 4.5 6.1 6.9 5.2 6.6 10.6 13.1 15.3 20.1 1.3 1.9 1.3 6.1 0 7.8-1.1 1.5-4.9 1.2-7.5 1.2-3.3.1-6.6-.4-9.8-.4-2.9 0-5.7.3-8.6.5.7-2.8 1.4-5.6 2.2-8.4.3-1.1 1.4-2.3 1.2-3.1-1.2-3.9-2.8-7.8-4.3-11.6-3.4 1.9-8.2 3-9.8 5.8-4.1 7.3-3.5 15.1.5 22.7 4.9 9.1 9 18.7 13.9 27.8 1.3 2.3 5 5.7 6.3 5.2 7.8-3.1 16.3-6 22.6-11.4 6.7-5.7 5.3-14.6 3.7-23.1-2.6-13.7-6.4-27.6 3.4-40.7 2.3-2.8 2.8-8.3 1.8-11.9zM218.5 206c-2.6 8.9-3.6 18.1 3.1 25.9 6.7 7.8 13.9 15.3 20.9 23 2.8-1.1 5.8-3 9-3.4 7.1-.8 9.4-5.1 8.5-11.2-1.1-6.6-3.7-12.9-4.8-19.4-.6-3.4.7-7.2 1.1-10.8 2.8 1.3 6.5 1.8 8.2 4 2.7 3.4 3.7 8.1 5.9 11.9 1.8 3.2 4.4 6 6.6 8.9 2.7-2.2 6.5-3.9 7.9-6.8 4-8.4 7.5-17.2 10.2-26.1.9-3-.2-7.6-2.2-10.1-4.2-5.3-9.2-9.9-14.4-14.2-1.3-1-5.6-.6-6.6.7-3.3 4.2-1.5 21.9 1.6 26.4 2.6 3.8 4.8 8 7.1 12-.8.5-1.5.9-2.3 1.4-9.8-4.8-16.4-12.6-21.1-22.5-1.1-2.4-3.3-4.2-5-6.3-2 2.2-5.2 4.1-5.7 6.6-1.6 7.4-2.3 14.9-3.1 22.4-.6 5.9-.9 11.8-9.5 13.3-.3-3.3-.1-6.2-.9-8.7-2-6.1-3.8-12.4-6.8-18-2.1-3.5-6.3-3.8-7.7 1zM496.2 91.9c-4.4 4.7-10.3 8.2-14.1 13.3-2.2 2.9-2.4 8.2-1.8 12 .3 1.7 5.5 2 7.8 3.9 2.1 1.8 3.7 4.5 4.7 7.2 1.7 4.7 2.3 9.9 4.5 14.4.9 2 4.6 4 6.7 3.7 2-.3 5.1-3.7 5.1-5.6-.1-5.5-1.6-10.9-2.4-16.4-.7-4.8-1.2-9.7-1.8-14.5 1.3-.2 2.6-.4 4-.6 1 2.2 2 4.4 3.2 6.6 2.4 4.6 5.1 5 8 .4 7.5-11.9 8.4-27.2 18.9-37.7.9-.9.2-3.3.2-5 .2-14.4-6.2-25.3-18.9-34.1-.9 2.7-3.1 5.8-2.3 7.5 5 11.2-3.1 19-7.3 27.3-3.7 6.5-9.4 12.1-14.5 17.6zM693.9 504.1c-.9-1.4.2-4 .3-6 1.8 1.3 4.1 2.1 5.2 3.8 3.2 4.7 6.2 9.5 9.2 14.4 1.7 2.7 5.7 1.9 6.2-1.2 2-11.2 3.9-22.6 6.2-35.3-1.1-.5-4.5-3.1-6.6-2.4-12.8 4.6-24 11.8-36 16.6.3 2.7-1.1 4-.9 4.4.3.8 2.5 1.5 3.1 1.8 11.6 4.9 10.7 11.7 8.1 22.4-.6 2.3 1 5 .9 7.5-.4 5.8-1.4 11.5-2.1 17.2l-4.3-.1c-.6-3.8-1.4-7.5-1.8-11.3-.8-6.6-4.3-8.3-9.7-4.3-6.9 5.2-6.6 12.1-3.9 19.2 1.9 4.7 4.8 9.1 6.6 13.8 1 2.8 1.1 5.9 1.4 8.9-1.1.7-1.2.8-2.3 1.4-3.4-2.2-6.7-4.4-11.8-7.8-.8 8.7-1.8 15.8-1.9 23 0 2.7 2.1 5.3 3.2 8 3.1-1.4 7.3-2 9.1-4.4 6-7.9 16.9-13.4 13.7-26.3-.4-1.4 1.8-3.4 2.5-5.2 7.3-18.7 18.3-37.2 5.6-58.1zM133.8 493.1c.9-5 .7-11.2-1.4-15.7-2.7-5.8-1.9-10.6-.6-16.3 1.6-7.3 1.8-15 1.9-22.6 0-1.8-2.9-3.6-4.5-5.4-1.5 1.5-3.7 2.6-4.5 4.4-6.6 16-13.7 32-4.2 49.5.7 1.4.8 3.4.5 5-2.9 17.8-3.5 36.5-18.6 49.8-8.5 7.5-7.8 17.3-6.1 26.8 1.2 6.9 7.6 8.7 11.6 3 4.2-6 6.7-13.3 9.3-20.3 1.6-4.5 2.1-9.4 3-14.1 1.2.2 2.3.4 3.5.6 0 5.5-.3 11 .2 16.5.2 2.1 2.2 4.1 3.4 6.2 2-1.3 5.3-2.2 5.8-3.9 1.3-4.1 2.8-9.1 1.7-12.9-4.6-16.9-4.1-33.6-1-50.6zM144.6 323c1.9-1.3 3.1-4.9 3.3-7.5.8-9.7 1.1-19.5 1.4-26.9 4.1-4.3 9.2-7.2 9.5-10.5 1.1-12.7.9-25.5.5-38.2-.2-4.6-3.7-6.7-7.6-2.7-10 10.3-13.9 22.7-12.7 37.2 1 11.5.2 23.1.2 34.7-.9-.7-1-1.6-1.3-2.3-2-3.9-4-7.7-6-11.6-2.9 4.1-5.9 8.1-8.7 12.3-.6.8-.6 2.3-.3 3.3 1.1 4.2 2.3 8.3 3.5 12.5 3.3-1.9 6.5-3.9 9.8-5.8.2-.1.5 0 2.3 0-1 3-1.1 7.3-2.8 8-7.8 3.6-9.2 10.9-12 17.7-1.9 4.6-4.3 9.2-7.5 12.9-5.1 5.7-7.7 11.8-6.9 19.3.2 1.8.9 4.8 2 5.1 1.8.5 4.7-.1 6-1.4 3.7-3.4 6.7-7.6 10.4-11.2 7.3-7.1 11.2-15.4 10.4-25.9-.7-7.2-.8-14.2 6.5-19zM662.1 172.8c.7 2.8 0 6.1-.8 9.1-1.4 5.3-4.6 10.3-4.8 15.6-.2 6.3.6 14.9 8.5 15.1 3 .1 9.8-10.2 8.7-14-4.3-14.9.5-23.6 13.8-29.5 4.6-2.1 9-5 13.2-7.8 4.9-3.3 11.7-6.1 13.9-10.8 4.5-9.9 3.4-10.4 11.6-3.9 1.1.8 2.4 1.5 3.7 1.8 5 1.2 10.1 3 15.2 3.2 3.9.1 9-.9 11.3-3.4 1.7-1.9.9-7.9-1-10.7-2.7-3.9-7.3-6.5-11.7-10.1-4.8 8.1-9.6 6.2-14.5 2-5.9-5-10.7-2.4-15.6 2-3.8 3.4-7.9 7-12.5 9.1-12.1 5.4-12.2 5.1-10.8 19.4-3.3-3-5.5-5.7-8.2-7.2-2.4-1.3-6.4-2.8-8.3-1.7-5.9 3.6-11.2 8.3-16.7 12.6 1.9 3.3 4.2 6 5 9.2zM298.3 297.5c4.5-10.9 1.4-24.8-7-35.1-4.4-5.4-11.8-6.2-16.8-2.3-2.7 2.1-3 9-2.3 13.4 2 14.2 5 28.2 6.8 38 .1 13.4.1 13.4-7.3 19-7.5 5.7-11.4 20.5-7.2 29.2 3.3 6.9-.2 11-5.4 13.9-8.6 4.9-9.5 15-1.3 20.7 5.6 3.9 13.6 2 13.4-3.8-.5-13 6.8-23.9 8.3-36 1.4-11.4 3.3-21.7 9-32.4 3.9-7.4 6.4-16.3 9.8-24.6zM394.8 414.4c3.7-2.2 5.8-7 9.3-11.4-12.1-3.2-13.5-6.7-8.2-14.4 5.6-8.1 5.3-9.3-3-15.1-4.5-3.1-7.4-2.5-8.5 3-1.3 6.7-2.3 13.4-3.3 20.1-.4 2.5-.1 5.3-1.2 7.5-1.2 2.3-3.6 3.9-5.4 5.8-1.2-2.2-3.4-4.4-3.5-6.7-.2-3.9 1-7.8 1.6-11.7 1-6.7 2.6-13.4 2.9-20.1.1-2.7-2.6-5.5-4.1-8.2-2.1 2.4-5.5 4.5-6.1 7.2-1.2 6-.9 12.3-1.5 18.5-.4 4-1.5 7.9-2.2 11.9-.9-.1-1.9-.2-2.8-.3-1.6-9-3.2-18.1-4.9-27.1-1.2-.1-2.5-.1-3.7-.2-1.1 2.1-3 4.1-3.3 6.3-2.4 17.9-4.6 35.9-6.5 53.9-.6 5.8 3.2 7.5 7.4 4.4 6.4-4.7 12-10.6 18.3-15.7 2.3-1.9 6.1-4.5 8.1-3.7 7.8 2.9 14.5-.4 20.6-4zM434.1 168.3c-2.6-2.2-5.2-4.3-7.8-6.4-2.1 3.4-5 6.6-6 10.2-1 3.8-1.2 7.8 4.2 10.6 6.2 3.1 11.3 8.3 16.8 12.5 3.6 2.7 7.1 5.5 10.8 8 4.4 2.9 9 5.6 13.4 8.3 1.7 1 3.4 2.1 5.7 3.5 1.3-5 2.3-8.7 3.2-12.4.8.1 1.6.2 2.4.2.3 2.7.1 5.5.9 8.1.8 2.6 2.5 4.9 3.8 7.3 1.2-3 4-6.4 3.3-8.8-1.8-5.9-5.5-11.1-7.7-16.9-.9-2.4-1.2-6.1 0-8.1 5-7.9 4.7-11.4-3.9-14.9-8.1-3.2-14-8.1-18.2-15.7-1.3-2.4-3.3-4.8-5.6-6.3-2.1-1.4-5.6-3-7.3-2.1-1.9.9-3.2 4.5-3.3 7-.2 3.3 1 6.7 1.4 10 .4 3.1.7 6.2 1 9.3-.7.4-1.5.7-2.2 1.1-1.6-1.4-3.2-3.1-4.9-4.5zM505.3 421c6.1-5.8 5.7-12.6 2.7-19.5-2.6-5.9-5.9-11.6-9-17.3-2.9-5.5-4.6-13.5-9.1-15.6-4.3-2-11.4 2.2-17.3 3.7-2.2.6-4.4 1.1-6.5 1.8-8.7 2.6-13.8 7.8-14.6 17.5-.5 5.8-3.3 11.4-4.5 17.2-.8 3.8-.5 7.7-.8 11.6 1.3.3 2.6.6 3.9 1 6.7-9.5 13.3-19.1 20-28.6 1.5-2.2 3.5-5.8 5.1-5.7 2.6.1 6 2.2 7.4 4.5 4.3 6.9 8.3 14.2 11.6 21.7 1.4 3.3.8 7.6.8 11.4-.1 10.9-.7 21.8-.4 32.7.2 4.9 2.3 9.8 3.5 14.7h2.8c3.3-9.6 8.1-18.8 7-29.6-.2-1.8-1.2-4-2.6-5.1-7.1-5.6-5.7-11 0-16.4zM194.9 556.9c3.8 2.3 7.1 5.7 9 5 2.9-1 5.6-4.4 7-7.5 3.9-8.5 7.6-17.1 10.5-25.9 2.5-7.5 4.1-15.3 5.4-23.1.6-3.9-.1-9.1-6.2-6.4-9.8 4.2-18.6 9.8-20.4 21.8-.7 4.6-2.4 7.5-8.1 7.7-2.1.1-5.2 4.2-5.9 7-1.3 4.9-1.1 10.2-1.6 16.8-1.6-2.2-2.4-3.2-3.2-4.3-1.7-2-3.4-4.1-5.1-6.1-2.3 2.2-5.1 4.2-6.9 6.8-1.2 1.7-1.6 4.3-1.6 6.4.2 9.9.4 19.8 1.1 29.7.2 3.2 1.7 6.4 2.9 10.6 8.5-5.6 8.7-13.1 10-19.8 1.6-8.7 6.5-14.6 13.1-18.7zM207.6 487.7c6.4.4 13.4 1.9 19.2 0 5.9-1.9 5.2-8.2 1.7-12.9-5.1-6.8-3-12.5.4-19.5 3.2-6.8 3.6-15 5-22.6.6-2.9-.5-6.9 1.1-8.8 6.4-7.7 7-16.6 6.5-25.7-.3-5 1.7-12.6-5.9-12.9-7.3-.3-6.2 7.7-7.2 12.5-.6 3.1.6 6.7 1.3 10 .6 3.3 1.5 6.5 2.3 10-14.4 2.9-6.4 15.6-11.2 24.1-1.7-1.6-3.3-2.3-3.6-3.4-2.2-9.4-7.3-18.1-4.2-28.7 1.5-5.1-.9-11.5-2.2-17.1-.4-1.8-3.2-3.1-4.9-4.6-1.1 2.1-2.5 4.2-3.2 6.4-.5 1.8-.2 3.9 0 5.9 1.7 19.3 3.7 38.6 5 57.9.5 7.7-.6 15.5-.8 23.3 0 2.1.4 6.1.7 6.1zM121.3 275.4c10.7-8.6 12.1-12.1 6.1-24.2-4.6-9.2-5.5-18.3-3.8-28 .5-3 1.1-6.4.4-9.3-.8-3.2-3.1-6-4.7-8.9-1.7 2.7-3.5 5.3-5 8-5.4 10-11.6 19.5-9.9 32.1.8 5.9-2 12.5-3.9 18.5-1 3-3.8 5.4-5.7 8.1-3.1 4.3-8.2 8.5-8.7 13.1-.9 9.6.6 19.4 1.2 30.7 2.2-1.5 4.6-2.2 5.7-3.9 7.3-11.7 21.6-17.9 25.1-32.5.4-1.3 1.9-2.6 3.2-3.7z"/><path class="st1" d="M108.5 500.9c-.3-.8-.6-1.8-1.2-2.2-7.2-5.2-5.3-11.9-2.6-18.3 10.3-24.3 2-48.5-.1-72.7-.2-1.8-4.5-5-6.1-4.5-6.8 1.9-11.3 18.6-5.9 22.7 6.3 4.7 3.4 8.8 1.9 14-1.8 6.3-2.3 13-3.1 19.6-.4 3.8.9 8-.2 11.5-6 17.5-4.6 35-1 52.5.9 4.3 2 8.6 3.1 13.1 9.3-5.6 18.1-27.4 15.2-35.7zM571.9 263.8c1.2 0 2.4.1 3.6.1.8-2.8 1.3-5.7 2.5-8.3 1.1-2.4 2.9-5.9 4.7-6.1 5.6-.8 8.3-3.7 10.1-8.7.6-1.7 3.2-2.6 4.8-3.8 1.3 1.7 3 3.3 3.7 5.2 1.5 3.9 1.5 8.7 3.8 12 2.1 3 6.4 4.5 9.8 6.6 1-3.4 3.1-7 2.6-10.3-.8-6.4-.1-11.5 4.9-16.1 14.5-13.5 13.1-27.1-3.9-36.4-2.5-1.4-7.7-1.8-8.9-.4-2.4 2.9-3.4 7.3-3.8 11.2-.2 2.1 2.1 4.5 3.5 6.6 2.6 4 1.4 7.3-2.9 7.3-5.5.1-11.5-.6-16.5-2.8-6.9-3.1-14-2-13 3.7 2 10.5-4.6 18.4-5.8 27.6-.4 4 .5 8.4.8 12.6zM666.5 97.7c-1.7 5.5-3 11.1-5.1 16.4-.8 2.1-3.6 5.1-5 4.9-8.2-1.2-9.5 3.7-10.5 9.9-.7 4.8-2.1 9.4-3.2 14.1-1.1 0-2.3-.1-3.4-.1-1.1-2.8-2.6-5.4-3.2-8.3-2.9-14.3-5.4-28.7-8.5-43-.7-3.1-3.4-5.7-5.2-8.6-2.3 2.7-6 5.2-6.8 8.3-1.8 7.3-1.7 15.1-3.3 22.5-1.6 7.1 4 22.2 9.9 26 3.8 2.4 6.7 6.1 10.2 9 3.7 3.1 7.5 7.9 11.6 8.3 7.2.6 21.3-16.4 22.1-24.1 1.1-10.1 2.7-20.1 3.9-30.2.2-1.6-.6-3.3-1-4.9-.8.1-1.7 0-2.5-.2zM264 515.9c.4 2.7 2.3 7.2 3.8 7.3 3.2.2 7.6-1 9.6-3.3 2.1-2.4 2.4-6.8 2.5-10.3.2-4.5-.9-9-1-13.5-.4-17.7-.5-18.4-17.6-15.9-7.6 1.1-17.5 3.9-21.5 9.4-9.2 12.9-7.4 29.4-9.6 44.7 17.6 1 21.1-1.3 25.4-16 .9-3 .9-6.2 1.8-9.2.8-2.6 2.2-5 3.3-7.6 1 .2 2.1.4 3.1.6 0 4.6-.5 9.3.2 13.8zM56.3 162c-15.3 8.8-15.3 8.8-10.6 27 1 4.1 1.8 8.2 2.9 13.1-6.7 2.3-12.6 4.6-11.2 12.4.5 2.6 2.8 4.8 4.3 7.2 1.8-2.2 4-4.2 5.2-6.7 1.3-2.4.9-7.1 2.4-7.6 11-4 15.8-12.6 18.9-23 .6-1.9 3.7-3 4.4-5 2.2-5.6 6.4-12.3 5-17.1-3.7-12.4-10.1-24.1-15.4-36-12.6 8.7-21.5 21.6-5.9 35.7zM86.6 554.8c-2.2-13.3-5.9-26.4-9-39.5-.1-.5-1.3-.8-3.1-1.9-2.3 3.6-5.6 6.7-6.5 10.5-2.1 9-3 18.3-4.7 27.5-.8 4.6-2.3 9-3.5 13.5-.9-.2-1.8-.3-2.8-.5-.3-2.4-.2-4.9-.9-7.2-2.6-8.7-.5-19.1-8.9-25.8-6.9-5.4-11.7-3.7-12.9 4.8-1.5 10.4 1.7 20.2 8.3 27.7 5 5.7 12.7 9 19.2 13.3.2.1.6.1.8.1 8 .4 25.2-14.8 24-22.5zM641.8 546.7c-2 .9-5.9 1.6-6.8.5-4.2-5.2-7.5-3-10.2.8-2.5 3.6-5.2 7.6-5.8 11.8-1.5 9.5-1.2 19.2-2.6 28.7-1.6 10.7-2.1 10.6 8.4 10.7h5.1v-.1c3.7 0 7.4.4 11-.2 2.2-.3 5.4-1.9 5.9-3.5 3.8-13.9 7.7-27.8 10-41.9.6-3.8-4.1-8.5-6.3-12.8-3 2.1-5.6 4.5-8.7 6zM209.1 319.8c2.3-.2 5.3-3.2 6.2-5.7 3.9-10.1 7.2-20.5 11-31.5 7.4 3.9 7.8 6 4.3 12.9-2.3 4.6-6.3 11-4.7 14.3 3.5 7.4 10 13.5 15.8 20.8 10.4-21.9-8.6-81.7-25.6-87.9-5 7.7-5.7 17.3-2.3 24.2 5.6 11-1.7 20 .4 30.1-12.6-1.8-16.2 1.4-14 11.7.5 2.2.7 4.8 2 6.4 1.9 2.1 4.8 4.9 6.9 4.7zM181.6 344.2c-1.4-3.5-4.9-6.1-7.5-9.2-1.8 3.3-4.1 6.4-5.3 9.8-1.7 4.9-2.7 10-4.4 16.4-8.7-8.1-12.7-7.2-16.7 1.3-.8 1.8-1.6 3.7-1.8 5.6-1.6 15.4-3 30.7-4.4 46.1-.1 1.1-.3 2.7.3 3.3 1.4 1.4 3.3 3.4 4.8 3.2 8.1-.8 19-14.7 17.6-23.2-1-6.4 1.5-10.4 5.3-15.1 8.8-11 18.3-22.4 12.1-38.2zM554 85.7c-1.8.6-3.5 2.6-4.4 4.4-7.2 14.2-14.3 28.5-21.4 42.7-2.2 4.5-4.7 8.9-6.5 13.6-2.9 7.6 2.2 11.6 7.8 14.8 5.6 3.2 11.4 2.6 15.3-2.3 3.2-4 5.1-9.2 7.2-14.1 2.6-6.2 4.8-12.5 7.3-18.8 2.3-5.7 4.8-11.4 7.6-18.1-2.6-6.5-5.1-13.3-8.1-19.9-.7-1.2-3.6-2.7-4.8-2.3zM435.1 364.9c15.6 2.9 17.8 1.7 23.4-13.9 1.5-4.2 2.4-8.8 2.5-13.2.2-6.3 1.3-15.4-6.8-16-8.2-.6-7.9 8.6-8.8 14.9-.7 4.2-1.4 8.4-2.2 12.5-1.3.1-2.6.2-3.9.2-1.4-6-3.2-11.9-4.1-18-.7-5 .4-10.3-.7-15.2-.6-2.7-3.9-5-6.4-6.8-.8-.6-4.1.6-4.7 1.8-3.4 7.1-7.9 7.2-13.8 2.1-7.3 10.2-6.8 16.5 2.6 23.2 8.6 6.1 15.6 12.8 17.9 23.7.4 1.8 3.1 4.3 5 4.7zM196.5 450.7c-3.2-26.2-6.2-52.3.4-78.5.5-2-1.8-4.8-2.7-7.2-1.9 1.4-4.8 2.4-5.5 4.2-5.6 13.9-10.9 28-15.9 42.1-.6 1.5.9 5.5 1.6 5.6 8.5.8 6.5 6.7 5.3 11.4-2.3 9.3-5.7 18.3-7.9 27.6-1.2 5.2-.9 10.8-1.5 18.7 7.3-3.8 11.6-6.6 16.2-8.2 8.7-3.2 11.2-6.5 10-15.7zM262.3 541.4c-3 .2-6.1-.1-8.8.7-2 .6-3.5 2.7-5.3 4-3.8 2.9-7.2 6.8-11.5 8.5-13.4 5.3-23.8 13.1-28.7 27.4-1.9 5.7-4.9 11-7.8 17.3 10.8-2.5 24.9 7.4 30.8-11.7 1.9 3.9 3.1 6.4 4.9 9.9 9.3-16.2 18.2-31.2 26.5-46.5 1.2-2.5 0-6.4-.1-9.6z"/><path class="st1" d="M166 195.5c0 8.5.8 17 1.5 25.5.5 5.6 2.7 9.8 8.4 12.7 12.7 6.3 20.6 16.1 20.1 31.3-.2 6.5.7 13 1.6 19.4.4 2.4 2.3 4.5 3.6 6.7 1.9-1.9 5.3-3.8 5.4-5.8.3-7.2 1.4-15.4-1.4-21.6-3.4-7.5-4.3-12.9.2-20.2 2.7-4.4 8-11.4 1.6-15.9-3.2-2.2-9.9.6-15 1.2-1.1.6-2.1 1.2-3.2 1.8 0-6.6-.6-13.3.1-19.8 1.2-10.5-4.4-16.4-12.5-21-6.7-3.8-10.4-2-10.4 5.7zM351.3 95.9c2.3 2.4 3.9 5.5 5.9 8.2 1.2 1.7 2.7 3.2 5 5.9 6.5-17.2 7.3-33.2 6-49.8-.6-7.9-.9-16.9 2.3-23.7 4.5-9.6 4.9-23.2-3.9-32.5-3.9 10.1-8.5 19.3-10.9 29-3 12.5-2.3 25.6-9.1 37.6-7.5 13.3-6.5 13.8 4.7 25.3zM350 302c.1-2.2-.1-4.6-.8-6.7-3.9-11.8-7.5-23.7-12.2-35.2-3.5-8.6-7.6-9-16.2-2.9-5.2-14.7-10.3-29.2-15.5-43.8-1.7-.1-3.3-.1-5-.2-3.6 9-7.7 17.8-10.7 27-.9 2.7.8 6.7 2.3 9.6.8 1.5 3.9 2.9 5.5 2.5 1.5-.3 3-3.1 3.3-5 .5-3.7.2-7.4.2-11.2.7-.2 1.5-.3 2.2-.5 1.6 5.2 3.9 10.3 4.7 15.6 1.4 9 4.1 15.3 12.6 21.2 8.7 6.1 22.1 12.7 17.2 28.7-1.5 4.8-1 9.6 5.3 10.1s7-4.5 7.1-9.2zM.6 240.5c.1 1.7 1.9 4.1 3.5 4.8 5.2 2.1 10.6 3.7 16 5.3 8.2 2.3 12.6.1 14.6-6.5-3.7-2.2-9.3-4.2-9.2-5.6 1.4-11.9 3.9-23.7 6.1-35.5 1-5.5 2.2-11 2.6-16.5.2-2.2-1-5.7-2.5-6.5-1.6-.8-5.3.4-6.6 2-5.3 6.2-9.5 13.3-15 19.3C-.3 212.7-.4 226.5.6 240.5zM160.4 513c-6.4-5-6.4-11-4.6-17.5 3.7-13.6 8-27 11.4-40.7 1.1-4.4.2-9.3.2-13.9-1.1-.4-2.2-.7-3.3-1.1-2.2 2.3-5.5 4.3-6.4 7.1-5.3 14.9-11.7 29.6-14.5 45-2.6 14.6-1.4 29.9-1.2 44.8.1 5.7 2.8 11.7 10 8.7 4.8-2 11-6 12.1-10.2 1.9-7.2 3.8-16.4-3.7-22.2zM268.9 37.3c2.9 4.9 2.5 9.6-2 11.6-3.1 1.4-8-.2-11.6-1.7-2.7-1.2-4.4-4.4-6.6-6.7-1 .3-1.9.7-2.9 1 .3 3.8-.9 8.9 1.1 11.1 4.9 5.2 11.2 9 17 13.3 1.9 1.3 5.1 1.7 5.9 3.4 4.1 8.3 7.1 17.1 11.4 25.3 2.1 3.9 6.1 6.9 9.2 10.3l2.7-1.2c.3-2.1 1.4-4.6.7-6.2-4.3-9.6-9-19.1-13.5-28.6-1.1-2.4-2.7-5.1-2.7-7.6 0-8.2 1.4-16.4.9-24.5-.5-8.4-1.8-16.9-4.1-24.9-1-3.4-5.2-6.5-8.7-8.3-2.2-1.1-6.8-.4-8.4 1.2-1.5 1.6-1.6 6-.5 8.4 3.6 8.1 7.6 16.3 12.1 24.1zM461.1 244.9c-1.1 3.4-1 7.3-1.5 10.9-1.3 9.8 3.9 17 13.6 19 2.5.5 5.3 1.8 7 3.6 8.5 8.8 16.1 18.6 25.4 26.6 3.6 3.1 10.7 2.4 16.2 2.6.6 0 3.1-7.4 1.8-9.1-4.4-5.7-9.4-11.6-15.6-14.9-4.2-2.3-4.8-4.1-4.9-8-.1-4.7-1.2-9.3-2-14.7-8.1 2.7-14.1 4.7-21.4 7.1-3.9-11.3-7.7-22.2-12.5-36.1-2.4 5.1-4.8 8.9-6.1 13zM537.6 531.2c3.2 4 6.2 7.8 11.8 5.8 6.3-2.2 13.5-3.3 15.2-11.7 1.7-8.3-4.7-14.5-13-13.9-10.1.8-20.3.2-30.8.2-9.5 16.5-7 34.2-8.8 51.2-.4 4 1.6 8.6 7.3 5.5 9.2-4.9 14.7-22.6 11-32.4-1.4-3.6-1.1-7.9-1.6-11.9 3.1 2.4 6.6 4.3 8.9 7.2zM592.1 508.1c2.7-2.4 4.5-7 4.7-10.8.9-15.7-8-28-15.4-40.7-.1-.2-1 0-2.3 0-.4 1.9-1.2 4.1-1.2 6.2 0 7.6.6 15.3.3 22.9-.1 2.1-2 4.2-3.1 6.4-1.9-1.1-3.9-1.9-5.6-3.3-1.3-1-1.9-2.8-3-4.1-6.7-8.9-13.5-17.8-20.3-26.7-.8.4-1.7.8-2.5 1.1.6 4.4 1 8.8 1.7 13.2 1.1 6.4 3.2 12.7 3.5 19.2.3 7.7 3.1 11.3 11 12 7.5.7 14.9 2.8 22.3 4.1 3.4.4 8.2 2 9.9.5zM290.9 503.5c1.2.4 3.6-1.9 4.9-3.5 1.2-1.5 1.6-3.6 2.8-6.5 1.7.8 2.9 1.5 4.1 2 7.3 2.7 25.2-1.9 27.8-7.6 5.4-11.7 3-23.4-.2-35.3-1.7.5-2.5.5-2.8.8-4.7 6.4-7.8 15.5-19 10.9-1.1-.5-3.2 1-4.6 1.8-5.5 3.2-11.2 6.3-16.4 9.9-1.6 1.1-2.9 3.7-2.9 5.7 0 5.6.5 11.3 1.5 16.8.5 2 2.8 4.3 4.8 5zM190.1 94.1c-1.2-6.6-1.7-11.2-3-15.6-1.1-3.6-2.4-9.2-4.8-9.9-6.7-1.9-8.9-5.7-9.5-12.1-.2-1.9-2.8-3.5-4.4-5.3-1.5 1.8-4.6 4-4.3 5.4 1.5 6.7 3.7 13.3 6 19.8 2.2 6.2 5.7 12.2 6.9 18.6 1.9 10.3 2 20.9 3.9 31.2.5 2.9 4.6 5.2 7 7.7 1.2-3.3 3.5-6.8 3.2-10-.3-3.3-3.1-6.5-4.9-9.7-2.4-4.1-3.2-7.8 3-11.1 1.2 2.9 2.5 5.2 3.2 7.8.9 3.6.9 7.4 2.1 10.8.8 2.3 2.9 5.7 4.7 5.8 2.1.2 5.2-2.1 6.4-4.2 1.3-2.2 1.8-5.6 1.1-8.1-2.9-9.7-6.3-19.2-9.8-29.5-2.3 2.8-3.8 4.6-6.8 8.4z"/><path class="st1" d="M337.8 372.1c.5-5.6.2-11.3.3-16.9.5-13.3 2.6-27.3-14.3-33-1-.3-1.6-1.6-2.4-2.4-4-3.8-2.6-7.2 1.8-8.2 10.2-2.3 8.3-8.8 5.1-14.8-2.7-5.1-6.9-9.5-10.9-13.8-1.2-1.3-4.9-2.2-6-1.4-1.6 1.3-2.5 4.2-2.6 6.5-.3 7.6-.1 15.2-.1 22.9-.3 0-.6.1-.8.1.8 3 .9 6.3 2.4 8.9 9.3 16.8 19.5 33.2 20 53.4 0 1.4 2.8 2.6 4.3 4 1.1-1.7 3.1-3.4 3.2-5.3zM491.2 556.1c-4.3 2.5-9 4.5-13.6 6.6-15.2 7-25.9 17.7-28.8 36 7.8 0 15.4 1.4 22.1-.6 3.6-1 5.1-8.1 8.4-11.7 1.5-1.7 6-3.3 7.2-2.4 6.7 5.1 10.6 1.1 12.6-4.2 2.2-5.9 3.5-12.5 3.5-18.8.1-6.7-5.2-8.5-11.4-4.9zM101.5 53.2c-2.2.7-5.2.8-6.3 2.3-10.4 14.3-20.6 28.7-30.4 43.4-1.2 1.9-.9 5.6.1 7.9.5 1.1 4.2.6 6.2 1.3 3.1 1 6.8 1.6 9 3.7 6 5.7 12.1 9 21.5 5-1.3-4-1.8-8.4-3.9-11.7-3.5-5.6-3.6-10.7-2-16.9 1.9-7.2 2-14.6 7.7-21 2.1-2.3-1.1-9.2-1.9-14zM505.3 166.1c-5 4.9-5.2 10.9-2.2 16.4 4 7.1 8.9 13.8 13.9 20.2 1.1 1.4 5.2 2 6.8 1 5.5-3.3 10.4-3 15.9-.1 6 3.2 10.6.2 10.5-9.1-2-3.1-4.4-9.2-8.8-13-6.6-5.6-14.6-9.4-21.9-14.1-4.5-2.9-8.9-6.5-14.2-1.3zM283 114.3c-.7 7.9-1 15.5 4.7 22.5 3.5 4.3 6 10.2 7.2 15.7 1.4 6.3.1 13.1 1.2 19.4.9 5.4 3.6 10.5 5.4 15.7l3.9-.6c1.3-3 3.5-5.9 3.9-9 1-8.7 2.3-17.6 1.5-26.2-1.2-13.2-2.6-26.9-11.4-37.6-2.5-3-8.2-3.7-12.5-4.7-1-.1-3.7 3.1-3.9 4.8zM134.3 237.9c3.9-4.7 6.7-7.9 9.4-11.2 2.3-2.9 3.9-7.2 6.9-8.8 8.2-4.3 11.2-20.1 3-25-6.8-4.1-9.1-8.9-9.9-16.1-.3-2.9-1.8-6.1-3.8-8.3-1.2-1.4-4.9-2.3-6.3-1.4-6 3.6-8.9 16-6.4 22.6 5.2 13.9 12.7 27.5 5.8 43-.3.5.3 1.5 1.3 5.2zM169.6 168.6c-2-11.5-3.2-23.5-7.4-34.2-3.2-8-10.3-14.5-16.9-23.3-2.9 11.9-5.9 23.8-8.6 35.8-.4 1.9.2 5.2 1.6 6.3 7.8 6.5 15.7 12.7 24.1 18.4 1.2.8 7.3-2.4 7.2-3zM309.8 53.1c-2.5 2.2-4.7 4-8.2 7-.8-12.2-.5-23.1-13.3-29.8-.8 4.5-2.7 8.3-2 11.6 2 8.5 4.9 16.8 7.8 25.1 2.6 7.4 5.7 14.7 8.3 22.1 2.1 6.2 3.4 12.7 6.1 18.6.9 2 5.6 4.3 7.5 3.6 3.8-1.5 6.2-19.6 3.1-22.7-5.5-5.5-5.8-11.5-4.9-18.8.6-5.7 2.1-12.5-4.4-16.7zM516.3 494.3c.5-.3 1-.6 1.5-1-3-5.3-5.7-14.9-9.1-15.1-7.4-.5-8.4 8.3-10.3 14.4-.1.3-.1.6-.1.8-3.7 13.5-5 27.9-13.8 39.7-1.5 2-2.1 4.7-2.6 7.1-1.5 6.9 1.2 9.9 8 8.9 7.7-1.1 12.9-5.2 14.7-13.2 2.9-12.8 1.5-26.8 10.9-37.7.8-.7.6-2.5.8-3.9zM237.3 467.1c.7 1.5 4.3 3.2 5.6 2.6 11.3-5.5 23.7-22.7 24.2-34.6-2.4-9.6-4.6-19.2-7.4-28.6-.7-2.3-3.5-3.9-5.3-5.9-1.5 2.1-3.8 4-4.3 6.3-4.4 17.5-8.5 35.2-12.6 52.8-.6 2.4-1.1 5.3-.2 7.4zM472.5 360.3c2.5-1.2 4.4-3.5 6.7-5.2 1.8-1.4 4.3-3.9 5.7-3.4 11.2 3.8 17.2-1.4 20.7-11.7 10.7 3.6 15.6-5.7 22.5-10.2 1.5-.9.9-5.1 1.3-7.8-2.3-.3-4.6-1-6.9-.8-6.7.5-13.7.3-19.8 2.4-8.1 2.8-15.9 7.2-23.1 11.9-3.9 2.5-6.8 7-9.2 11.1-1.5 2.6-2 6.2-1.8 9.3 0 1.6 3.3 4.7 3.9 4.4zM524.3 490.4c1.8 7.7 9 11.8 15.4 9.1 1.5-.6 3-4.5 2.5-6.5-1.9-7.7-4.9-15.2-6.8-22.9-4.4-18.2-8.3-36.6-13-57.2-7.8 8.4-8.2 15.5-6.1 23.3 1.2 4.6 4.4 10.1 3 13.8-5.5 14.7 1.8 27.2 5 40.4zM191.1 143.8c-3.7-3.9-7-3.1-9.4 1.5-6.4 12.4-2.9 29.8 7.5 39.3 2.2 2 3.4 5.1 5.1 7.7 1.9 2.8 3.6 5.8 6 8.1 3.7 3.5 7.9 6.3 13.4 10.7-.7-11.3-1.1-22.3-2.5-33.2-.3-2.7-3.9-5-6-7.6-2.3 2.2-4.8 4.3-7 6.5-1.2 1.2-2.2 2.7-3.3 4.1-.8-.3-1.5-.5-2.3-.8 1-6.8 1.2-13.8 3.2-20.3 2.1-6.9-.5-11.6-4.7-16zM470.9 51.3c-1.1 2.4-2.8 4.6-3.1 7.1-.4 2.9.5 6 .9 9.9-2.4-.4-3.5-.2-4-.7-4.9-5-9.5-3.3-14.2.3-5.1 3.9-5.9 8.9-3.7 14.4 3.3 8.1 6.6 16.3 10.7 24 1.3 2.5 5 4.9 7.8 5.1 1.6.1 4.3-3.9 5.1-6.5 1.8-5.6 3.3-11.5 3.9-17.3.9-10.1 1.2-20.3 1.1-30.4.1-2-2.9-3.9-4.5-5.9zM418.6 111.2c-5-4.4-7.2-9.4-7.6-16.2-.3-6.1-2.9-12.1-5.1-20.4-3 3.4-4 4.1-4.4 5-9.7 20.3-.3 52.4 19 63.7 1.5.9 4.6 1 5.8 0 5.5-4.2 6.6-16.1 2.2-21.7-3-3.7-6.4-7.3-9.9-10.4zM291.7 458.9c4.9-4.1 10-7.9 14.7-12.2 1.4-1.3 2.7-4 2.5-5.8-1.3-13.9-8.4-25.2-15.9-36.4-.9.1-1.8.1-2.7.2-.9 3.4-1.8 6.8-2.8 10.2-1.4 4.6-2.2 9.5-4.5 13.5-5.2 8.9-6.8 17.5-2.6 27.4 2.9 7 5.4 8.1 11.3 3.1zM413.1 374.2c3.1.9 9.2-.8 10.3-3.1 1.3-2.9-.3-8.1-2.2-11.4-6.3-10.8-17-12.8-29.1-11.8.7-4.4 1.9-7.7 1.7-11-.3-4.6-.7-9.7-2.9-13.6-2.8-5.1-10.7-5-12.6-.9-5.9 12.6-3.6 23.1 7.2 33.3 5.5 5.2 11.1 9.6 18.3-.2 1.2 4.4 1.6 7.5 2.9 10.1 1.7 3.3 3.6 7.8 6.4 8.6zM178.7 332.8c5.4-9.5 10.3-17.2 14.2-25.4 1.2-2.6-.3-6.6-.9-9.8-2.1-11.4-5.5-22.6-6.1-34.1-.6-10.1-4.9-16.2-15.3-22.2 0 7.6-.8 13.5.2 19.1 2.1 12 8.3 22.8 8.8 35.5.2 6 1.8 11.2-2.4 16.3-5.2 6.2-3.6 12.3 1.5 20.6zM77.9 292.8c-1.3-.6-2.6-1.1-3.9-1.7-2.3 4.7-5.8 9.3-6.6 14.2-1.7 10.3-3 12.4-14 14.4-8 1.4-10.6 6-8.8 14 1 4.5.8 9.4 1.2 14 .2 2.3.9 4.6 1.3 6.9 2.6-.6 6.1-.3 7.7-1.8 4.1-3.9 7.8-8.3 10.8-13 9.4-14.4 14.3-30 12.3-47zM559.7 195.7c.9 2.1 3.9 3.4 5.9 5.1 1.3-2 3.3-3.8 3.7-5.9 1-5 1.3-10.1 1.8-15.2.7-7 .7-14.2 8.4-18.3 1.9-1 3.5-5.1 3-7.4-1.8-8.6-4.5-17.1-6.8-25.6l-3.6.3c-1 2.2-2.2 4.4-3 6.7-3.6 10.7-6.7 21.6-10.8 32.1-3.7 9.9-2.3 19.1 1.4 28.2zM485.8 464.4c-1-9.3-2.7-18.4-4.1-27.7.3 0 .5-.1.8-.1 0-4 .8-8.1-.2-11.9-1.1-4.3-3.8-8.2-5.8-12.2-4.1 4.3-8.5 8.4-11.9 13.1-1.1 1.5.1 4.9.6 7.4 2 11.4 3.4 22.9 6.4 34 1.4 5.3 7.2 14.3 8.7 13.9 7.9-2.3 6.2-10.1 5.5-16.5zM300.5 397.3c.6-.5 1.3-1.2 1.7-1.9 5.7-11.2 7.5-22.6 1-34.1-3.3-5.9-4.1-10.8.3-17.1 4.5-6.5 4-14.3-.6-21.4-16.6 11.6-19.1 58-4.4 75.4 1-.5 1.6-.6 2-.9zM485.8 63.4c1.3 3.9 4.3 6.7 7.3 3 5.2-6.3 9.2-13.6 13.7-20.4-.5-.5-1-1-1.6-1.5-1.3-5.2-2.6-10.4-3.9-15.5-2.4-9-5.4-10.8-13.9-8.4-8.1 2.3-12.8 9.4-10.5 16.5 2.7 8.8 5.9 17.6 8.9 26.3zM725 91.1c-3.8-.5-7.4-2.8-11.2-3.5-1.7-.4-5.5 1.1-5.5 1.6.5 6.4.2 13.2 2.8 18.8 1.7 3.8 7.5 5.7 12.1 8.8 9.9-7.9 23.4-4.4 30.9-15.6 2.9-4.3 2.5-7.1-1.6-8.6-3.4-1.3-7.5-1-11.3-1.1-5.5-.3-10.9.3-16.2-.4zM579.5 297.5c4.6-1 8.3-1 10.9-2.7 6.9-4.3 13.5-9.2 19.8-14.3 4.6-3.7 3.7-8.8-.9-11.2-5.4-2.8-11.6-4.7-17.6-5.3-7.9-.9-12.6 4.4-13.8 12.7-.4 2.9-1.6 5.8-2.7 8.6-1.2 3.1-2.8 6-4.2 8.9 3 1.2 6.1 2.4 8.5 3.3zM234.5 61c1.3 1 5.1.7 6.1-.4 1.4-1.5 2.3-5 1.5-6.7-4.7-10-9.7-19.9-15.1-29.5-1.3-2.3-4.5-3.6-7.6-5.9-4 2.5-9.7 4.1-10.4 6.9-1.2 5-1.3 12.5 1.6 15.8 6.8 7.7 15.6 13.6 23.9 19.8zM258 180.9c.9 1.8 3 2.9 5.8 5.4 3.9-17.9 1.6-33-5.6-47.3-1.6-3.2-5.5-5.5-8.8-7.4-1.3-.8-5.7.8-5.7 1.2.3 11 1 21.9 1.6 32.9 8.5 1.5 9.7 9 12.7 15.2zM151.8 558.8c-11.8 3.8-14.4 8.2-12.4 20.9.5 3.1.8 6.2 1.1 9.2-.6.3-1.1.6-1.7.9 1.7 3 2.7 7.8 5.1 8.6 4 1.4 9 .9 13.1-.4 1.3-.4.9-5.8 1.6-8.9.7-3.3 1.9-6.5 2.4-9.8.8-4.7 1.9-9.5 1.5-14.1-.4-6.5-4.6-8.4-10.7-6.4zM253.7 321.8c2 2.6 4 6.4 6.7 7.1 1.8.5 5.2-3.2 7-5.6 1.3-1.9 1.1-4.9 1.5-6.9-1.5-12.3-2.7-24.2-4.5-35.9-.9-5.5-.9-14.2-8.5-13.2-9.1 1.3-7.1 11.1-5.1 16.2 4.5 11.7 3.4 23.3 2.7 35-.1 1.1-.4 2.6.2 3.3zM450.5 253.3c1.6-1.6 2.5-4 3.5-5.5-.7-2.5-.9-4.3-1.5-5.8-5.6-12-10.9-24.1-17.1-35.8-1.8-3.3-5.9-5.4-9-8-1.3 4.1-2.7 8.1-4 12.2-.1.2.1.6.1.8 2.3 16.9 13.2 28.9 23.6 41.1.8.9 3.7 1.6 4.4 1zM473.1 130.1c-2.7 1.8-7.7 4-10.7 7.7-1.4 1.7-.1 7.7 1.9 9.6 6.7 6.3 14.2 11.7 21.5 17.4 3.5 2.7 7.1 1.8 7.8-2.3.9-5.5 2.1-12.2-.2-16.7-3.5-6.9-8.4-14.1-20.3-15.7zM5.5 420.7c12.2-15.4 24.3-30.9 36.5-46.4.3-.4.8-.9.9-1.4.3-3.8.6-7.7.8-11.5-4.4.8-10.3.2-13 2.8-4.2 4.2-6.8 10.3-9.2 16-4.2 10-7.9 20-18.9 24.6-1.1.5-2 2.7-2.1 4.2-.3 4.5-.1 9-.1 15.4 3-2.1 4.3-2.6 5.1-3.7zM591.7 161.1c-2.4 6.1-5 12.2-7 18.5-2 6.3-4.1 12.7-4.8 19.3-.3 2.9 2.5 6.1 3.8 9.2 3.8-1.9 8.5-2.9 11.2-5.8 2.4-2.6 2.7-7.3 3.8-11.1 1.7-5.9 3.2-12 12.5-4.4-6.4-11-11.6-20-17.1-29.5-.7 1.1-1.8 2.3-2.4 3.8zM724 556.2c-4.8-8.4-10.1-16.5-16.5-26.9-1.4 6.1-2.4 10.5-3.3 14.9-1.4 6.5-1.3 13.9-4.4 19.4-5.9 10.5-2.5 18.5 3.1 26.9.8 0 1.7 0 2.5.1.5-3.5 1.1-6.9 1.6-10.4 1.1-7.7 1.8-15.3 12.5-15.7 4.6-.1 7.3-3.5 4.5-8.3zM86.7 183.4c-8.2 10.3-5.9 30.3 5.4 43.5 2.1-2.9 3.6-5.1 5.2-7.3 7.3-10.7 5.4-22 2-33.4-.9-3-2.2-6-3.3-9-3.2 2-7.1 3.4-9.3 6.2zM19.7 565.9c-1 4.1-.9 10.7 5.3 10.1 3.7-.4 6.8-5.6 10.2-8.7-.9-.5-1.7-1.1-2.6-1.6l-6.3-32.1c-.9-4.7-1.6-9.5-2.9-14.1-1.6-5.8-5.3-6.7-8.8-1.9-2 2.7-3.6 6.7-3.3 9.9.7 5.8 2 11.9 4.8 16.9 4.1 7 5.6 13.6 3.6 21.5zM482.9 524.2v-31.9c-13.2 19.1-25.3 38.2-26 62.1 10.6-.4 16.5-8.5 15.1-20.1-1.4-11.3-1.4-11.3 10.9-10.1zM206.5 367.1c4.4 10.3 8.7 20.6 13 30.9.9 2.2 1.9 4.3 2.8 6.5.7-.4 1.5-.8 2.2-1.2-.4-3-.9-6-1-9-.5-12.3-.1-24.8-1.5-37-.5-4-5.2-7.9-8.9-10.7-1.3-1-7.2.9-7.7 2.5-1.3 4.5-1 9.6-1 14.4 0 1.2 1.6 2.3 2.1 3.6zM424.9 83.7c3.2-5.4 6.4-10.7 9.6-16.1.1-.2.1-.6.5-3.2-4.2-6.7-9.3-15-14.8-23-.3-.4-6.1 1.6-6.1 2.7-.6 8.6-1.7 17.6.1 25.9 1 5.1 6.9 9.2 10.7 13.7zM125.2 141c1-3.8 3.9-8.3 2.8-11.3-5.5-14.9-12-29.3-18.7-45.2-1.6 2-2.7 2.8-2.9 3.7-3.2 16.9 1.1 32.6 9.2 47.2 1.7 2.7 6.4 3.7 9.6 5.6zM40.2 103.8c-6.4-2.4-7.8 3.9-9.6 8.9-1.9 5.2-5.7 9.8-7.4 15-1.1 3.2.1 7.1.3 10.7 3.9-.2 8.5.8 11.5-1 4.5-2.6 8.1-6.9 11.5-11.1 2.2-2.7 3.3-6.3 6-11.5-4.2-3.8-7.6-9.2-12.3-11zM149.8 103.8c0 2.4 4.4 4.8 6.4 7.4 1.9 2.4 3.2 5.3 5 7.8 1.8 2.5 3.9 4.9 6.1 7.6 6-8.5.5-42.4-7.5-52.6-4.2 3-9.9 18.2-10 29.8zM98.2 133.2c-12.2 4.2-18.1-.7-20.6-12.5-.3-1.2-4.2-1.6-6.4-2.4-.4 1.8-1.8 4-1.2 5.2 5.1 9.6 10 19.5 16 28.4 2.7 4 8 6.2 12.1 9.3 1.8-5.5 3.6-10.9 5.7-17.4-1.9-3.8-5-10.8-5.6-10.6zM124.7 416c3.8-8.6 6.4-18 8.3-27.2 1.1-5.5-3.3-7.4-7.5-4.5-8.9 6.2-17.1 13.4-18 26.8 2.1 3.8 4.3 7.7 6.4 11.5 3.8-2.1 9.4-3.4 10.8-6.6zM324.4 411.6c1.3 1.4 4 2.3 5.8 2 1.2-.2 2.8-3 2.8-4.6-.1-5.3 0-10.8-1.5-15.8-3.6-12.2-8-24.1-12.3-36.1-1-2.7-2.7-5.2-4.1-7.7-.9.2-1.9.4-2.8.6-.2 2.4-1 4.8-.6 7.1 2.7 15.8 5.6 31.6 8.7 47.4.5 2.5 2.1 5.2 4 7.1zM253.8 74.9c-6.2-1.5-12.6-2.1-18.9-3.2 1.7 12.8 3.3 24.8 5.2 39.1 7.9-8.5 15.3-15.2 21.1-23 3.8-5 0-11.1-7.4-12.9zM107.8 199.8c1-.1 2-.2 3.1-.3.5-2 1.1-3.9 1.4-5.9.4-2.7-.5-6.3.9-8 8.4-9.8 7.6-21.6 7.3-33-.1-3.3-4.7-6.4-7.3-9.6-1.9 3-5 5.9-5.5 9.1-1.6 11.3-2.8 22.8-3.2 34.3-.2 4.3 2.1 8.8 3.3 13.4zM743.7 48.1c-2.3-1.1-6.3-2.2-7.4-1.1-1.9 1.8-2.9 5.4-2.7 8.2.4 5.3 1.5 10.7 2.8 15.9 2.1 7.8 8.7 8.9 14.8 7.5 3.2-.7 5.5-5.4 6.6-6.5 0-13.1-4-19.2-14.1-24zM521.6 394.4c-.2-3.7.6-7.9-.8-11-3.9-8.7-3-15.6 4.2-22.2 4.5-4.1 6.1-9.3 2.4-13.4-6.1 3.2-10.5 5.9-15.2 7.9-9.5 4-12.8 11.8-7.4 20.5 4.1 6.6 9.3 12.6 14 18.8.9-.2 1.8-.4 2.8-.6zM676.5 102.7c-1.2 2.1-2.9 3.7-2.9 5.4.2 7.6.6 15.3 1.4 22.9.5 4.4 3.1 6.4 7.8 4.9 4.7-1.5 9.6-2.4 14.3-4.1 2.1-.8 5-2.3 5.5-4.1.5-1.7-1-4.8-2.6-6.3-5.7-5.1-11.7-9.8-17.6-14.6-1.5-1.2-3.1-2.2-5.9-4.1zM469.5 312.1c8-.7 16.1-1.6 24.5-2.4-.3-1.9-.1-3.5-.7-4-9.2-7.8-18.5-15.5-28.1-22.9-.8-.6-5.2 1.7-5.1 2 2.1 8.9 4.6 17.7 7.1 26.5.1.5 1.5.9 2.3.8zM706.3 37.9c1.8 2.9 6.1 4.3 7.6 5.3 9.5 0 12.9-4.3 10.2-10.9-2.3-5.7-4.5-11.8-8.2-16.6-2.2-2.9-8-6-10.6-5-3 1.1-6.3 7-5.9 10.4.8 5.8 3.7 11.7 6.9 16.8zM660.9 496.5c-3.5 2.1-7.4 6.9-7.6 10.7-.4 7.5 1.6 15.2 2.6 22.8 1.8.8 3.6 1.7 5.5 2.5 4.5-5.7 10-10.8 13.2-17.2 1.7-3.4.6-9.4-1.3-13.2-2.2-4.4-6.9-8.9-12.4-5.6zM3.3 138.7c1.7-3.1 4.8-6.2 4.8-9.3-.1-9 3.2-14.5 11.8-18.1 2.7-1.1 5.4-7.4 4.6-10.2-.9-3-7.1-7.5-9-6.7-5.5 2.4-13.2 6.5-14.1 11.1-2.1 10.5-.7 21.7-.7 32.6.8.1 1.7.3 2.6.6zM211.3 127.5c-1.9 2.1-4.2 4.1-5.6 6.5-1.1 1.8-1 4.3-2 8.9 2.4 5.7 4.9 13.5 8.9 20.4 1.8 3.1 6.5 4.4 9.9 6.5.8-4.1 3-8.4 2.3-12.2-1.6-8-4.4-15.7-7.3-23.3-1-2.7-4-4.6-6.2-6.8zM270.5 91.6c-.8.2-1.6.3-2.3.5-2.1 6.5-4.2 13-6.3 19.6-.7-.6-1.5-1.2-2.2-1.8-3.2.5-7.9 0-9.3 1.9-3.4 4.8-.9 9.1 3.9 12 2.9 1.7 6 3.2 8.7 5.1 5.4 3.7 9.2 1.6 10.1-3.9 1.4-8 1.8-16.3 1.7-24.5-.1-3-2.8-6-4.3-8.9zM448.1 52.1c4.8-5.3 12.4-10.9 12.6-16.7.3-5.7-6.4-12.4-11.2-17.4-3.1-3.2-6.9-1.3-7.5 3.9-.6 5.4-1.3 10.7-2 16.6.5 3.2.4 7.1 1.9 10.3.8 1.7 5.7 3.8 6.2 3.3zM585.5 108.4c-2.1-1.6-4.6-2.6-6.9-3.8-.8 2.9-2.9 6.2-2.1 8.5 2.3 7.2 5.2 14.3 8.9 20.8 2 3.6 6 6.1 9.1 9.1 1.7-3.9 3.5-7.7 5.2-11.6.2-.5 0-1.1 0-2.3 1.5-10.6-7-15.2-14.2-20.7zM168.5 527.2c-.2 1.7.5 3.5.9 5.3 1.8-.4 4.6-.2 5.2-1.3 2.3-4.3 5.4-8.9 5.5-13.5.4-9.8-.8-19.6-1.5-29.5-.1-1.8-1.2-3.5-1.9-5.3-14.1 6.9-16.7 19.3-7.3 30.1 1.6 1.9 1.3 5.8 1.2 8.8 0 1.8-1.8 3.5-2.1 5.4zM492.1 220.2c2.6 8.7 6.9 17 10.7 26.1 3.5-4.7 5.4-8.1 8.1-10.7 7.4-7 7.7-10.4.6-17.4-2.2-2.2-4.4-4.5-7-6-2.9-1.6-6.3-2.4-9.5-3.5-1.1 3.8-3.9 8.2-2.9 11.5z"/><path class="st1" d="M154.8 331.6c12.4-1.7 20.7-14.4 17.7-26.5-.9-3.5-1.4-7.1-1.4-10.7.1-5.4.9-10.9 1.4-16.3-.9-.2-1.8-.3-2.7-.5-4.7 18-16.4 34.1-15 54zM688.1 75.5c-2-.6-3.5-2.8-5.4-3.7-1.5-.7-4.7-1.3-5-.8-2.1 3.8-4.7 7.9-5.1 12-.2 2.2 3.8 4.8 6.1 7 2.2 2.1 4.7 4 7.2 5.9 2.9 2.2 6 4.2 9 6.3 2-3.1 4-6.1 4.8-7.4.3-12.9-2.2-16.2-11.6-19.3zM436.4 588.7c-11.7-.1-12-8.7-13.4-17-.4-2.1-2.4-5.5-3.8-5.6-2.3-.1-6.4 1.7-6.7 3.3-1 5.5-2.6 12.1-.5 16.8 2.6 6.1 5.5 14.4 15.4 13.3 2.8-.4 5.8-.3 8.2-1.5 1.6-.8 2.7-3.4 3.1-5.4.2-1.2-1.4-3.9-2.3-3.9zM340 532.7c9.1-7.6 17-13.6 16.7-24.9-.1-2.3-2.5-6.4-3.7-6.3-5.7.4-12.7.2-16.5 3.5-2.8 2.4-2.4 9.8-1.9 14.8.5 3.8 3.1 7.5 5.4 12.9zM645.4 182.6c-2 1.2-4.5 2.1-5.8 3.8-1.4 1.9-1.6 4.7-1.6 4.6.6 11.3.7 20 1.8 28.6.3 2.4 3.7 6.6 5.1 6.4 3.8-.6 8-2.5 10.8-5.2 1.3-1.3 1-6.6-.5-8.1-7.2-6.8-8.7-14.6-6.8-24 .3-1.7-2-4.1-3-6.1zM390.6 79.4c1.3.3 4.1-3.2 5.1-5.5 5-11.5 1-22.1-12.9-33.3-3.8 11.9-5.1 22.9.1 33.5 1.3 2.6 4.8 4.7 7.7 5.3zM355.5 359.2c5.8.5 9.1-4.7 8.1-10.4-1-6-3-11.9-5.5-17.5-1.3-2.9-4.4-5.1-6.6-7.5-2 3.1-4.1 6.2-5.9 9.5-.6 1.1-.3 2.8-.4 5.5.5 3.2.3 8 2.1 11.9 1.6 3.5 5.2 8.3 8.2 8.5zM116.6 318.6c-.8-3-3.2-7.9-4.8-7.8-3 0-6.7 2.4-8.9 4.9-6.3 7.4-5.1 17.3 3 30 10.2-6.6 13.8-15.4 10.7-27.1zM557 70.9c1.6 1.7 5.2 4 6.1 3.3 2-1.4 3.7-4.3 4.1-6.8.4-2.9 0-6.3-1.2-9-2.9-6.2-6.5-12.1-10.1-17.9-1.2-2-3.5-3.3-5.2-4.9-1.6 2.1-3.5 4-4.6 6.3-.7 1.4-.3 3.3-.4 3.9-.5 11.1 5.1 18.3 11.3 25.1zM.6 178.3c10.4-2.6 20.2-16.6 19.2-26.3-.3-3-2-7.4-4.2-8.2-2.2-.8-6.3 1.4-8.7 3.3-10.7 8.4-5.5 19.9-6.3 31.2zM245.8 374.6c1.9-.7 3.8-4.4 3.8-6.7-.1-5.3-.3-11.1-2.5-15.7s-6.9-8.1-10.5-12c-2.3 4.5-4.5 9.1-7.3 14.7 3.2 6.2 5.8 12 9.3 17.1 1.2 1.9 5.3 3.3 7.2 2.6zM676.5 395.2c-1.5.2-2.8 4.9-3.2 7.7-.7 4.4-1.1 9.1-.5 13.5.4 3.4 2 8.9 4 9.4 2.9.7 7.6-1.5 9.9-3.9 2.4-2.5 2.9-6.9 4.6-11.4-2-4.2-3.3-8.8-6.1-12.2-1.7-2.2-5.9-3.6-8.7-3.1zM441.7 120.1c1.9 2.5 5.6 3.7 8.4 5.4 1.6-3 3.2-6.1 5.5-10.3-3.6-6.5-6.8-12.9-10.6-19-1.3-2.1-4.1-3.4-6.2-5-1.7 2.5-4 4.7-4.8 7.4-2.6 8.8 2.9 15.3 7.7 21.5zM343.1 485.2c2.8-1.9 6.7-3.2 8.3-5.8 5.1-8.5 4.9-17.3-1.4-25.2-1.8-2.3-4.7-3.8-7.1-5.6-1.4 2.8-3.7 5.6-3.8 8.5-.2 6.4.7 12.9 1.2 19.4-.7.3-1.4.6-2.2.8 1.6 2.6 3.3 5.2 5 7.9zM3.3 313.8c11.4-11.5 15.7-25.5 18.6-42.3-19.2 10.8-26.6 28.1-18.6 42.3zM199.5 502.2c6.3-7 5.6-17.5-.9-22.9-4.8-4-8.9-2.9-10.3 2.8-2.4 9.5-4.5 19.3.4 29.9 3.8-3.5 7.6-6.3 10.8-9.8zM688.7 187.2c-1.6.9-4 1.3-4.6 2.6-2.8 6.1-5.2 12.4-7.3 18.8-.4 1.3.9 3.9 2.1 4.9.8.6 4.1-.1 4.4-.9 2.8-7.3 9.2-8.9 15.6-11.1 2.2-.7 4.2-3.1 5.4-5.2 1.1-2 2-5.2 1.1-6.8-.8-1.5-4.2-2-6.5-2-3.3 0-6.5.8-9.8 1.3 0-.5-.2-1-.4-1.6zM309.8 419.5c2 6.1 4.8 12 6.5 18.2 1.3 4.7 3.4 8.8 8.3 7.3 3.2-.9 5.4-5.1 8.1-7.8-1.3-7.2-10.9-22-16.3-23.8-1.9-.7-4.9-1.1-6.2 0-1.1.9-1 4.2-.4 6.1zM711.3 179.7c3.3.9 7 2.8 10.3 2.4 3-.4 7.7-3.1 7.9-5.3.5-4-1.4-8.5-3-12.5-.3-.6-6.2-.3-7.1 1.2-3.5 5.6-7.8 6.2-13.5 4.4-1.7-.5-4.5-.1-5.6 1-1.9 1.9-3 4.7-4.4 7.1 2.3 1.2 4.5 3.3 6.9 3.5 2.6.3 5.4-1.1 8.5-1.8zM693.1 63.2c3.7-.7 6.8-4.5 12.2-8.3-6.1-7.5-10.4-12.8-14.8-18.2-3.5 4.9-8.2 9.3-10.1 14.7-1.8 4.9 6.8 12.9 12.7 11.8zM609.2 46.2c-2.1 4.1-4.3 8.2-6.2 12.4-.7 1.5-.6 3.3-.8 4.4.1 7.5 7.8 14.3 12.7 11.4 5.3-3.2 8.2-8.7 5.4-14.4-2.6-5.2-7.3-9.3-11.1-13.8zM575.6 71.4c-2.8 5.1-4.4 10.9-6.9 17.2 1.7 2.8 2.8 6.7 5.2 7.9 2 1 7.7-.5 8.1-2 2.1-7.7 4.3-15.8 4-23.6-.1-4.4-7.6-4.5-10.4.5zM743 181.4c8.7 0 15-5.7 14.3-13.1-.8-8.8-8.7-5.4-13.4-6.3-6.6-1.2-11 2.5-10.9 9.6.1 6.9 3.7 10.6 10 9.8zM232.8 200.3c3.9-4.6 9.6-9.3 10.1-14.5.4-4.6-5.1-9.8-8.3-14.5-.2-.3-4.1.7-4.6 1.8-2.3 4.8-4 9.8-5.6 14.2 1.1 4 1.3 7.3 2.9 9.9 1 1.7 5.2 3.5 5.5 3.1zM141.7 463.6c2.2-4.3 4.5-8.6 6.7-12.9 3.4-6.5 7-13 10.2-19.6 1.3-2.7 2.1-5.8 3.1-8.6-.9-.5-1.9-1-2.8-1.5-6.3 5.6-14.8 10.1-18.2 17.1-3.4 6.9-1.6 16.4-2.2 24.7 1.2.3 2.2.5 3.2.8zM84.4 578.1c-6.8-.2-15.8 8.4-15.9 14.3-.2 8.3 6 6.4 10.7 6.8 7.9 1.2 12.3-1.5 11.2-10.1-.6-4.4 1.5-10.8-6-11zM568.3 331.1c4.7-2.8 10.1-4.9 13.8-8.7 3.7-3.8 4.9-11-.5-13-4.4-1.6-11.3.8-15.9 3.5-3.1 1.6 1.3 17.6 2.6 18.2zM620.3 47.4c2.2-3.1 4.3-6.2 6-8.7-1.6-5.9-2-10.3-4-13.9-1.3-2.5-6.2-5.8-7-5.2-2.8 2.1-5.8 5.4-6.4 8.6-.6 3.6.7 8.1 2.7 11.3 2.1 3.1 5.8 5.3 8.7 7.9zM720.7 54.8c-3.9-2.1-13.5 8.6-13.2 14.1.5 8.1 7.2 7.7 12.5 8.2 6.9.7 7.4-4.4 9.1-10.7-2.7-4.1-4.6-9.6-8.4-11.6zM637.3 165.8c-2.5-2.2-5.2-4.2-9.5-7.6-2.7 8.4-5.6 15.2-6.7 22.4-.4 2.4 3.1 6.8 5.9 8.1 2.9 1.3 14.3-16.3 12.9-19.5-.6-1.4-1.6-2.5-2.6-3.4zM738.8 566.6c-1.2-.7-5 .8-5.7 2.3-2.9 6 3.1 24.8 10.5 30.5 1.1-7.5 1.7-13.6 3-19.5 1.7-7.2-2.7-10.6-7.8-13.3zM614.5 169.8c9.8-13 6.4-26.8-7.2-31.5-5.9 7.1-2.7 17.2 7.2 31.5zM220.7 126c2.3 6.5 5.2 17 9.4 17.7 6.8 1.3 6.8-8.4 7.6-14.1.9-6.2-2.8-9.3-11.9-9.3-.9 1-5.6 4.3-5.1 5.7zM591.5 582.9c-1.4-1.4-6.9-.8-9.1.8-4.3 3.3-7.6 7.9-11.4 12 .7 1.1 1.5 2.2 2.2 3.3 6.1 0 12.2.4 18.3-.2 1.7-.2 4.7-3.4 4.5-4.7-.6-4-1.9-8.5-4.5-11.2zM1 45.7v35.4c10-1.9 13.8-4.4 12.4-9.8-2.5-9-6.7-17.6-10.2-26.4-.8.3-1.5.6-2.2.8zM23.3 580.9c-5.9.9-9 6.2-7.4 12.8 1.4 5.8 7.4 7.1 20.2 4.1C34 585 30 579.9 23.3 580.9zM5.6 558.6c-.4-10.7-.1-21.5-.1-32.2H1.7v59.3c6.4-2.1 7.6-5.8 6.2-11.4-1.2-5.1-2.2-10.5-2.3-15.7zM384.4 112.7c5.1 2.4 8.1.4 8-7.5-1.4-3-3.1-8.2-6.1-12.4-3.3-4.6-8.3-3.3-10.3 2-3.4 8.5-1 13.4 8.4 17.9zM195 343.5c6.9-.4 9.2-6.3 9.2-13 0-6-2.8-11.2-8.5-9.9-3.6.8-5.9 7.1-9.8 12.4 3.8 4.7 6.7 10.7 9.1 10.5zM606.7 560.5c-1.3-.4-3.6.9-4.9 2.1-6.8 6.4-6.6 18.8 3.4 27.3 1.5-8.3 3.3-16.6 4.5-24.9.1-1.4-1.6-4-3-4.5zM185.3 590c-1 2.4-.9 7.8.2 8.3 4.2 1.7 9.7 1.9 11.1-3.8 1.6-6.7 1.8-13.8 2.6-20.7-1.6-.4-3.1-.8-4.7-1.2-3.1 5.8-6.6 11.4-9.2 17.4zM117 585.4c.4 4.6 4.8 9 7.5 13.4 2.7-3.5 5.5-7 9.2-11.7-3.7-5-6.4-8.7-9-12.3-2.9 3.5-8 7.3-7.7 10.6zM368.3 309.8c-1-4.3-3-8.5-5.4-12.1-1.3-1.9-4.4-2.6-6.7-3.9-1 2.2-1.9 4.4-3 6.9 1.5 4.7 2.2 9.6 4.6 13.5 1.4 2.2 5.6 2.6 8.5 3.9.7-2.8 2.5-5.8 2-8.3zM6.1 499.2c3.9 5 6.6 8.4 9.2 11.9 2.3-4.3 6.1-8.5 6.5-13.1.3-3.2-3.8-6.9-5.9-10.3-2.9 3.5-5.9 6.9-9.8 11.5zM279.6 143.4c-1.4.2-3 2.3-3.7 3.9-3.5 9.3-1.1 14.3 9.6 19.6 3.5-6.4 3-16.6-1-21-1.3-1.3-3.4-2.7-4.9-2.5zM599.9 105.1c5.4-4.7 8.2-16.4 5.2-21.9-2.6-4.7-6.7-5.4-9.1-1.4-3.1 5.1-.9 18.3 3.9 23.3zM492.3 245.2c1.2-4.5-8.5-16.7-13.9-16.8-.6.4-2.5 1.3-2.5 2 .4 3.9.1 8.8 2.4 11.4 2.7 3.2 7.7 4.6 11.8 6.5.2 0 1.9-1.9 2.2-3.1zM207.5 80.3c-.8 1.9-2.5 4.2-2.1 5.8 2.2 8 4.9 15.9 7.5 23.8 1.6-.2 3.1-.4 4.7-.6-1.2-8.8-2.1-17.6-3.8-26.3-.3-1.2-4.1-1.8-6.3-2.7zM734 516.3v-28.1c-10.7 10.9-10.5 24.4 0 28.1zM275.6 419.5c8.4-7 11.1-21 5.8-29.8-7 5.8-9.6 19.3-5.8 29.8zM742.6 37.5c1.6-1.7 4.3-3.2 4.5-5.1 1.1-7.9-2.6-14.4-8-22.2-5.4 9.1-2.1 16.1-.8 23 .4 1.6 2.8 2.9 4.3 4.3zM640 32.2c2.9-.1 8.4-5.5 7.9-7.2-1.2-3.9-5.2-6.9-8.1-10.3-2.5 2.4-5.1 4.7-9.1 8.5 4 4.2 6.7 9 9.3 9zM221.8 320.7c-2.2 3.2-6.2 6.4-6 9.5.2 3.7 4 7.2 6.3 10.7 2.5-2.8 5-5.5 8.8-9.6-3.9-4.5-6.5-7.6-9.1-10.6zM375.7 442c.4-.7-1.6-3.9-2.1-3.8-4.3.8-9.1 1.2-12.6 3.4-2.8 1.7-4.2 5.9-7.1 10.2 7.3-1.4 12.1-1.6 16.4-3.3 2.3-.9 4-4 5.4-6.5zM99.8 592.5c-.6 1.3 2.3 6 4 6.2 8.2 1.2 6.3-5.6 7.5-12.6-.5-.8-2.1-3-3.6-5.2-2.7 3.8-6 7.4-7.9 11.6zM712.6 593.3c3.1 2.5 5.4 5.6 7.3 5.4 2.5-.2 6.9-3.8 6.6-4.7-1.3-4.5-4-8.5-6.1-12.7-2.2 3.4-4.5 6.9-7.8 12zM602.8 20.5c1.7-2.1 3.5-4.2 5.8-7-2.5-3.8-4.3-6.6-6.1-9.4-1.9 2.4-5.4 5.1-5.2 7.3.4 3.2 3.5 6.1 5.5 9.1zM731.2 354.7c2.4-2.6 4.9-5.1 8.4-8.8-2.9-3-4.8-4.9-6.6-6.8-2.1 2.9-5.1 5.6-6 8.8-.5 1.8 2.7 4.6 4.2 6.8zM399.3 45.2c-.2 1.9 3.6 4.9 6.3 6 1.1.5 3.8-2.7 6.7-4.9-3-3.7-5.2-6.4-7.3-9-2.1 2.6-5.4 5.1-5.7 7.9zM44.1 576.1c-6 4.8-5.7 10-2.2 15.2.6.9 4.8.9 5.5 0 3.8-5.6 2.4-10.5-3.3-15.2zM130 49.5c.4-7.3.8-13.3 1.3-21.3-10.6 7-10.9 13.9-1.3 21.3zM67.2 354.6c.1 3.4 1.4 6.9 2.5 10.2.1.4 3.4.2 3.5-.1.7-3.2 1.5-6.4 1.4-9.7-.1-2.2-1.6-4.4-3.5-8.8-2.1 4.2-4 6.3-3.9 8.4zM404.1 144.7c1.5 4.2 2.8 8.5 4.8 12.5.6 1.3 3.1 1.7 4.8 2.5.7-1.9 2.6-4.6 1.9-5.6-2.7-4-6.1-7.5-9.3-11.2-.8.6-1.5 1.2-2.2 1.8zM25.8 164.1c1.5.6 2.9 1.3 4.4 1.9 1.5-3 3.1-6 4.6-8.9-1.9-.7-5.3-2.2-5.4-2-1.4 2.9-2.4 6-3.6 9zM99.2 393.6c2.5-3.2 4.6-5.1 5.4-7.4.3-1-2.2-2.9-3.4-4.4-1.7 1.9-3.8 3.7-4.9 5.9-.5.9 1.4 2.9 2.9 5.9zM347.1 596c.4 1.3.8 2.5 1.2 3.8 3.7-1 7.4-2 11.1-3.1-.6-1.6-1.2-3.3-1.8-4.9-3.4 1.5-7 2.8-10.5 4.2zM493.1 187c-2.7 5.2-.3 8.5 5 10.7l3-1.5c-1.6-3.5-3.3-7-4.9-10.5-1 .4-2.1.8-3.1 1.3zM.5 268.3c5.6-2.4 9-3.8 12.4-5.3l-.6-3.6c-3.2.4-6.6.2-9.6 1.4-1.2.4-1.2 3.7-2.2 7.5zM757.8 30c.3 1.7-3 3.9-4.3 6.1-1.4 2.3-4.7 6.1-3.1 7.3 3.3 2.7 5.1 4.8 6.9 8.2 1.8 3.3 5.8 5 9.4 3.7.9-.3 1.8-.8 2.8-1.9 3.3-3.5 7.2-6.3 10.8-9.4 1.5 3.3 1.7 5.5.9 7-4.4 7.5-9.3 14.7-13.7 22.2-1.8 3-4.5 7.2-3.5 9.5s5.9 3.7 9.2 4.1c5.7.7 10.2 2 13.1 7.7 1.2 2.2 4.7 4.4 7.2 4.4 1.8 0 4-3.3 5.5-5.5 5.4-8 3.4-19.7 13.1-25.6.6-.4.8-2.2.5-3.2-2.7-11 5.4-15.5 12.8-17.9 8.5-2.8 12.1-8.5 15.2-15.7 1.3-3 3.2-5.7 4.9-8.6 1.2.4 2.5.8 3.7 1.2-.8 5.8-1.4 11.7-2.6 17.5-2 9.3 1.3 17.3 10.7 20.4-.5-6.4.2-12.5-1.5-17.7-2.8-8.1.2-13.8 5.3-19.1 11.2-11.5 11.1-11.2 2.6-24.6-10.7.7-13 .9-23.7 1.6-4.1 8.9-8.2 17.6-11 23.7-6.5.5-12.7-.7-14.1 1.4-4.8 7.1-8.3 15.2-11.7 23.2-2.4 5.7-3.2 12.2-6.1 17.6-1.2 2.3-6.2 2.4-9.5 3.6 0-3.2-.1-6.3.2-9.5.1-.9 1.9-1.6 2.1-2.5 1.2-5.1 1.5-10.5 3.3-15.4 1.8-4.8 4.9-9.1 7.1-13.1-5.9 0-11 .6-15.8-.3-2.2-.4-4.7-3.6-5.6-6.1-1.7-4.4-1.9-9.3-3.8-13.6-.5-1.2-6.1-1.9-7.1-.8-5.1 5.5-12.2 10.4-10.2 20.1zM872.8 74.2c.9 3 2.2 5.9 2.5 9 .2 1.6-1.2 3.4-1.9 5.1-1.9-.8-4.5-1.1-5.4-2.6-1.7-2.5-2-5.9-3.5-8.6-1-1.7-3.2-2.6-4.9-3.9-1.2 2-2.8 3.8-3.5 6-.5 1.4.1 3.4.7 4.9 3.4 7.8 6.8 15.6 10.6 23.2 1 2.1 3.3 3.5 5 5.2 1.5-1.8 3.7-3.4 4.4-5.5 5.9-17.4 11.6-34.8 17.1-52.3.8-2.6-.1-5.7.3-8.4 1.1-6.5 2.3-13.1 4.2-19.4.6-1.9 3.5-3.6 5.7-4.1.9-.2 3.1 2.9 3.8 4.8 2.8 7.7 4.8 15.7 8 23.2 1.1 2.5 4.6 5.2 7.3 5.5 1.9.2 4.3-3.4 6.1-5.6 1.7-2 2.9-4.4 4.8-7.3 2 8.8 2 17 5.8 22.8 4.1 6.4 12.2 8.3 21.1 4.1-.5 10.7-1.4 20.3-1.2 29.8.1 2.9 3.1 5.8 4.8 8.6 1.9-2.5 5.6-5.1 5.5-7.6-.4-10.9-1.8-21.8-3.2-32.6-.2-1.2-2.6-3.3-3.5-3.1-6.1 1.5-5.9-3.6-7.7-6.7-1.9-3.3-4.1-6.4-6.3-9.8-2.6 2-4.3 3.3-7.1 5.4-1.3-6.5-2-12-3.4-17.4-3.5-13.3-9.5-16.8-22.7-13.6-.4.1-1-.4-2.9-1.1 1.7-7 3.4-14.2 5.2-21.4h-10.2c-3.7 6.6-6.4 14.3-15.5 15.3-9 1-12.1 6.8-13.3 15-.9 6.1-1.7 12.7-4.7 17.8-4.8 8.5-4.7 16.6-2 25.3zM1398.3 33.1c-6.4 2-2.7 8.5-2.9 13.3-.2 5.5-2.9 5.6-7.3 2.8-7.3-4.6-11.2-2.6-13.3 5.8-3.4 13.9-.9 27.6 1.8 41.2 1.1 5.7 16 8.7 19.1 3.5 2.9-4.8 4.4-10.9 4.8-16.5.3-4.8-2.9-6.4-7.3-2.7-2 1.7-4.4 3-7.3 4.8-3.2-6-5.9-11-8.9-16.4 9.3-2.8 17.2-6.2 22.5 6 4.3-6.1 10.5-10.9 10.4-15.5-.1-7.6 1.3-11.9 6.2-18.3 8.3-11.1 15.1-24.7 12-40.2h-11.9c4.4 5.2 5.5 9.7-.3 15.3-2.8 2.7-3.7 8-4.6 12.3-.7 3.4-.1 7-.1 10.4-4.9-2.5-9.7-6.8-12.9-5.8zM1306.1 40.8c5.2 6.5 10.9 12.8 17.1 18.3 1.4 1.2 8.2-.6 8.7-2.1 2-7.3 3.8-15 3.4-22.4-.2-4.4-4.6-8.7-7.1-13-1 .3-2 .5-3 .8-1.8 6.2-3.6 12.4-5.4 18.5-1.4-.1-2.8-.3-4.2-.4-.9-7.2-2.1-14.4-2.7-21.7-.5-6-.3-12.1-.4-18.1h-17c-.3 6.1-.6 12.1-.7 18.2 0 2.1.3 4.4 1.3 6.2 3.2 5.4 6.2 10.9 10 15.7zM1065 79.6c9.3-2.5 10.8-6.7 8.7-24.8 5 3.9 7.3 1.4 7.5-3.5.4-7.1 0-14.2.4-21.2.2-3.2.6-7.4 2.6-9.3 5.8-5.6 7.8-12.2 7.6-19.9h-15.3c-1.6 7.3-2.7 14.7-4.9 21.8-2.9 9.2-8.5 18-9.5 27.3-1.1 9.5 1.8 19.6 2.9 29.6zM968.3 13.9c1.9.2 3.9 2.1 5.2 3.7 2.2 2.9 3.9 6.2 5.7 9.4 4.3 7.3 11.3 9.8 19.4 11.3-2.9-8.9-6.5-17-10.4-25.1-.5-1-2.4-1.9-3.6-1.8-7.8.3-8.6-4.6-8.3-10.6h-20.4c.5 11.9.5 11.8 12.4 13.1zM1053 36.4c-.1-4.6.1-9.3-.4-13.8-.2-2.1-2.4-4-2.8-6.1-.5-2.8-.1-5.8-.1-11.2 3.2 3.6 4.4 5.2 5.8 6.4 1.7 1.6 3.6 2.9 5.4 4.3 1.2-2.3 2.7-4.5 3.5-7 .9-2.6 1.2-5.5 1.8-8.3h-23.8c-2 7.1-4.8 14-5.6 21.2-.4 4 1.6 9.4 4.5 12.1 2.6 2.4 7.8 1.8 11.7 2.4zM1127.2 27.9c1.5 6.5 9.8 7 11.9 1.1 3.2-9.1 4.8-18.8 7.1-28.3h-20.4c.3 9.2-.6 18.5 1.4 27.2zM1269.1 32.1c5.7 1.2 8.7-4 9.4-9.5.8-7.2 1.3-14.5 1.9-21.8h-18.7c-.5 7.3-2 14.7-1 21.7.5 3.7 4.9 8.8 8.4 9.6zM1171.7 17.8c3-3.6 1.3-11.2 1.6-17.1H1158c-4 6.9-6.3 14-3.9 21.8 6.8-1.5 14.6-1.1 17.6-4.7z"/><path class="st1" d="M800.9 18.7c9.2.2 8.4-7.2 9.5-13 .3-1.6.8-3.3 1.2-4.9h-27.2c0 .8 0 1.7.1 2.5 1 10 6.3 15.2 16.4 15.4zM1199.7 13.6c2.6 2.4 6.2 3.8 9.3 5.6 1.7-3.7 3.9-7.2 4.8-11 .6-2.2-.9-4.9-1.4-7.4h-23.8c3.7 4.3 7.1 8.9 11.1 12.8zM946.1 19.6c.2-3.6.9-7.4.3-10.9-.5-2.8-2.6-5.3-4.1-8h-18.7c4 5.3 7.5 11 12.1 15.6 2.4 2.3 6.9 2.3 10.4 3.3zM1386.9 6.7c4.7 3.6 10.2 10 14.4 9.3 7.2-1.2 4.1-9.7 4.7-15.2h-23.8c1.6 2 2.8 4.4 4.7 5.9zM1469.3 18.6c6.2-5.5 4.8-11.6 2.9-17.8h-13.6c-.7 8.4 4.6 13 10.7 17.8zM1364.7 10.8c3.2-1.1 4.9-6.6 7.4-10.1H1350c4.2 4.6 6.6 12.9 14.7 10.1zM891.2 7.1c2.7-2.3 5.8-4.3 8.7-6.4h-22.1c.4 1 .8 2.1 1.2 3.1 3.2 9.4 4.6 9.7 12.2 3.3zM1028.3 13.6c1.9-4.3 3.8-8.6 5.8-12.9h-15.3c.2.5.4 1.1.7 1.5 2.9 3.9 5.9 7.7 8.8 11.4zM1499.5.8h-11.9c3.2 4 6.5 8 11 13.5.3-5.9.6-9.7.9-13.5zM824.9 11c1.2-3.4 2.4-6.8 3.7-10.2h-8.5c.7 3.3 1.4 6.6 2.1 10 .9 0 1.8.1 2.7.2zM1146.4 533.4c8.1-3 10.1-10.9 12.7-17.1 2.6-6.4 2.2-14.2 2.5-21.4.3-7.4-.5-14.8-.3-22.2.1-3.6 1.1-7.2 1.9-10.8 1.6-7.9 3.4-15.7 4.8-23.6.7-3.8 1.6-7.9.9-11.6-1.8-9.4.9-17.3 6.1-24.8 2.6-3.7 5.2-7.5 7-11.6 1-2.2.2-5.1.2-7.8-.7 0-1.5-.1-2.2-.1-1.2 2.7-2.3 5.3-3.7 8.4-1.1-1-1.9-1.5-2.2-2.1-4.2-10.7-8.4-11.7-16.7-4-5.2 4.8-4.7 10.4-3.1 16.5 1.3 5.2 2.5 10.4 2.8 15.7.1 2.2-1.8 5.7-3.8 6.6-9.6 4.7-19.4 8.7-29.2 13 4 14.3 1.9 18.7-13.6 29.5-3.7 2.6-6.9 7.6-7.7 12-1.1 5.9.6 12.3.7 18.5.2 5 .6 10.2-.3 15-1.5 7.5-3.9 14.8-6.5 22-.8 2.3-3.3 5.2-5.4 5.5-7.4 1.1-10.3 6.3-12.9 12.1-6 13.2-12 26.3-17.7 39.5-.9 2.1-.2 5-.2 7.5 2.9-.5 6.2-.2 8.5-1.6 3.5-2.1 6.6-5.2 9.5-8.2 7.5-7.7 15.7-15.1 15.2-27.3-.2-5.8-.8-11.8 8.1-11.4 1.3.1 3.3-2.3 4-3.9 5.5-12.4 11.1-24.8 16-37.5 1.2-3.1-.5-7.3-.8-10 2.6-4.6 5.4-9.1 7.9-13.8 3.5-6.8 6.5-13.8 10.4-20.4 2.8-4.7 7.5-8.2 12.6-4.1 4.8 3.8 3.2 8.8-.2 13.6-3.1 4.3-5.9 8.9-7.7 13.8-7 19.8-8.1 42.2-25.4 57.4-.6.5-.7 1.5-1.1 2.3-3.1 5.3-7.1 10.3-9 16.1-1.5 4.5-2.5 11.5-.2 14.6 7.2 9.7 26.8 8.3 32.6-2.4 5.4-10 10.6-20.9 4.7-33.2-1.6-2.3-.6-8.2.8-8.7zM1468.2 330.4c0-9.3 1.1-18.1-.2-26.4-3.1-19.1-7.4-38-11.6-56.9-.4-1.7-4.5-4.4-5.4-3.9-5.4 3.2-12.3 6-15.2 11-5.8 10-16.4 12.6-24.9 17.8-7.9 4.9-10.5 9.9-9.7 18.4.8 8.7 1.2 17.5 1.6 26.3.2 5.5 0 11.1 0 16.6 1.5.1 2.9.3 4.4.4 1.9-9.5 3.5-19 5.8-28.4 1.3-5.5 2.9-11 5.6-15.9 1.3-2.3 5.5-2.9 8.3-4.3.8 3 3 6.6 2.1 9-3.3 8.6-7.7 16.8-11.7 25.3-.9 2-1.9 4.1-2.3 6.2-1.1 7.3-1.8 14.6-2.8 21.8-2.1 15.3.1 29.3 14.7 37.5 6.2 3.5 14.5 9.7 20.9 2.9 5.9-6.4 11.2-15.3 12.3-23.8 1.2-9-2.2-18.9-4.6-28.1-1.6-6-6.5-6.6-10.1-1.8-2 2.7-2.3 7.1-2 10.7.8 11.3 2.3 22.5 3.2 33.7.1 1.3-1.3 2.7-2 3.9-1.1-.3-2-.3-2.2-.7-6.2-14.4-12.4-28.9-18.4-43.3-.4-.9.1-2.3.6-3.3 4.4-8.8 9.5-17.4 13.2-26.5 2-4.8 2.9-10.7 2.1-15.8-.7-4.3-4.4-8.3-7.1-12.2-4-5.6-2.7-10.8 3.8-10.9 6.1-.1 7.5-3.3 9.1-8 .6-1.8 3.8-2.6 5.8-3.9.7 2.4 2.2 4.9 1.8 7.2-.4 2.7-3.1 5.1-3.3 7.7-.4 5-1.6 12.2 1.1 14.7 5.2 4.9 5 9.3 3.8 15.1-2.5 12.2 1.6 21 13.3 27.9zM828.4 394.4c1.9-6.5 4.2-12.9 6.4-19.3 1.2-3.5 3.5-6.9 3.5-10.3 0-10.6-.8-21.3-1.5-31.9-.4-5.9-3.7-7.1-8.8-4.7-8 3.7-9.8 10.1-8.8 18.3 1.5 12.5 2.4 25.1 3.7 39.8-7.7-5-11.9-3-15.5 2.3-4.8 6.9-9.9 13.5-15.1 20.1-1.2 1.6-4.2 3.7-5.1 3.2-1.9-1.1-4-3.6-4-5.6-.1-6.3 3.6-10.1 9.3-12.7 10.6-4.9 13.5-17.6 6.3-29.1-2.7 3.2-5.8 5.7-7.3 9-7.9 17.2-25.5 28-30 48.1-.9 3.8-3 7.3-5.5 10.8-.2-3.3.2-6.6 1.8-10 .9-1.9-.3-4.7-.7-8.6-13.7 13-17.3 21.3-13.1 33.8-2.4 3.8-3.5 7.6-3.9 11.5 0-.2-.1-.4-.1-.6-2.4-7.2-5.3-14.3-9-20.8-1.2-2-6.6-3.8-8.4-2.8-3.8 2.1-6.7 6-9.2 9.7-.3.5 3.7 4.5 6.2 6.2 2.2 1.6 1.2 3.5.8 6.1-.7 7-7.7 8.1-11.6 3.3-2.3-2.9-2.6-8.9-4.9-9.5-3.8-.9-9.6 0-12.4 2.6-7.1 6.6-13.5 14-19 22-3.6 5.2-5.6 7.8-12.4 4.6-2.6-1.3-8.5 2.6-11.9 5.4-1.4 1.2-1.4 7 0 8.1 2.4 1.8 7.2 3.1 9.5 1.9 9.2-5 22.5-1 28.5-13.1.4-.8 2.6-6.8 4-7.1 10.6-2.3 32-7.1 33.6-9.3.3-.4.5-.8.9-1 1.8-1.3 3.7-2.7 5.7-4.2 2.2 2.9 4 5.3 5.8 7.7l3.1-.1c.1-1.3.4-2.7.6-4 .1 3.2.5 6.4.9 9.7-.3 0-.6-.1-.8-.1-1.4-.2-4.9 2.9-4.7 3.5 1.2 3.2 2.6 7 5.2 9 4.6 3.6 6.2 7.7 6.2 12.5-.2.3-.5.5-.7.8.2.3.4.6.6.8-.2 1.9-.5 3.9-1 6-1.2 4.7-2.2 9.4-2.7 14.1-.7 6.1-1.4 9-7.5 7-6.8-2.2-10.8 1.1-9.4 8.2 1.3 6.1 4.6 12 7.8 17.5 1.3 2.2 4.9 3 7.5 4.4 1.5-2.8 3.5-5.4 4.5-8.4 2.2-6.6 3.6-13.4 5.7-20 .7 5.3 2 10.9 4.6 15.4 4 7 5.5 13.6 3.6 21.6-1 4.1-.9 10.7 5.3 10.1 3.7-.4 6.8-5.6 10.2-8.7-.9-.5-1.7-1.1-2.6-1.6l-6.3-32.1c-.9-4.7-1.6-9.5-2.9-14.1-1.4-5.3-4.6-6.5-7.8-3.1 1.4-4.3 2.9-8.6 4.5-13.2.9-1.7 1.5-3.4 1.7-5.1.3-3.2-3.8-6.9-5.9-10.3-.1.1-.2.3-.4.4-1.3-3.8-2.7-7.5-4.5-10.9-.5-1.1-1.9-1.8-3.5-2.3 1-2.6 1.8-5.3 2.5-8 .6-2.2 2.9.5 2.1 4.2 3.4-.4 5-.2 5.4-.8 5.1-7.6 10-15.4 15-23.1 2.8-4.3 5.1-9.1 8.7-12.6 9.6-9.4 19.8-18.3 29.9-27.3 1.9-1.7 4.6-3.7 7-3.7 6.4-.5 8.7-4.2 10.3-9.6z"/><path class="st1" d="M820.7 260.4c1.5.5 5.8-2.3 6.2-4.2.6-2.8-1-6.1-1.9-9.1-1.6-5.3-3.6-10.4-5-15.7-1.2-4.6-1.4-9.5-2.9-14-.6-1.9-3.5-4.1-5.4-4.3-7.5-.5-17.7 9.4-16.7 17 1.1 8-1.3 13.7-6.9 18.9-1.8 1.7-3.3 4-4.2 6.3-9.5 25.7-19.1 51.5-28.3 77.4-1 2.9-5.3 12-6.4 13.4-1.3.7-13.2 25.5-15.5 29.7l-1.2-.6c-12.4 9.6-10.5 34-32.1 31.6-.5 7.2-1.3 14.2-1.2 21.3 0 1.9 2.7 4.9 4.6 5.3 6.1 1.4 11-3.3 12.9-11.7.8-3.6 1.8-7.1 2.6-10.7 1.3-.2 1.4-.2 2.7-.3 2.8 5.4 5.3 10 8.1 12.5 1.5 1.4 3.6 3.7 5.1 3.5 1.6-.2 3.1-2.9 4-4.8 2.4-5.1-.2-7.7-4.8-9.8-4-1.8-7.7-4.5-11.5-6.8.2-1.1.4-2.1.6-3.2 1.3-.2 2.6-.6 3.8-.9 0 .2.1.4.1.5.9-.4 1.8-.8 2.8-1.1 1.1-.2 2.2-.3 3.2-.3 4.8 0 9.6 1.6 14.3 1.2 2.6-.2 6.7-2.7 7.2-4.8 1.8-7.8 11.1-19.5 12.2-27.5-1-.3-.8-.3-1.7-.6-4.6 7.9-17 14.9-22.2 23.9-.4-.4-.8-.9-1.1-1.4.3-.3.5-.5.7-.8 2.9-4 3.3-4.2 4.4-8.9 17.7-26.8 26.2-37.6 25.3-56.1-.5-9.2 3.5-17.9 13.5-21.9 1.6-.7 2.5-3 3.9-4.3 2.9-2.7 6-5.2 9.1-7.8 3-2.6 6-5.1 8.7-7.5 3.1-2.7 3.2-7.5.3-10.3-3.2-3-5.8-5.6-5.7-8 .1-5.2 5-10.3 8.8-17.4 2.5 4 3 4.9 3.7 5.8 2 2.4 3.5 5.7 5.9 6.5zM1363 531.5c2.5-.5 5.2-1.2 8-1.7 10.5-2 17.5-12.9 13.8-23-1.2-3.2-6-7.6-8.8-7.3-13.2 1.2-25.5 6.3-34.4 16.3-3.8 4.3-6.1 6.9-12.3 5.7-3.1-.6-10 2.7-9.9 3.6 1.4 12.4-7.6 17.1-15.5 22.9-1.3.9-1.9 2.8-2.7 4.3-2.3 4.1-5 6.4-10.4 4.7-1.8-.6-5.6 1.1-6.8 2.9-8.1 12.5-16.3 24.5-31.4 29.7-1.7.6-2.6 4-3.8 6 2 1.1 4 3.1 6 3.3 7.1.4 14.2.8 21.2 0 5-.6 10.7-2.1 14.3-5.2 8.1-6.8 14.8-15.3 22.6-22.4 6.5-6 13.1-12.8 21-16.2 11.8-5.1 18-11.7 17.6-24.7-.1-3.8-.5-7.6-.7-11.5.8-.4 1.6-.8 2.5-1.2 3.2 4.5 6.3 9 9.7 13.8zM1078.8 98.8c-1.6-1-5.1-1.2-6.5-.2-5.4 3.9-6 19.5-.5 23 8 5.1 13.2 12 16.9 20.6 2.3 5.3 6.1 7.6 12.2 3.8 7.1-4.5 13.2-2.1 15.2 6.5 1.9 8.2 6.5 12.6 13.7 15.8 6.5 2.9 12.1 7.1 14.1 17.2-5.9-1.1-11.2-.9-15-3.2-5.9-3.5-10.6-9-16.1-13.3-4.1-3.2-8.3-7-13.1-8.3-2.4-.6-8.4 3.3-8.9 5.9-2.7 14.5-.3 28.7 4.9 42.4.6 1.5 2.7 3.4 4.1 3.5 1.4 0 3.4-1.8 4.3-3.3 4.5-7.4 3.6-17-1.1-24.1-2-3.1-4.3-9.8-3.5-10.4 6.1-4 7.7 2.7 10.8 5.8.2.2.4.4.5.7 7.6 15.6 22.9 21.9 36.5 30 6.2 3.7 9.8 1.5 8.6-5.5-1.5-9.4-4.8-18.4-7.6-27.6-3.5-11.6-13.4-21.7-8.6-35.4.3-.9-.8-2.7-1.8-3.6-7.7-7.3-15.5-14.4-23.2-21.6-.8.5-1.5.9-2.3 1.4.7 6 1.4 12 2.2 18l-2.1.9c-4.4-4.7-8.8-9.5-14.1-15.3-.7 6-6.6-15.4-19.6-23.7z"/><path class="st1" d="M1051.3 198.3c-4.3 9.4-3.4 13.7 5.4 20.4 2.2-1.9 4.4-3.8 7.6-6.6.5 3.2 1.3 5.1 1 6.8-2.4 11 2.8 16.9 11.9 22.6 5.2 3.2 8 10.8 11 16.9 2.5 5.3 2.6 11.8 5.6 16.7 6.7 10.9 14.5 21.3 22.1 31.7 4.4 6.1 12.1 7.5 16.1 2.6 4.4-5.4 2.2-11.2-2.3-15.1-5.1-4.4-11.3-7.5-17-11.1-3.3-2.1-7.2-3.6-9.9-6.2-1.9-1.9-2.2-5.3-3.2-8.1 2.7.1 5.7-.5 8.1.5 7.8 3.1 15.3 6.7 23 10.1 2.7-10.1-3-21.2-10.8-22.3-5.2-.8-10.5-1.1-15.8-1.9-8.9-1.3-13.6-10.1-9.3-18.1 3.3-6.2.9-10.3-3.5-14.1-5.6-4.7-11.3-9.4-17.1-13.9-2-1.5-4.5-2.2-6.7-3.4-2.4-1.3-5.9-2.3-6.6-4.2-.7-2 .9-7 2.2-7.3 2.7-.6 6.2.5 8.9 1.8 4.7 2.2 9.1 5 13.6 7.6.7-3.7-.3-5.2-.4-6.8-.8-13.8-15.3-26.8-2.5-41.5.6-.7.5-2.3.2-3.3-2.7-10.4-10.1-17.3-18.1-24.4-1.6 18.1-5.2 36 5.7 54.8-5-2.8-7.3-4.1-11-6.1-2.8 7.9-5.1 15.1-8.2 21.9zM1068.1 530.6c-1-6.1-2.7-12.1-3.5-18.2-.8-6.2-4.5-7.8-9.5-6.2-6.3 2-10.1 6.6-8.2 13.7 1.1 4.3 3 8.6 5.1 12.6 4 7.5 1.1 12.7-6.4 18.9-1.4-9.8-2.2-17.9-3.8-25.8-.5-2.7-3.1-4.9-4.7-7.4-2.4 1.7-5.1 3.1-7.3 5.1-3 2.8-5.4 6.2-8.3 9.2-4 4.1-10.1 7.3-12 12.2-6.9 17.6-12.4 35.8-18.4 53.7 14.2 2.4 14.6 1.7 18.3-11.9 3.1-11.2 7.6-21.9 11.8-32.7 1.1-2.8 3.2-5.7 5.7-7.1 2.4-1.3 5.8-.8 8.7-1 0 2.6 1 5.7-.1 7.7-4 7.8-9.2 15-13 22.8-2.5 5.2-4 11-5 16.7-.3 1.6 2.7 5.1 4.7 5.6 16.1 4 22.3.9 29-13.7.7-1.5 1.9-2.8 2.5-4.4 5.1-12.9 10.3-25.7 14.9-38.7 1.1-3.4 0-7.5-.5-11.1zm-23.6 46.4c-2.6-4.2-4.9-6.3-4.6-8 .3-2.2 2.7-4.2 4.1-6.2 1.2 1.6 3.3 3.1 3.4 4.8.1 2.2-1.4 4.6-2.9 9.4zM1193.1 531.2c-1.9-7.7 1.7-12.8 5.6-18.6 6.3-9.2 12.6-19.1 6.1-30.7-5.9-10.6-7.4-21.8-8-33.5-.4-7.8-2.6-15.5-4-23.3-1.1-.1-2.3-.2-3.4-.3-3.1 5.8-8.2 11.4-9.1 17.5-3.1 21.7-4.8 43.6-6.8 65.5-.5 5.8 1.3 10.4 9.4 7.9.4.7.9 1.3 1.3 2-4.2 7.7-8.4 15.4-13.7 25.2-1.9-5.8-2.9-8.8-3.9-12-8.1 5.4-8.7 15.4-2.7 23.9 2.7 3.8 4.3 8.4 6.3 12.6 1.5 3.3 2.7 6.9 4.5 10.1.8 1.5 3 3.3 4.3 3.2 1.5-.2 3.2-2.2 4-3.8.9-2 .8-4.4 1.3-6.6 2.1-9.5 4.2-19 6.4-28.5.8-3.6 3.2-7.5 2.4-10.6zM1317.5 362.2c10.6 3.6 13.7 1.2 18.3-11.2.8-2.1 3.4-5.4 4.2-5.1 2.4.7 4.7 2.7 6.3 4.8 4.4 5.7 8 12.1 13 17.3 2 2.1 7 3 9.8 2.1 1.7-.6 2.7-5.8 2.6-8.9-.1-6.7 2.6-11 6.8-16.3 6.2-7.8 10.5-17.7 13.4-27.4 2.1-7.1.7-15.2.3-22.9-.1-2.8-2-5.4-3-8.2-3 1.8-6.3 3.1-8.8 5.4-2.2 2-3.4 5.1-5.8 9-5-10.3-10.7-9.9-17.9-5-8.2 5.6-10.5 9.7-6.6 19.1 4.2 10.2 9.7 19.8 14.1 29.9 1.6 3.7 1.9 8 2.7 12-.9.3-1.8.6-2.6.9-6.7-6.5-16.7-9.9-17.1-22.1-.1-4.4-2.2-8.8-4.1-12.9-1.4-2.9-3.9-5.3-6.9-9-6.6 12.4-4.5 26-13.9 35.9-2.7-3.9-4.8-7-8.1-11.8-1 3.7-1.5 5.3-1.8 6.9-1 6.8-3.7 14.5 5.1 17.5zM1380.9 458.4c2.8 0 6.7-.8 8.3-2.8 7-8.6 16.2-16.6 11.9-29.9-.7-2 0-4.5 0-6.8-.2-20.4-.2-40.7-.8-61.1-.1-4-2.3-8-3.6-12-1 .1-1.9.2-2.9.2-.9 2.8-2.3 5.5-2.7 8.4-.7 4.5-.3 9.1-1.2 13.5-.6 3.1-2.7 5.8-4.2 8.7-2.3-1.6-4.7-3.2-9.2-6.4 2 5.8 2.9 9.6 4.5 13 2.8 5.9 6.2 11.5 8.9 17.4 3.6 7.7 2.2 10-5.8 13-2.7 1-5.1 3.2-7 5.5-3 3.7-6 7.6-8.1 11.9-3.4 6.9-5.8 14.3-9 21.3-1.4 3.2-3 6.8-5.5 8.9-8.8 7.4-12.6 16.4-11.2 27.8.9 7.2 4.3 9.4 10 4.9 7.8-6.2 16.1-12.4 15.4-24.6-.4-8.5 3.3-10.9 12.2-10.9z"/><path class="st1" d="M1182.4 307.3c.9 2.1 6 4.3 7.9 3.4 2.7-1.1 6.3-5.6 5.8-7.7-2.3-10.1-4.1-20.9-9.3-29.5-7.9-13.2-17.6-25.5-28-36.8-5.6-6.1-13.9-11-21.9-13.3-5-1.5-8.6-2.5-11.2-7-1.6-2.7-3.6-5.1-5.6-7.5-4.2-5.1-9-3.6-10.5 1.3s0 10.7-.1 16.2c-.1 3.6-.8 7.1-.8 10.6 0 2.4-.2 6.1 1 6.8 2.9 1.7 6.6 2 10 2.8.5-3.5 2-7.1 1.3-10.4-1-5.3-3.1-10.2 3.4-15.9 1.7 4.9 3.2 8.6 4.4 12.4 2.4 7.5 3.4 15.8 7.2 22.5 4.7 8.3 8.1 15.6 4.4 25.4-2.7 7.3 6.8 16.7 13.6 15.1 5.2-1.3 10.5-2.2 17-3.4 2.1-5.7-1.1-10.9-5.7-16-4.8-5.5-9.4-11.2-13.5-17.2-1.1-1.7.2-5 .4-7.6 2.3.5 5.6.1 6.9 1.6 10.7 11.3 21.9 22.4 21.1 40.1-.1 4.8.5 9.9 2.2 14.1zM1343.8 443.3c6.1-2.7 6.2-8 8.2-12.9 2.9-7.1 7-13.8 10.9-20.5 2.1-3.6 5.5-6.7 6.9-10.5 3.2-8.3-.6-14.7-7.9-17.9-4.8-2.1-8.8-6.2-13.2-9.2-2.2-1.5-4.9-4-6.9-3.6-2 .4-4.8 3.9-4.8 6 .2 7.5.9 15.1 2.4 22.4.9 4.3 4.6 8.3 4.8 12.5.1 3.3-3.2 6.8-5 10.2-3.1-1.8-8-3-8.9-5.6-2.8-7.9-4.9-16.3-5.7-24.7-.9-8.7-5.1-14.2-12.4-17.9-1.7-.9-4.7-1.1-6.3-.2-7.8 4.3-8.4 24.2-1.3 29.8 17.1 13.6 28.5 30.2 28.7 53.3 0 3.9 3.2 7.8 4.9 11.7 1.6-.5 3.1-1 4.7-1.6-.5-4.2-1.3-8.5-1.3-12.7.1-3 .5-7.9 2.2-8.6zM1489.7 197.2c-2.9-2.1-5.9-6.1-8.5-5.8-7.8.9-16.2 2.1-22.9 5.8-7.2 4.1-12.3 11.6-18.9 16.8-4.9 3.9-10.8 6.8-16.5 9.6-13.7 6.6-28.1 11.9-41 19.7-6.8 4.1-11.9 11.8-16.4 18.7-4 6.3.4 12.7 11.3 13 4.7-3.5 11.8-8.8 18.8-14.1 2.8-2.1 5.4-4.6 8.5-6.1 5.2-2.6 11.4-3.7 16-7 11.9-8.7 25.9-14.9 35.1-27.3 1.3-1.7 3.3-3.1 5.3-4.1 7.5-3.8 15.3-7 22.5-11.2 2.9-1.6 4.5-5.2 6.7-8zM823.6 422.4c.2-2-.4-4.2-.6-6.3-2.6.5-6.3.1-7.6 1.7-2.2 2.7-4 6.6-4.2 10.2-.4 7 .3 14 .7 21.1.1 2.5-.1 5.7 1.3 7.4 6.5 7.8 2.6 15.4.6 24.7-18.7-11.6-9.1-31.2-14.7-48.5-4 5.9-7.1 9.5-9.2 13.6-2.4 4.5-3.9 8.9-7.7 13.1-4.1 4.7-6.5 10.4-13.1 12.6-1.2.4-2.3 2.8-2.3 4.3 0 13.1.3 26.1.5 39.2 1.5.1 3 .2 4.6.3.3-2.7.5-5.4.8-8.1.4-4.5-.4-9.7 1.6-13.5 3.3-6.5 8.1-12.3 12.8-17.9 1.5-1.8 4.7-2.1 7.1-3.2l1.8 2.4c-3.6 4.9-7.1 9.9-10.7 14.8-5.5 7.3-6.9 15.3-4.5 24.2 1.7 6.5 7.1 8.7 12.2 7.8 2.6-.5 5.7-5.7 6.3-9.2 1.1-6.1.3-12.4.5-18.7.1-2.8.8-5.5 1.3-8.3 1-.1 2-.1 3.1-.2 1.3 5.7 2.6 11.4 3.8 17.1.8.2 1.5.4 2.3.6 7.1-11.1 10.5-23.8 12.9-36.7.3-1.6-1.3-3.6-1.9-5.5-.6-1.8-1.8-3.7-1.6-5.4 1-11.2 2.6-22.4 3.9-33.6z"/><path class="st1" d="M1297.1 322.7c-.5-2.2-3-5.5-4.7-5.6-2-.1-4.9 2.3-6.2 4.4-2.1 3.3-2.9 7.4-4.7 10.9-2.8 5.3-3.3 9.5 1.8 14.3 2.1 2 2.5 10 1.3 10.6-10.1 5.2-12.3 13-10.4 23.4.4 2.3-.7 5.1-1.6 7.4-6.4 17.4 2.1 32.1 8.3 47.2.4 1 1.3 2.1 2.2 2.4 9.7 2.9 12.3 11.8 16.7 19.3 2.7 4.5 6.1 8.6 9.2 12.9.8-.4 1.7-.9 2.5-1.3.2-2.1.7-4.3.4-6.4-1.2-8.8-2-17.3 2.8-25.6 1.1-1.9-.1-6.2-1.6-8.5-7.2-10.9-17.5-17.9-30.3-22.5.4-12 1-23.5 8.3-34 10.3-14.9 9.8-31.9 6-48.9zM1307.9 216.5c-.8-2.9-5.2-4.8-8-7.1-1.9 2.8-4.5 5.5-5.4 8.6-.7 2.8.5 6.1 1.2 11.4-.8 1.1-2.7 3.5-4.5 5.9-1.9-2.4-4-4.7-5.7-7.3-.7-1.1.1-2.9-.4-4.2-1.2-2.9-2.7-7.6-4.4-7.8-3.5-.4-8.4.8-10.7 3.2-1.5 1.6-.3 6.8.9 9.9 1.1 2.7 4.2 4.5 6.1 6.9 5.2 6.6 10.6 13.1 15.3 20.1 1.3 1.9 1.3 6.1 0 7.8-1.1 1.5-4.9 1.2-7.5 1.2-3.3.1-6.6-.4-9.8-.4-2.9 0-5.7.3-8.6.5.7-2.8 1.4-5.6 2.2-8.4.3-1.1 1.4-2.3 1.2-3.1-1.2-3.9-2.8-7.8-4.3-11.6-3.4 1.9-8.2 3-9.8 5.8-4.1 7.3-3.5 15.1.5 22.7 4.9 9.1 9 18.7 13.9 27.8 1.3 2.3 5 5.7 6.3 5.2 7.8-3.1 16.3-6 22.6-11.4 6.7-5.7 5.3-14.6 3.7-23.1-2.6-13.7-6.4-27.6 3.4-40.7 2.3-2.8 2.8-8.3 1.8-11.9zM958.4 206c-2.6 8.9-3.6 18.1 3.1 25.9 6.7 7.8 13.9 15.3 20.9 23 2.8-1.1 5.8-3 9-3.4 7.1-.8 9.4-5.1 8.5-11.2-1.1-6.6-3.7-12.9-4.8-19.4-.6-3.4.7-7.2 1.1-10.8 2.8 1.3 6.5 1.8 8.2 4 2.7 3.4 3.7 8.1 5.9 11.9 1.8 3.2 4.4 6 6.6 8.9 2.7-2.2 6.5-3.9 7.9-6.8 4-8.4 7.5-17.2 10.2-26.1.9-3-.2-7.6-2.2-10.1-4.2-5.3-9.2-9.9-14.4-14.2-1.3-1-5.6-.6-6.6.7-3.3 4.2-1.5 21.9 1.6 26.4 2.6 3.8 4.8 8 7.1 12-.8.5-1.5.9-2.3 1.4-9.8-4.8-16.4-12.6-21.1-22.5-1.1-2.4-3.3-4.2-5-6.3-2 2.2-5.2 4.1-5.7 6.6-1.6 7.4-2.3 14.9-3.1 22.4-.6 5.9-.9 11.8-9.5 13.3-.3-3.3-.1-6.2-.9-8.7-2-6.1-3.8-12.4-6.8-18-2.1-3.5-6.3-3.8-7.7 1zM1236 91.9c-4.4 4.7-10.3 8.2-14.1 13.3-2.2 2.9-2.4 8.2-1.8 12 .3 1.7 5.5 2 7.8 3.9 2.1 1.8 3.7 4.5 4.7 7.2 1.8 4.7 2.3 9.9 4.5 14.4.9 2 4.6 4 6.7 3.7 2-.3 5.1-3.7 5.1-5.6-.1-5.5-1.6-10.9-2.4-16.4-.7-4.8-1.2-9.7-1.8-14.5 1.3-.2 2.6-.4 4-.6 1 2.2 2 4.4 3.2 6.6 2.4 4.6 5.1 5 8 .4 7.5-11.9 8.4-27.2 18.9-37.7.9-.9.2-3.3.2-5 .2-14.4-6.2-25.3-18.9-34.1-.9 2.7-3.1 5.8-2.3 7.5 5 11.2-3.1 19-7.3 27.3-3.6 6.5-9.3 12.1-14.5 17.6zM1433.8 504.1c-.9-1.4.2-4 .3-6 1.8 1.3 4.1 2.1 5.2 3.8 4.8 7.2 9.3 14.6 13.9 21.9 2.5-14.1 4.9-28.1 7.7-44.1-1.1-.5-4.5-3.1-6.6-2.4-12.8 4.6-25.3 10-37.3 14.9.3 2.7.2 3.3.4 3.7.3.8.7 1.8 1.4 2.1 11.6 4.9 12.5 13.9 9.8 24.6-.6 2.3 1 5 .9 7.5-.4 5.8-1.4 11.5-2.1 17.2-1.4 0-2.9 0-4.3-.1-.6-3.8-1.4-7.5-1.8-11.3-.8-6.6-4.3-8.3-9.7-4.3-6.9 5.2-6.6 12.1-3.9 19.2 1.9 4.7 4.8 9.1 6.6 13.8 1.1 2.9 1.1 6.3 1.5 9.5-.8.3-1.6.6-2.4.8-3.4-2.2-6.7-4.4-11.8-7.8-.8 8.7-1.8 15.8-1.9 23 0 2.7 2.1 5.3 3.2 8 3.1-1.4 7.3-2 9.1-4.4 6-7.9 16.9-13.4 13.7-26.3-.4-1.4 1.8-3.4 2.5-5.2 7.3-18.7 18.3-37.2 5.6-58.1zM873.6 493.1c.9-5 .7-11.2-1.4-15.7-2.7-5.8-1.9-10.6-.6-16.3 1.6-7.3 1.8-15 1.9-22.6 0-1.8-2.9-3.6-4.5-5.4-1.5 1.5-3.7 2.6-4.5 4.4-6.6 16-13.7 32-4.2 49.5.7 1.4.8 3.4.5 5-2.9 17.8-3.5 36.5-18.6 49.8-8.5 7.5-7.8 17.3-6.1 26.8 1.2 6.9 7.6 8.7 11.6 3 4.2-6 6.7-13.3 9.3-20.3 1.6-4.5 2.1-9.4 3-14.1 1.2.2 2.3.4 3.5.6 0 5.5-.3 11 .2 16.5.2 2.1 2.2 4.1 3.4 6.2 2-1.3 5.3-2.2 5.8-3.9 1.3-4.1 2.8-9.1 1.7-12.9-4.6-16.9-4-33.6-1-50.6zM884.4 323c1.9-1.3 3.1-4.9 3.3-7.5.8-9.7 1.1-19.5 1.4-26.9 4.1-4.3 9.2-7.2 9.5-10.5 1.1-12.7.9-25.5.5-38.2-.2-4.6-3.7-6.7-7.6-2.7-10 10.3-13.9 22.7-12.7 37.2 1 11.5.2 23.1.2 34.7-.9-.7-1-1.6-1.3-2.3-2-3.9-4-7.7-6-11.6-2.9 4.1-5.9 8.1-8.7 12.3-.6.8-.6 2.3-.3 3.3 1.1 4.2 2.3 8.3 3.5 12.5 3.3-1.9 6.5-3.9 9.8-5.8.2-.1.5 0 2.3 0-1 3-1.1 7.3-2.8 8-7.8 3.6-9.2 10.9-12 17.7-1.9 4.6-4.3 9.2-7.5 12.9-5.1 5.7-7.7 11.8-6.9 19.3.2 1.8.9 4.8 2 5.1 1.8.5 4.7-.1 6-1.4 3.7-3.4 6.7-7.6 10.4-11.2 7.3-7.1 11.2-15.4 10.4-25.9-.6-7.2-.8-14.2 6.5-19zM1401.9 172.8c.7 2.8 0 6.1-.8 9.1-1.4 5.3-4.6 10.3-4.8 15.6-.2 6.3.6 14.9 8.5 15.1 3 .1 9.8-10.2 8.7-14-4.3-14.9.5-23.6 13.8-29.5 4.6-2.1 9-5 13.2-7.8 4.9-3.3 11.7-6.1 13.9-10.8 4.5-9.9 3.4-10.4 11.6-3.9 1.1.8 2.4 1.5 3.7 1.8 5 1.2 10.1 3 15.2 3.2 3.9.1 9-.9 11.3-3.4 1.7-1.9.9-7.9-1-10.7-2.7-3.9-7.3-6.5-11.7-10.1-4.8 8.1-9.6 6.2-14.5 2-5.9-5-10.7-2.4-15.6 2-3.8 3.4-7.9 7-12.5 9.1-12.1 5.4-12.2 5.1-10.8 19.4-3.3-3-5.5-5.7-8.2-7.2-2.4-1.3-6.4-2.8-8.3-1.7-5.9 3.6-11.2 8.3-16.7 12.6 1.9 3.3 4.3 6 5 9.2zM1038.2 297.5c4.5-10.9 1.4-24.8-7-35.1-4.4-5.4-11.8-6.2-16.8-2.3-2.7 2.1-3 9-2.3 13.4 2 14.2 5 28.2 6.8 38 .1 13.4.1 13.4-7.3 19-7.5 5.7-11.4 20.5-7.2 29.2 3.3 6.9-.2 11-5.4 13.9-8.6 4.9-9.5 15-1.3 20.7 5.6 3.9 13.6 2 13.4-3.8-.5-13 6.8-23.9 8.3-36 1.4-11.4 3.3-21.7 9-32.4 3.9-7.4 6.4-16.3 9.8-24.6zM1134.6 414.4c3.7-2.2 5.8-7 9.3-11.4-12.1-3.2-13.5-6.7-8.2-14.4 5.6-8.1 5.3-9.3-3-15.1-4.4-3.1-7.4-2.5-8.5 3-1.3 6.7-2.3 13.4-3.3 20.1-.4 2.5-.1 5.3-1.2 7.5-1.2 2.3-3.6 3.9-5.4 5.8-1.2-2.2-3.4-4.4-3.5-6.7-.2-3.9 1-7.8 1.6-11.7 1-6.7 2.6-13.4 2.9-20.1.1-2.7-2.6-5.5-4.1-8.2-2.1 2.4-5.5 4.5-6.1 7.2-1.2 6-.9 12.3-1.5 18.5-.4 4-1.5 7.9-2.2 11.9-.9-.1-1.9-.2-2.8-.3-1.6-9-3.2-18.1-4.9-27.1-1.2-.1-2.5-.1-3.7-.2-1.1 2.1-3 4.1-3.3 6.3-2.4 17.9-4.6 35.9-6.5 53.9-.6 5.8 3.2 7.5 7.4 4.4 6.4-4.7 12-10.6 18.3-15.7 2.3-1.9 6.1-4.5 8.1-3.7 7.9 2.9 14.5-.4 20.6-4zM1173.9 168.3c-2.6-2.2-5.2-4.3-7.8-6.4-2.1 3.4-5 6.6-6 10.2-1 3.8-1.2 7.8 4.2 10.6 6.2 3.1 11.3 8.3 16.8 12.5 3.6 2.7 7.1 5.5 10.8 8 4.4 2.9 9 5.6 13.4 8.3 1.7 1 3.4 2.1 5.7 3.5 1.3-5 2.3-8.7 3.2-12.4.8.1 1.6.2 2.4.2.3 2.7.1 5.5.9 8.1.8 2.6 2.5 4.9 3.8 7.3 1.2-3 4-6.4 3.3-8.8-1.8-5.9-5.5-11.1-7.7-16.9-.9-2.4-1.2-6.1 0-8.1 5-7.9 4.7-11.4-3.9-14.9-8.1-3.2-14-8.1-18.2-15.7-1.3-2.4-3.3-4.8-5.6-6.3-2.1-1.4-5.6-3-7.3-2.1-1.9.9-3.2 4.5-3.3 7-.2 3.3 1 6.7 1.4 10 .4 3.1.7 6.2 1 9.3-.7.4-1.5.7-2.2 1.1-1.5-1.4-3.1-3.1-4.9-4.5zM1245.1 421c6.1-5.8 5.7-12.6 2.7-19.5-2.6-5.9-5.9-11.6-9-17.3-2.9-5.5-4.6-13.5-9.1-15.6-4.3-2-11.4 2.2-17.3 3.7-2.2.6-4.4 1.1-6.5 1.8-8.7 2.6-13.8 7.8-14.6 17.5-.5 5.8-3.3 11.4-4.5 17.2-.8 3.8-.5 7.7-.8 11.6 1.3.3 2.6.6 3.9 1 6.7-9.5 13.3-19.1 20-28.6 1.5-2.2 3.5-5.8 5.1-5.7 2.6.1 6 2.2 7.4 4.5 4.3 6.9 8.3 14.2 11.6 21.7 1.4 3.3.8 7.6.8 11.4-.1 10.9-.7 21.8-.4 32.7.2 4.9 2.3 9.8 3.5 14.7h2.8c3.3-9.6 8.1-18.8 7-29.6-.2-1.8-1.2-4-2.6-5.1-7-5.6-5.6-11 0-16.4zM934.7 556.9c3.8 2.3 7.1 5.7 9 5 2.9-1 5.6-4.4 7-7.5 3.9-8.5 7.6-17.1 10.5-25.9 2.5-7.5 4.1-15.3 5.4-23.1.6-3.9-.1-9.1-6.2-6.4-9.8 4.2-18.6 9.8-20.4 21.8-.7 4.6-2.4 7.5-8.1 7.7-2.1.1-5.2 4.2-5.9 7-1.3 4.9-1.1 10.2-1.6 16.8-1.6-2.2-2.4-3.2-3.2-4.3-1.7-2-3.4-4.1-5.1-6.1-2.3 2.2-5.1 4.2-6.9 6.8-1.2 1.7-1.6 4.3-1.6 6.4.2 9.9.4 19.8 1.1 29.7.2 3.2 1.7 6.4 2.9 10.6 8.5-5.6 8.7-13.1 10-19.8 1.6-8.7 6.5-14.6 13.1-18.7zM947.4 487.7c6.4.4 13.4 1.9 19.2 0 5.9-1.9 5.2-8.2 1.7-12.9-5.1-6.8-3-12.5.4-19.5 3.2-6.8 3.6-15 5-22.6.6-2.9-.5-6.9 1.1-8.8 6.4-7.7 7-16.6 6.5-25.7-.3-5 1.7-12.6-5.9-12.9-7.3-.3-6.2 7.7-7.2 12.5-.6 3.1.6 6.7 1.3 10 .6 3.3 1.5 6.5 2.3 10-14.4 2.9-6.4 15.6-11.2 24.1-1.7-1.6-3.3-2.3-3.6-3.4-2.2-9.4-7.3-18.1-4.2-28.7 1.5-5.1-.9-11.5-2.2-17.1-.4-1.8-3.2-3.1-4.9-4.6-1.1 2.1-2.5 4.2-3.2 6.4-.5 1.8-.2 3.9 0 5.9 1.7 19.3 3.7 38.6 5 57.9.5 7.7-.6 15.5-.8 23.3.1 2.1.4 6.1.7 6.1zM861.1 275.4c10.7-8.6 12.1-12.1 6.1-24.2-4.6-9.2-5.5-18.3-3.8-28 .5-3 1.1-6.4.4-9.3-.8-3.2-3.1-6-4.7-8.9-1.7 2.7-3.5 5.3-5 8-5.4 10-11.6 19.5-9.9 32.1.8 5.9-2 12.5-3.9 18.5-1 3-3.8 5.4-5.7 8.1-3.1 4.3-8.2 8.5-8.7 13.1-.9 9.6.6 19.4 1.2 30.7 2.2-1.5 4.6-2.2 5.7-3.9 7.3-11.7 21.6-17.9 25.1-32.5.4-1.3 1.9-2.6 3.2-3.7z"/><path class="st1" d="M848.3 500.9c-.3-.8-.6-1.8-1.2-2.2-7.2-5.2-5.3-11.9-2.6-18.3 10.3-24.3 2-48.5-.1-72.7-.2-1.8-4.5-5-6.1-4.5-6.8 1.9-11.3 18.6-5.9 22.7 6.3 4.7 3.4 8.8 1.9 14-1.8 6.3-2.3 13-3.1 19.6-.4 3.8.9 8-.2 11.5-6 17.5-4.6 35-1 52.5.9 4.3 2 8.6 3.1 13.1 9.3-5.6 18.1-27.4 15.2-35.7zM1311.7 263.8c1.2 0 2.4.1 3.6.1.8-2.8 1.3-5.7 2.5-8.3 1.1-2.4 2.9-5.9 4.7-6.1 5.6-.8 8.3-3.7 10.1-8.7.6-1.7 3.2-2.6 4.8-3.8 1.3 1.7 3 3.3 3.7 5.2 1.5 3.9 1.5 8.7 3.8 12 2.1 3 6.4 4.5 9.8 6.6 1-3.4 3.1-7 2.6-10.3-.8-6.4-.1-11.5 4.9-16.1 14.5-13.5 13.1-27.1-3.9-36.4-2.5-1.4-7.7-1.8-8.9-.4-2.4 2.9-3.4 7.3-3.7 11.2-.2 2.1 2.1 4.5 3.5 6.6 2.6 4 1.4 7.3-2.9 7.3-5.5.1-11.5-.6-16.5-2.8-6.9-3.1-14-2-13 3.7 2 10.5-4.6 18.4-5.8 27.6-.5 4 .5 8.4.7 12.6zM1406.3 97.7c-1.7 5.5-3 11.1-5.1 16.4-.8 2.1-3.6 5.1-5 4.9-8.2-1.2-9.5 3.7-10.5 9.9-.7 4.8-2.1 9.4-3.2 14.1-1.1 0-2.3-.1-3.4-.1-1.1-2.8-2.6-5.4-3.2-8.3-2.9-14.3-5.4-28.7-8.5-43-.7-3.1-3.4-5.7-5.2-8.6-2.3 2.7-6 5.2-6.8 8.3-1.8 7.3-1.7 15.1-3.3 22.5-1.6 7.1 4 22.2 9.9 26 3.8 2.4 6.7 6.1 10.2 9 3.7 3.1 7.5 7.9 11.6 8.3 7.2.6 21.3-16.4 22.1-24.1 1.1-10.1 2.7-20.1 3.9-30.2.2-1.6-.6-3.3-1-4.9-.8.1-1.6 0-2.5-.2zM1003.8 515.9c.4 2.7 2.3 7.2 3.8 7.3 3.2.2 7.6-1 9.6-3.3 2.1-2.4 2.4-6.8 2.5-10.3.2-4.5-.9-9-1-13.5-.4-17.7-.5-18.4-17.6-15.9-7.6 1.1-17.5 3.9-21.5 9.4-9.2 12.9-7.4 29.4-9.6 44.7 17.6 1 21.1-1.3 25.4-16 .9-3 .9-6.2 1.8-9.2.8-2.6 2.2-5 3.3-7.6 1 .2 2.1.4 3.1.6 0 4.6-.4 9.3.2 13.8zM796.1 162c-15.3 8.8-15.3 8.8-10.6 27 1 4.1 1.8 8.2 2.9 13.1-6.7 2.3-12.6 4.6-11.2 12.4.5 2.6 2.8 4.8 4.3 7.2 1.8-2.2 4-4.2 5.2-6.7 1.3-2.4.9-7.1 2.4-7.6 11-4 15.8-12.6 18.9-23 .6-1.9 3.7-3 4.4-5 2.2-5.6 6.4-12.3 5-17.1-3.7-12.4-10.1-24.1-15.4-36-12.6 8.7-21.4 21.6-5.9 35.7zM826.4 554.8c-2.2-13.3-5.9-26.4-9-39.5-.1-.5-1.3-.8-3.1-1.9-2.3 3.6-5.6 6.7-6.5 10.5-2.1 9-3 18.3-4.7 27.5-.8 4.6-2.3 9-3.5 13.5-.9-.2-1.8-.3-2.8-.5-.3-2.4-.2-4.9-.9-7.2-2.6-8.7-.5-19.1-8.9-25.8-6.9-5.4-11.7-3.7-12.9 4.8-1.5 10.4 1.7 20.2 8.3 27.7 5 5.7 12.7 9 19.2 13.3.2.1.6.1.8.1 8.1.4 25.3-14.8 24-22.5zM1381.6 546.7c-2 .9-5.9 1.6-6.8.5-4.2-5.2-7.5-3-10.2.8-2.5 3.6-5.2 7.6-5.8 11.8-1.5 9.5-1.2 19.2-2.6 28.7-1.6 10.7-2.1 10.6 8.4 10.7h5.1v-.1c3.7 0 7.4.4 11-.2 2.2-.3 5.4-1.9 5.9-3.5 3.8-13.9 7.7-27.8 10-41.9.6-3.8-4.1-8.5-6.3-12.8-2.9 2.1-5.6 4.5-8.7 6zM948.9 319.8c2.3-.2 5.3-3.2 6.2-5.7 3.9-10.1 7.2-20.5 11-31.5 7.4 3.9 7.8 6 4.3 12.9-2.3 4.6-6.3 11-4.7 14.3 3.5 7.4 10 13.5 15.8 20.8 10.4-21.9-8.6-81.7-25.6-87.9-5 7.7-5.7 17.3-2.3 24.2 5.6 11-1.7 20 .4 30.1-12.6-1.8-16.2 1.4-14 11.7.5 2.2.7 4.8 2 6.4 1.9 2.1 4.8 4.9 6.9 4.7zM921.4 344.2c-1.4-3.5-4.9-6.1-7.5-9.2-1.8 3.3-4.1 6.4-5.3 9.8-1.7 4.9-2.7 10-4.4 16.4-8.7-8.1-12.7-7.2-16.7 1.3-.8 1.8-1.6 3.7-1.8 5.6-1.6 15.4-3 30.7-4.4 46.1-.1 1.1-.3 2.7.3 3.3 1.4 1.4 3.3 3.4 4.8 3.2 8.1-.8 19-14.7 17.6-23.2-1-6.4 1.5-10.4 5.3-15.1 8.8-11 18.3-22.4 12.1-38.2zM1293.8 85.7c-1.8.6-3.5 2.6-4.4 4.4-7.2 14.2-14.3 28.5-21.4 42.7-2.2 4.5-4.7 8.9-6.5 13.6-2.9 7.6 2.2 11.6 7.8 14.8 5.6 3.2 11.4 2.6 15.3-2.3 3.2-4 5.1-9.2 7.2-14.1 2.6-6.2 4.8-12.5 7.3-18.8 2.3-5.7 4.8-11.4 7.6-18.1-2.6-6.5-5.1-13.3-8.1-19.9-.6-1.2-3.5-2.7-4.8-2.3zM1175 364.9c15.6 2.9 17.8 1.7 23.4-13.9 1.5-4.2 2.4-8.8 2.5-13.2.2-6.3 1.3-15.4-6.8-16-8.2-.6-7.9 8.6-8.8 14.9-.7 4.2-1.4 8.4-2.2 12.5-1.3.1-2.6.2-3.9.2-1.4-6-3.2-11.9-4.1-18-.7-5 .4-10.3-.7-15.2-.6-2.7-3.9-5-6.4-6.8-.8-.6-4.1.6-4.7 1.8-3.4 7.1-7.9 7.2-13.8 2.1-7.3 10.2-6.8 16.5 2.6 23.2 8.6 6.1 15.6 12.8 17.9 23.7.4 1.8 3 4.3 5 4.7zM936.4 450.7c-3.2-26.2-6.2-52.3.4-78.5.5-2-1.8-4.8-2.7-7.2-1.9 1.4-4.8 2.4-5.5 4.2-5.6 13.9-10.9 28-15.9 42.1-.6 1.5.9 5.5 1.6 5.6 8.5.8 6.5 6.7 5.3 11.4-2.3 9.3-5.7 18.3-7.9 27.6-1.2 5.2-.9 10.8-1.5 18.7 7.3-3.8 11.6-6.6 16.2-8.2 8.7-3.2 11.1-6.5 10-15.7zM1002.1 541.4c-3 .2-6.1-.1-8.8.7-2 .6-3.5 2.7-5.3 4-3.8 2.9-7.2 6.8-11.5 8.5-13.4 5.3-23.8 13.1-28.7 27.4-1.9 5.7-4.9 11-7.8 17.3 10.8-2.5 24.9 7.4 30.8-11.7 1.9 3.9 3.1 6.4 4.9 9.9 9.3-16.2 18.2-31.2 26.5-46.5 1.2-2.5 0-6.4-.1-9.6z"/><path class="st1" d="M905.9 195.5c0 8.5.8 17 1.5 25.5.5 5.6 2.7 9.8 8.4 12.7 12.7 6.3 20.6 16.1 20.1 31.3-.2 6.5.7 13 1.6 19.4.4 2.4 2.3 4.5 3.6 6.7 1.9-1.9 5.3-3.8 5.4-5.8.3-7.2 1.4-15.4-1.4-21.6-3.4-7.5-4.3-12.9.2-20.2 2.7-4.4 8-11.4 1.6-15.9-3.2-2.2-9.9.6-15 1.2-1.1.6-2.1 1.2-3.2 1.8 0-6.6-.6-13.3.1-19.8 1.2-10.5-4.4-16.4-12.5-21-6.8-3.8-10.4-2-10.4 5.7zM1091.1 95.9c2.3 2.4 3.9 5.5 5.9 8.2 1.2 1.7 2.7 3.2 5 5.9 6.5-17.2 7.3-33.2 6-49.8-.6-7.9-.9-16.9 2.3-23.7 4.5-9.6 4.9-23.2-3.9-32.5-3.9 10.1-8.5 19.3-10.9 29-3 12.5-2.3 25.6-9.1 37.6-7.5 13.3-6.5 13.8 4.7 25.3zM1089.9 302c.1-2.2-.1-4.6-.8-6.7-3.9-11.8-7.5-23.7-12.2-35.2-3.5-8.6-7.6-9-16.2-2.9-5.2-14.7-10.3-29.2-15.5-43.8-1.7-.1-3.3-.1-5-.2-3.6 9-7.7 17.8-10.7 27-.9 2.7.8 6.7 2.3 9.6.8 1.5 3.9 2.9 5.5 2.5 1.5-.3 3-3.1 3.3-5 .5-3.7.2-7.4.2-11.2.8-.2 1.5-.3 2.2-.5 1.6 5.2 3.9 10.3 4.7 15.6 1.4 9 4.1 15.3 12.6 21.2 8.7 6.1 22.1 12.7 17.2 28.7-1.5 4.8-1 9.6 5.3 10.1s6.9-4.5 7.1-9.2zM740.9 220c-14.9 6.4-16.6 10.8-14 26 1.1 6.4 2.5 12.7 4 19 .5 2.1 2.1 4 3.2 6 .9-.1 1.7-.3 2.6-.4 1.5-9.3 2.9-18.5 4.4-28.1.7 1.2 1.8 2.3 2.8 2.7 1.9.8 3.8 1.4 5.7 2.1-.7 6.7-1.6 13.4-3 20-1.1 5.1-7.9 9.6-7.7 14.3.4 16.5 2.5 33 4.3 49.5.1.7 4 2.1 5.1 1.5 6.2-3.4 7.2-21.5 4.8-27.8-2.9-7.7-6.1-18.8-2.7-24.5 5.9-9.8 8.1-19.6 8.5-30 .3.1.7.2 1 .3 8.2 2.3 12.6.1 14.6-6.5-3.7-2.2-9.3-4.2-9.2-5.6 1.4-11.9 3.9-23.7 6.1-35.5 1-5.5 2.2-11 2.6-16.5.2-2.2-1-5.7-2.5-6.5-1.6-.8-5.3.4-6.6 2-5.3 6.2-9.5 13.3-15 19.3-5.2 5.7-7.8 12.1-9 18.7zM900.3 513c-6.4-5-6.4-11-4.6-17.5 3.7-13.6 8-27 11.4-40.7 1.1-4.4.2-9.3.2-13.9-1.1-.4-2.2-.7-3.3-1.1-2.2 2.3-5.5 4.3-6.4 7.1-5.3 14.9-11.7 29.6-14.5 45-2.6 14.6-1.4 29.9-1.2 44.8.1 5.7 2.8 11.7 10 8.7 4.8-2 11-6 12.1-10.2 1.9-7.2 3.8-16.4-3.7-22.2zM1008.7 37.3c2.9 4.9 2.5 9.6-2 11.6-3.1 1.4-8-.2-11.6-1.7-2.7-1.2-4.4-4.4-6.6-6.7-1 .3-1.9.7-2.9 1 .3 3.8-.9 8.9 1.1 11.1 4.9 5.2 11.2 9 17 13.3 1.9 1.3 5.1 1.7 5.9 3.4 4.1 8.3 7.1 17.1 11.4 25.3 2.1 3.9 6.1 6.9 9.2 10.3l2.7-1.2c.3-2.1 1.4-4.6.7-6.2-4.3-9.6-9-19.1-13.5-28.6-1.1-2.4-2.7-5.1-2.7-7.6 0-8.2 1.4-16.4.9-24.5-.5-8.4-1.8-16.9-4.1-24.9-1-3.4-5.2-6.5-8.7-8.3-2.2-1.1-6.8-.4-8.4 1.2-1.5 1.6-1.6 6-.5 8.4 3.6 8.1 7.6 16.3 12.1 24.1zM1200.9 244.9c-1.1 3.4-1 7.3-1.5 10.9-1.3 9.8 3.9 17 13.6 19 2.5.5 5.3 1.8 7 3.6 8.5 8.8 16.1 18.6 25.4 26.6 3.6 3.1 10.7 2.4 16.2 2.6.6 0 3.1-7.4 1.8-9.1-4.4-5.7-9.4-11.6-15.6-14.9-4.2-2.3-4.8-4.1-4.9-8-.1-4.7-1.2-9.3-2-14.7-8.1 2.7-14.1 4.7-21.4 7.1-3.9-11.3-7.7-22.2-12.5-36.1-2.4 5.1-4.7 8.9-6.1 13zM1277.5 531.2c3.2 4 6.2 7.8 11.8 5.8 6.3-2.2 13.5-3.3 15.2-11.7 1.7-8.3-4.7-14.5-13-13.9-10.1.8-20.3.2-30.8.2-9.5 16.5-7 34.2-8.8 51.2-.4 4 1.6 8.6 7.3 5.5 9.2-4.9 14.7-22.6 11-32.4-1.4-3.6-1.1-7.9-1.6-11.9 3 2.4 6.6 4.3 8.9 7.2zM1331.9 508.1c2.7-2.4 4.5-7 4.7-10.8.9-15.7-8-28-15.4-40.7-.1-.2-1 0-2.3 0-.4 1.9-1.2 4.1-1.2 6.2 0 7.6.6 15.3.3 22.9-.1 2.1-2 4.2-3.1 6.4-1.9-1.1-3.9-1.9-5.6-3.3-1.3-1-1.9-2.8-3-4.1-6.7-8.9-13.5-17.8-20.3-26.7-.8.4-1.7.8-2.5 1.1.6 4.4 1 8.8 1.7 13.2 1.1 6.4 3.2 12.7 3.5 19.2.3 7.7 3.1 11.3 11 12 7.5.7 14.9 2.8 22.3 4.1 3.5.4 8.2 2 9.9.5zM1030.7 503.5c1.2.4 3.6-1.9 4.9-3.5 1.2-1.5 1.6-3.6 2.8-6.5 1.7.8 2.9 1.5 4.1 2 7.3 2.7 25.2-1.9 27.8-7.6 5.4-11.7 3-23.4-.2-35.3-1.7.5-2.5.5-2.8.8-4.7 6.4-7.8 15.5-19 10.9-1.1-.5-3.2 1-4.6 1.8-5.5 3.2-11.2 6.3-16.4 9.9-1.6 1.1-2.9 3.7-2.9 5.7 0 5.6.5 11.3 1.5 16.8.5 2 2.9 4.3 4.8 5zM929.9 94.1c-1.2-6.6-1.7-11.2-3-15.6-1.1-3.6-2.4-9.2-4.8-9.9-6.7-1.9-8.9-5.7-9.5-12.1-.2-1.9-2.8-3.5-4.4-5.3-1.5 1.8-4.6 4-4.3 5.4 1.5 6.7 3.7 13.3 6 19.8 2.2 6.2 5.7 12.2 6.9 18.6 1.9 10.3 2 20.9 3.9 31.2.5 2.9 4.6 5.2 7 7.7 1.2-3.3 3.5-6.8 3.2-10-.3-3.3-3.1-6.5-4.9-9.7-2.4-4.1-3.2-7.8 3-11.1 1.2 2.9 2.5 5.2 3.2 7.8.9 3.6.9 7.4 2.1 10.8.8 2.3 2.9 5.7 4.7 5.8 2.1.2 5.2-2.1 6.4-4.2 1.3-2.2 1.8-5.6 1.1-8.1-2.9-9.7-6.3-19.2-9.8-29.5-2.3 2.8-3.7 4.6-6.8 8.4z"/><path class="st1" d="M1077.7 372.1c.5-5.6.2-11.3.3-16.9.5-13.3 2.6-27.3-14.3-33-1-.3-1.6-1.6-2.4-2.4-4-3.8-2.6-7.2 1.8-8.2 10.2-2.3 8.3-8.8 5.1-14.8-2.7-5.1-6.9-9.5-10.9-13.8-1.2-1.3-4.9-2.2-6-1.4-1.6 1.3-2.5 4.2-2.6 6.5-.3 7.6-.1 15.2-.1 22.9-.3 0-.6.1-.8.1.8 3 .9 6.3 2.4 8.9 9.3 16.8 19.5 33.2 20 53.4 0 1.4 2.8 2.6 4.3 4 1-1.7 3-3.4 3.2-5.3zM1473.5 400.3c4.8 0 9.6 1.6 14.3 1.2 2.6-.2 6.7-2.7 7.2-4.8 1.8-7.8 2.4-16 3.4-24-.6-.1-1.2-.3-1.8-.4-4.6 7.9-9.2 15.7-14.5 24.7-5.9-6.2-.3-17.9-9.8-21.8-12.4 9.6-10.5 34-32.1 31.6-.5 7.2-1.3 14.2-1.2 21.3 0 1.9 2.7 4.9 4.6 5.3 6.1 1.4 11-3.3 12.9-11.7.8-3.6 1.8-7.1 2.6-10.7l2.7-.3c2.7 4.2 5.1 8.5 8.1 12.5 1.2 1.7 3.6 3.7 5.1 3.5 1.6-.2 3.1-2.9 4-4.8 2.4-5.1-.2-7.7-4.8-9.8-4-1.8-7.7-4.5-11.5-6.8.2-1.1.4-2.1.6-3.2 3.5-.7 6.9-1.8 10.2-1.8zM1231.1 556.1c-4.3 2.5-9 4.5-13.6 6.6-15.2 7-25.9 17.7-28.8 36 7.8 0 15.4 1.4 22.1-.6 3.6-1 5.1-8.1 8.4-11.7 1.5-1.7 6-3.3 7.2-2.4 6.7 5.1 10.6 1.1 12.6-4.2 2.2-5.9 3.5-12.5 3.5-18.8 0-6.7-5.3-8.5-11.4-4.9zM841.4 53.2c-2.2.7-5.2.8-6.3 2.3-10.4 14.3-20.5 28.7-30.4 43.3-1.2 1.9-.9 5.6.1 7.9.5 1.1 4.2.6 6.2 1.3 3.1 1 6.8 1.6 9 3.7 6 5.7 12.1 9 21.5 5-1.3-4-1.8-8.4-3.9-11.7-3.5-5.6-3.6-10.7-2-16.9 1.9-7.2 2-14.6 7.7-21 2.1-2.2-1.1-9.1-1.9-13.9zM1245.2 166.1c-5 4.9-5.2 10.9-2.2 16.4 4 7.1 8.9 13.8 13.9 20.2 1.1 1.4 5.2 2 6.8 1 5.5-3.3 10.4-3 15.9-.1 6 3.2 10.6.2 10.5-9.1-2-3.1-4.4-9.2-8.8-13-6.6-5.6-14.6-9.4-21.9-14.1-4.5-2.9-9-6.5-14.2-1.3zM1022.9 114.3c-.7 7.9-1 15.5 4.7 22.5 3.5 4.3 6 10.2 7.2 15.7 1.4 6.3.1 13.1 1.2 19.4.9 5.4 3.6 10.5 5.4 15.7l3.9-.6c1.3-3 3.5-5.9 3.9-9 1-8.7 2.3-17.6 1.5-26.2-1.2-13.2-2.6-26.9-11.4-37.6-2.5-3-8.2-3.7-12.5-4.7-1.1-.1-3.8 3.1-3.9 4.8zM1490.8 477.2c-1.3-2.5-7.1-3.2-11-3.8-1.4-.2-4.9 2.9-4.7 3.5 1.2 3.2 2.6 7 5.2 9 6.5 5 7 11.1 5.5 18.2-1.3 6.1-2.5 12.2-3.4 18.3-.7 4.5-1.9 6.5-7.2 4.8-6.8-2.2-10.8 1.1-9.4 8.2 1.3 6.1 4.6 12 7.8 17.5 1.3 2.2 4.9 3 7.5 4.4 1.5-2.8 3.5-5.4 4.5-8.4 2.2-6.6 3.7-13.4 5.7-20.1 2.6-8.5 5.6-16.9 8.7-26.1-3.1-8.9-5.2-17.6-9.2-25.5zM874.1 237.9c3.9-4.7 6.7-7.9 9.4-11.2 2.3-2.9 3.9-7.2 6.9-8.8 8.2-4.3 11.2-20.1 3-25-6.8-4.1-9.1-8.9-9.9-16.1-.3-2.9-1.8-6.1-3.8-8.3-1.2-1.4-4.9-2.3-6.3-1.4-6 3.6-8.9 16-6.4 22.6 5.2 13.9 12.7 27.5 5.8 43-.3.5.3 1.5 1.3 5.2zM909.5 168.6c-2-11.5-3.2-23.5-7.4-34.2-3.2-8-10.3-14.5-16.9-23.3-2.9 11.9-5.9 23.8-8.6 35.8-.4 1.9.2 5.2 1.6 6.3 7.8 6.5 15.7 12.7 24.1 18.4 1.2.8 7.3-2.4 7.2-3zM1498.7 228.7c-.1-1.2-1.9-3.2-3-3.3-1.1-.1-2.9 1.5-3.6 2.8-.8 1.7-.9 3.8-1.1 5.8-1.4 11.2-2.1 22.5-4.5 33.4-1.1 5.1-7.9 9.6-7.7 14.3.4 16.5 2.5 33 4.3 49.5.1.7 4 2.1 5.1 1.5 6.2-3.4 7.2-21.5 4.8-27.8-2.9-7.7-6.1-18.8-2.7-24.5 7.2-12 8.9-24.1 8.5-37.2 0-4.9.2-9.7-.1-14.5zM1049.6 53.1c-2.5 2.2-4.7 4-8.2 7-.8-12.2-.5-23.1-13.3-29.8-.8 4.5-2.7 8.3-2 11.6 2 8.5 4.9 16.8 7.8 25.1 2.6 7.4 5.7 14.7 8.3 22.1 2.1 6.2 3.4 12.7 6.1 18.6.9 2 5.6 4.3 7.5 3.6 3.8-1.5 6.2-19.6 3.1-22.7-5.5-5.5-5.8-11.5-4.9-18.8.7-5.7 2.1-12.5-4.4-16.7zM1256.2 494.3c.5-.3 1-.6 1.5-1-3-5.3-5.7-14.9-9.1-15.1-7.4-.5-8.4 8.3-10.3 14.4-.1.3-.1.6-.1.8-3.7 13.5-5 27.9-13.8 39.7-1.5 2-2.1 4.7-2.6 7.1-1.5 6.9 1.2 9.9 8 8.9 7.7-1.1 12.9-5.2 14.7-13.2 2.9-12.8 1.5-26.8 10.9-37.7.8-.7.5-2.5.8-3.9zM977.2 467.1c.7 1.5 4.3 3.2 5.6 2.6 11.3-5.5 23.7-22.7 24.2-34.6-2.4-9.6-4.6-19.2-7.4-28.6-.7-2.3-3.5-3.9-5.3-5.9-1.5 2.1-3.8 4-4.3 6.3-4.4 17.5-8.5 35.2-12.6 52.8-.7 2.4-1.1 5.3-.2 7.4zM1212.3 360.3c2.5-1.2 4.4-3.5 6.7-5.2 1.8-1.4 4.3-3.9 5.7-3.4 11.2 3.8 17.2-1.4 20.7-11.7 10.7 3.6 15.6-5.7 22.5-10.2 1.5-.9.9-5.1 1.3-7.8-2.3-.3-4.6-1-6.9-.8-6.7.5-13.7.3-19.8 2.4-8.1 2.8-15.9 7.2-23.1 11.9-3.9 2.5-6.8 7-9.2 11.1-1.5 2.6-2 6.2-1.8 9.3 0 1.6 3.4 4.7 3.9 4.4zM1264.1 490.4c1.8 7.7 9 11.8 15.4 9.1 1.5-.6 3-4.5 2.5-6.5-1.9-7.7-4.9-15.2-6.8-22.9-4.4-18.2-8.3-36.6-13-57.2-7.8 8.4-8.2 15.5-6.1 23.3 1.2 4.6 4.4 10.1 3 13.8-5.5 14.7 1.9 27.2 5 40.4zM930.9 143.8c-3.7-3.9-7-3.1-9.4 1.5-6.4 12.4-2.9 29.8 7.5 39.3 2.2 2 3.4 5.1 5.1 7.7 1.9 2.8 3.6 5.8 6 8.1 3.7 3.5 7.9 6.3 13.4 10.7-.7-11.3-1.1-22.3-2.5-33.2-.3-2.7-3.9-5-6-7.6-2.3 2.2-4.8 4.3-7 6.5-1.2 1.2-2.2 2.7-3.3 4.1-.8-.3-1.5-.5-2.3-.8 1-6.8 1.2-13.8 3.2-20.3 2.2-6.9-.4-11.6-4.7-16zM1210.7 51.3c-1.1 2.4-2.8 4.6-3.1 7.1-.4 2.9.5 6 .9 9.9-2.4-.4-3.5-.2-4-.7-4.9-5-9.5-3.3-14.2.3-5.1 3.9-5.9 8.9-3.7 14.4 3.3 8.1 6.6 16.3 10.7 24 1.3 2.5 5 4.9 7.8 5.1 1.6.1 4.3-3.9 5.1-6.5 1.8-5.6 3.3-11.5 3.9-17.3.9-10.1 1.2-20.3 1.1-30.4.1-2-2.9-3.9-4.5-5.9zM1158.4 111.2c-5-4.4-7.2-9.4-7.6-16.2-.3-6.1-2.9-12.1-5.1-20.4-3 3.4-4 4.1-4.4 5-9.7 20.3-.3 52.4 19 63.7 1.5.9 4.6 1 5.8 0 5.5-4.2 6.6-16.1 2.2-21.7-3-3.7-6.3-7.3-9.9-10.4zM1031.6 458.9c4.9-4.1 10-7.9 14.7-12.2 1.4-1.3 2.7-4 2.5-5.8-1.3-13.9-8.4-25.2-15.9-36.4-.9.1-1.8.1-2.7.2-.9 3.4-1.8 6.8-2.8 10.2-1.4 4.6-2.2 9.5-4.5 13.5-5.2 8.9-6.8 17.5-2.6 27.4 2.8 7 5.3 8.1 11.3 3.1zM1152.9 374.2c3.1.9 9.2-.8 10.3-3.1 1.3-2.9-.3-8.1-2.2-11.4-6.3-10.8-17-12.8-29.1-11.8.7-4.4 1.9-7.7 1.7-11-.3-4.6-.7-9.7-2.9-13.6-2.8-5.1-10.7-5-12.6-.9-5.9 12.6-3.6 23.1 7.2 33.3 5.5 5.2 11.1 9.6 18.3-.2 1.2 4.4 1.6 7.5 2.9 10.1 1.7 3.3 3.7 7.8 6.4 8.6zM918.5 332.8c5.4-9.5 10.3-17.2 14.2-25.4 1.2-2.6-.3-6.6-.9-9.8-2.1-11.4-5.5-22.6-6.1-34.1-.6-10.1-4.9-16.2-15.3-22.2 0 7.6-.8 13.5.2 19.1 2.1 12 8.3 22.8 8.8 35.5.2 6 1.8 11.2-2.4 16.3-5.1 6.2-3.5 12.3 1.5 20.6zM817.7 292.8c-1.3-.6-2.6-1.1-3.9-1.7-2.3 4.7-5.8 9.3-6.6 14.2-1.7 10.3-3 12.4-14 14.4-8 1.4-10.6 6-8.8 14 1 4.5.8 9.4 1.2 14 .2 2.3.9 4.6 1.3 6.9 2.6-.6 6.1-.3 7.7-1.8 4.1-3.9 7.8-8.3 10.8-13 9.4-14.4 14.3-30 12.3-47zM1299.6 195.7c.9 2.1 3.9 3.4 5.9 5.1 1.3-2 3.3-3.8 3.7-5.9 1-5 1.3-10.1 1.8-15.2.7-7 .7-14.2 8.4-18.3 1.9-1 3.5-5.1 3-7.4-1.8-8.6-4.5-17.1-6.8-25.6l-3.6.3c-1 2.2-2.2 4.4-3 6.7-3.6 10.7-6.7 21.6-10.8 32.1-3.8 9.9-2.4 19.1 1.4 28.2zM1225.6 464.4c-1-9.3-2.7-18.4-4.1-27.7.3 0 .5-.1.8-.1 0-4 .8-8.1-.2-11.9-1.1-4.3-3.8-8.2-5.8-12.2-4.1 4.3-8.5 8.4-11.9 13.1-1.1 1.5.1 4.9.6 7.4 2 11.4 3.4 22.9 6.4 34 1.4 5.3 7.2 14.3 8.7 13.9 7.9-2.3 6.2-10.1 5.5-16.5zM1040.3 397.3c.6-.5 1.3-1.2 1.7-1.9 5.7-11.2 7.5-22.6 1-34.1-3.3-5.9-4.1-10.8.3-17.1 4.5-6.5 4-14.3-.6-21.4-16.6 11.6-19.1 58-4.4 75.4 1-.5 1.6-.6 2-.9zM1225.7 63.4c1.3 3.9 4.3 6.7 7.3 3 5.2-6.3 9.2-13.6 13.7-20.4-.5-.5-1-1-1.6-1.5-1.3-5.2-2.6-10.4-3.9-15.5-2.4-9-5.4-10.8-13.9-8.4-8.1 2.3-12.8 9.4-10.5 16.5 2.7 8.8 5.8 17.6 8.9 26.3zM1464.8 91.1c-3.8-.5-7.4-2.8-11.2-3.5-1.7-.4-5.5 1.1-5.5 1.6.5 6.4.2 13.2 2.8 18.8 1.7 3.8 7.5 5.7 12.1 8.8 9.9-7.9 23.4-4.4 30.9-15.6 2.9-4.3 2.5-7.1-1.6-8.6-3.4-1.3-7.5-1-11.3-1.1-5.5-.3-10.9.3-16.2-.4zM1319.3 297.5c4.6-1 8.3-1 10.9-2.7 6.9-4.3 13.5-9.2 19.8-14.3 4.6-3.7 3.7-8.8-.9-11.2-5.4-2.8-11.6-4.7-17.6-5.3-7.9-.9-12.6 4.4-13.8 12.7-.4 2.9-1.6 5.8-2.7 8.6-1.2 3.1-2.8 6-4.2 8.9 3 1.2 6.2 2.4 8.5 3.3zM974.3 61c1.3 1 5.1.7 6.1-.4 1.4-1.5 2.3-5 1.5-6.7-4.7-10-9.7-19.9-15.1-29.5-1.3-2.3-4.5-3.6-7.6-5.9-4 2.5-9.7 4.1-10.4 6.9-1.2 5-1.3 12.5 1.6 15.8 6.9 7.7 15.7 13.6 23.9 19.8zM997.8 180.9c.9 1.8 3 2.9 5.8 5.4 3.9-17.9 1.6-33-5.6-47.3-1.6-3.2-5.5-5.5-8.8-7.4-1.3-.8-5.7.8-5.7 1.2.3 11 1 21.9 1.6 32.9 8.6 1.5 9.7 9 12.7 15.2zM891.6 558.8c-11.8 3.8-14.4 8.2-12.4 20.9.5 3.1.8 6.2 1.1 9.2-.6.3-1.1.6-1.7.9 1.7 3 2.7 7.8 5.1 8.6 4 1.4 9 .9 13.1-.4 1.3-.4.9-5.8 1.6-8.9.7-3.3 1.9-6.5 2.4-9.8.8-4.7 1.9-9.5 1.5-14.1-.3-6.5-4.5-8.4-10.7-6.4zM993.5 321.8c2 2.6 4 6.4 6.7 7.1 1.8.5 5.2-3.2 7-5.6 1.3-1.9 1.1-4.9 1.5-6.9-1.5-12.3-2.7-24.2-4.5-35.9-.9-5.5-.9-14.2-8.5-13.2-9.1 1.3-7.1 11.1-5.1 16.2 4.5 11.7 3.4 23.3 2.7 35-.1 1.1-.4 2.6.2 3.3zM1190.3 253.3c1.6-1.6 2.5-4 3.5-5.5-.7-2.5-.9-4.3-1.5-5.8-5.6-12-10.9-24.1-17.1-35.8-1.8-3.3-5.9-5.4-9-8-1.3 4.1-2.7 8.1-4 12.2-.1.2.1.6.1.8 2.3 16.9 13.2 28.9 23.6 41.1.8.9 3.8 1.6 4.4 1zM1212.9 130.1c-2.7 1.8-7.7 4-10.7 7.7-1.4 1.7-.1 7.7 1.9 9.6 6.7 6.3 14.2 11.7 21.5 17.4 3.5 2.7 7.1 1.8 7.8-2.3.9-5.5 2.1-12.2-.2-16.7-3.4-6.9-8.4-14.1-20.3-15.7zM1331.6 161.1c-2.4 6.1-5 12.2-7 18.5-2 6.3-4.1 12.7-4.8 19.3-.3 2.9 2.5 6.1 3.8 9.2 3.8-1.9 8.5-2.9 11.2-5.8 2.4-2.6 2.7-7.3 3.8-11.1 1.7-5.9 3.2-12 12.5-4.4-6.4-11-11.6-20-17.1-29.5-.8 1.1-1.9 2.3-2.4 3.8zM1463.8 556.2c-4.8-8.4-10.1-16.5-16.5-26.9-1.4 6.1-2.4 10.5-3.3 14.9-1.4 6.5-1.3 13.9-4.4 19.4-5.9 10.5-2.5 18.5 3.1 26.9.8 0 1.7 0 2.5.1.5-3.5 1.1-6.9 1.6-10.4 1.1-7.7 1.8-15.3 12.5-15.7 4.7-.1 7.3-3.5 4.5-8.3zM837 219.6c7.3-10.7 5.4-22 2-33.4-.9-3-2.2-6-3.3-9-3.1 2-7.1 3.4-9.3 6.2-8.2 10.3-5.9 30.3 5.4 43.5 2.1-2.9 3.7-5.1 5.2-7.3zM1222.7 524.2v-31.9c-13.2 19.1-25.3 38.2-26 62.1 10.6-.4 16.5-8.5 15.1-20.1-1.3-11.3-1.3-11.3 10.9-10.1zM946.3 367.1c4.4 10.3 8.7 20.6 13 30.9.9 2.2 1.9 4.3 2.8 6.5.7-.4 1.5-.8 2.2-1.2-.4-3-.9-6-1-9-.5-12.3-.1-24.8-1.5-37-.5-4-5.2-7.9-8.9-10.7-1.3-1-7.2.9-7.7 2.5-1.3 4.5-1 9.6-1 14.4 0 1.2 1.6 2.3 2.1 3.6zM1164.8 83.7c3.2-5.4 6.4-10.7 9.6-16.1.1-.2.1-.6.5-3.2-4.2-6.7-9.3-15-14.8-23-.3-.4-6.1 1.6-6.1 2.7-.6 8.6-1.7 17.6.1 25.9.9 5.1 6.9 9.2 10.7 13.7zM865.1 141c1-3.8 3.9-8.3 2.8-11.3-5.5-14.9-12-29.3-18.7-45.2-1.6 2-2.7 2.8-2.9 3.7-3.2 16.9 1.1 32.6 9.2 47.2 1.6 2.7 6.3 3.7 9.6 5.6zM780 103.8c-6.4-2.4-7.8 3.9-9.6 8.9-1.9 5.2-5.7 9.8-7.4 15-1.1 3.2.1 7.1.3 10.7 3.9-.2 8.5.8 11.5-1 4.5-2.6 8.1-6.9 11.5-11.1 2.2-2.7 3.3-6.3 6-11.5-4.2-3.8-7.6-9.2-12.3-11zM889.7 103.8c0 2.4 4.4 4.8 6.4 7.4 1.9 2.4 3.2 5.3 5 7.8 1.8 2.5 3.9 4.9 6.1 7.6 6-8.5.5-42.4-7.5-52.6-4.2 3-9.9 18.2-10 29.8zM838.1 133.2c-12.2 4.2-18.1-.7-20.6-12.5-.3-1.2-4.2-1.6-6.4-2.4-.4 1.8-1.8 4-1.2 5.2 5.1 9.6 10 19.5 16 28.4 2.7 4 8 6.2 12.1 9.3 1.8-5.5 3.6-10.9 5.7-17.4-2-3.8-5-10.8-5.6-10.6zM864.5 416c3.8-8.6 6.4-18 8.3-27.2 1.1-5.5-3.3-7.4-7.5-4.5-8.9 6.2-17.1 13.4-18 26.8 2.1 3.8 4.3 7.7 6.4 11.5 3.8-2.1 9.4-3.4 10.8-6.6zM1064.2 411.6c1.3 1.4 4 2.3 5.8 2 1.2-.2 2.8-3 2.8-4.6-.1-5.3 0-10.8-1.5-15.8-3.6-12.2-8-24.1-12.3-36.1-1-2.7-2.7-5.2-4.1-7.7-.9.2-1.9.4-2.8.6-.2 2.4-1 4.8-.6 7.1 2.7 15.8 5.6 31.6 8.7 47.4.5 2.5 2.1 5.2 4 7.1zM993.7 74.9c-6.2-1.5-12.6-2.1-18.9-3.2 1.7 12.8 3.3 24.8 5.2 39.1 7.9-8.5 15.3-15.2 21.1-23 3.7-5-.1-11.1-7.4-12.9zM847.6 199.8c1-.1 2-.2 3.1-.3.5-2 1.1-3.9 1.4-5.9.4-2.7-.5-6.3.9-8 8.4-9.8 7.6-21.6 7.3-33-.1-3.3-4.7-6.4-7.3-9.6-1.9 3-5 5.9-5.5 9.1-1.6 11.3-2.8 22.8-3.2 34.3-.1 4.3 2.1 8.8 3.3 13.4zM1483.5 48.1c-2.3-1.1-6.3-2.2-7.4-1.1-1.9 1.8-2.9 5.4-2.7 8.2.4 5.3 1.5 10.7 2.8 15.9 2.1 7.8 8.7 8.9 14.8 7.5 3.2-.7 5.5-5.4 6.6-6.5 0-13.1-4-19.2-14.1-24zM1466.7 246c1.1 6.4 2.5 12.7 4 19 .5 2.1 2.1 4 3.2 6 .9-.1 1.7-.3 2.6-.4 2.7-16.9 5.3-33.9 8.2-52.2-18.6 7.3-20.8 11.1-18 27.6zM1261.4 394.4c-.2-3.7.6-7.9-.8-11-3.9-8.7-3-15.6 4.2-22.2 4.5-4.1 6.1-9.3 2.4-13.4-6.1 3.2-10.5 5.9-15.2 7.9-9.5 4-12.8 11.8-7.4 20.5 4.1 6.6 9.3 12.6 14 18.8.9-.2 1.9-.4 2.8-.6zM1416.3 102.7c-1.2 2.1-2.9 3.7-2.9 5.4.2 7.6.6 15.3 1.4 22.9.5 4.4 3.1 6.4 7.8 4.9 4.7-1.5 9.6-2.4 14.3-4.1 2.1-.8 5-2.3 5.5-4.1.5-1.7-1-4.8-2.6-6.3-5.7-5.1-11.7-9.8-17.6-14.6-1.4-1.2-3.1-2.2-5.9-4.1zM1209.3 312.1c8-.7 16.1-1.6 24.5-2.4-.3-1.9-.1-3.5-.7-4-9.2-7.8-18.5-15.5-28.1-22.9-.8-.6-5.2 1.7-5.1 2 2.1 8.9 4.6 17.7 7.1 26.5.1.5 1.5.9 2.3.8zM1446.2 37.9c1.8 2.9 6.1 4.3 7.6 5.3 9.5 0 12.9-4.3 10.2-10.9-2.3-5.7-4.5-11.8-8.2-16.6-2.2-2.9-8-6-10.6-5-3 1.1-6.3 7-5.9 10.4.8 5.8 3.7 11.7 6.9 16.8zM1400.7 496.5c-3.5 2.1-7.4 6.9-7.6 10.7-.4 7.5 1.6 15.2 2.6 22.8 1.8.8 3.6 1.7 5.5 2.5 4.5-5.7 10-10.8 13.2-17.2 1.7-3.4.6-9.4-1.3-13.2-2.1-4.4-6.9-8.9-12.4-5.6zM951.2 127.5c-1.9 2.1-4.2 4.1-5.6 6.5-1.1 1.8-1 4.3-2 8.9 2.4 5.7 4.9 13.5 8.9 20.4 1.8 3.1 6.5 4.4 9.9 6.5.8-4.1 3-8.4 2.3-12.2-1.6-8-4.4-15.7-7.3-23.3-1.1-2.7-4.1-4.6-6.2-6.8zM1010.3 91.6c-.8.2-1.6.3-2.3.5-2.1 6.5-4.2 13-6.3 19.6-.7-.6-1.5-1.2-2.2-1.8-3.2.5-7.9 0-9.3 1.9-3.4 4.8-.9 9.1 3.9 12 2.9 1.7 6 3.2 8.7 5.1 5.4 3.7 9.2 1.6 10.1-3.9 1.4-8 1.8-16.3 1.7-24.5 0-3-2.7-6-4.3-8.9zM1187.9 52.1c4.8-5.3 12.4-10.9 12.6-16.7.3-5.7-6.4-12.4-11.2-17.4-3.1-3.2-6.9-1.3-7.5 3.9-.6 5.4-1.3 10.7-2 16.6.5 3.2.4 7.1 1.9 10.3.8 1.7 5.8 3.8 6.2 3.3zM1325.3 108.4c-2.1-1.6-4.6-2.6-6.9-3.8-.8 2.9-2.9 6.2-2.1 8.5 2.3 7.2 5.2 14.3 8.9 20.8 2 3.6 6 6.1 9.1 9.1 1.7-3.9 3.5-7.7 5.2-11.6.2-.5 0-1.1 0-2.3 1.5-10.6-7-15.2-14.2-20.7zM908.3 527.2c-.2 1.7.5 3.5.9 5.3 1.8-.4 4.6-.2 5.2-1.3 2.3-4.3 5.4-8.9 5.5-13.5.4-9.8-.8-19.6-1.5-29.5-.1-1.8-1.2-3.5-1.9-5.3-14.1 6.9-16.7 19.3-7.3 30.1 1.6 1.9 1.3 5.8 1.2 8.8 0 1.8-1.8 3.5-2.1 5.4zM1231.9 220.2c2.6 8.7 6.9 17 10.7 26.1 3.5-4.7 5.4-8.1 8.1-10.7 7.4-7 7.7-10.4.6-17.4-2.2-2.2-4.4-4.5-7-6-2.9-1.6-6.3-2.4-9.5-3.5-1.1 3.8-3.9 8.2-2.9 11.5z"/><path class="st1" d="M894.7 331.6c12.4-1.7 20.7-14.4 17.7-26.5-.9-3.5-1.4-7.1-1.4-10.7.1-5.4.9-10.9 1.4-16.3-.9-.2-1.8-.3-2.7-.5-4.8 18-16.5 34.1-15 54zM1427.9 75.5c-2-.6-3.5-2.8-5.4-3.7-1.5-.7-4.7-1.3-5-.8-2.1 3.8-4.7 7.9-5.1 12-.2 2.2 3.8 4.8 6.1 7 2.2 2.1 4.7 4 7.2 5.9 2.9 2.2 6 4.2 9 6.3 2-3.1 4-6.1 4.8-7.4.3-12.9-2.2-16.2-11.6-19.3zM1176.3 588.7c-11.7-.1-12-8.7-13.4-17-.4-2.1-2.4-5.5-3.8-5.6-2.3-.1-6.4 1.7-6.7 3.3-1 5.5-2.6 12.1-.5 16.8 2.6 6.1 5.5 14.4 15.4 13.3 2.8-.4 5.8-.3 8.2-1.5 1.6-.8 2.7-3.4 3.1-5.4.2-1.2-1.5-3.9-2.3-3.9zM1493.1 460.8c1.8-.1 4.3-2.7 4.9-4.7.9-2.8.8-6.1.3-9.1-1.3-8.2-4.8-16.2-.8-24.8.9-1.9-.3-4.7-.7-8.6-16.7 16-18.4 24.7-9 43 1 1.9 3.6 4.3 5.3 4.2zM1079.9 532.7c9.1-7.6 17-13.6 16.7-24.9-.1-2.3-2.5-6.4-3.7-6.3-5.7.4-12.7.2-16.5 3.5-2.8 2.4-2.4 9.8-1.9 14.8.4 3.8 3.1 7.5 5.4 12.9zM1385.2 182.6c-2 1.2-4.5 2.1-5.8 3.8-1.4 1.9-1.6 4.7-1.6 4.6.6 11.3.7 20 1.8 28.6.3 2.4 3.7 6.6 5.1 6.4 3.8-.6 8-2.5 10.8-5.2 1.3-1.3 1-6.6-.5-8.1-7.2-6.8-8.7-14.6-6.8-24 .3-1.7-1.9-4.1-3-6.1zM1474.8 465.2c.5-3.2 2-6.7 1.3-9.6-1.9-7.3-4.4-14.6-7.7-21.4-1-2.1-6.3-4.2-8.2-3.3-3.9 1.9-7.1 5.6-9.9 9.1-.4.5 3.4 4.7 5.8 6.6 2.1 1.7 4.9 2.7 6.6 3.5-1.9 3.2-3.5 5.7-4.9 8-.5-.9-.9-1.7-1.4-2.6-2.9 2.6-5.8 5.2-10.4 9.3-.5-4-.5-6.9-1.3-9.7-1-3.5-2-9.1-4.2-9.8-3.7-1.2-9.6-.6-12.5 1.8-7.5 6.1-14.4 13.1-20.4 20.7-3.9 5-6.1 7.5-12.7 3.7-2.6-1.4-8.6 2.1-12.2 4.6-1.5 1.1-1.8 6.9-.5 8 2.3 2 7 3.6 9.4 2.5 9.5-4.4 22.5.5 29.3-11.2.4-.7 2.6-.4 3.9-.7 12.2-2.1 24.3-4.1 38.6-6.6-1.5-2.8-2.8-5.1-3.9-7.1 2.2-1.4 4.4-2.8 6.9-4.4 2 3 3.6 5.6 5.2 8.1 1.2.5 2.2.5 3.2.5zM1130.4 79.4c1.3.3 4.1-3.2 5.1-5.5 5-11.5 1-22.1-12.9-33.3-3.8 11.9-5.1 22.9.1 33.5 1.3 2.6 4.9 4.7 7.7 5.3zM1095.3 359.2c5.8.5 9.1-4.7 8.1-10.4-1-6-3-11.9-5.5-17.5-1.3-2.9-4.4-5.1-6.6-7.5-2 3.1-4.1 6.2-5.9 9.5-.6 1.1-.3 2.8-.4 5.5.5 3.2.3 8 2.1 11.9 1.6 3.5 5.2 8.3 8.2 8.5zM856.4 318.6c-.8-3-3.2-7.9-4.8-7.8-3 0-6.7 2.4-8.9 4.9-6.3 7.4-5.1 17.3 3 30 10.2-6.6 13.8-15.4 10.7-27.1zM1296.8 70.9c1.6 1.7 5.2 4 6.1 3.3 2-1.4 3.7-4.3 4.1-6.8.4-2.9 0-6.3-1.2-9-2.9-6.2-6.5-12.1-10.1-17.9-1.2-2-3.5-3.3-5.2-4.9-1.6 2.1-3.5 4-4.6 6.3-.7 1.4-.3 3.3-.4 3.9-.4 11.1 5.1 18.3 11.3 25.1zM985.7 374.6c1.9-.7 3.8-4.4 3.8-6.7-.1-5.3-.3-11.1-2.5-15.7s-6.9-8.1-10.5-12c-2.3 4.5-4.5 9.1-7.3 14.7 3.2 6.2 5.8 12 9.3 17.1 1.2 1.9 5.2 3.3 7.2 2.6zM1416.4 395.2c-1.5.2-2.8 4.9-3.2 7.7-.7 4.4-1.1 9.1-.5 13.5.4 3.4 2 8.9 4 9.4 2.9.7 7.6-1.5 9.9-3.9 2.4-2.5 2.9-6.9 4.6-11.4-2-4.2-3.3-8.8-6.1-12.2-1.7-2.2-6-3.6-8.7-3.1zM1181.5 120.1c1.9 2.5 5.6 3.7 8.4 5.4 1.6-3 3.2-6.1 5.5-10.3-3.6-6.5-6.8-12.9-10.6-19-1.3-2.1-4.1-3.4-6.2-5-1.7 2.5-4 4.7-4.8 7.4-2.6 8.8 3 15.3 7.7 21.5zM1082.9 485.2c2.8-1.9 6.7-3.2 8.3-5.8 5.1-8.5 4.9-17.3-1.4-25.2-1.8-2.3-4.7-3.8-7.1-5.6-1.4 2.8-3.7 5.6-3.8 8.5-.2 6.4.7 12.9 1.2 19.4-.7.3-1.4.6-2.2.8 1.7 2.6 3.4 5.2 5 7.9zM939.3 502.2c6.3-7 5.6-17.5-.9-22.9-4.8-4-8.9-2.9-10.3 2.8-2.4 9.5-4.5 19.3.4 29.9 3.8-3.5 7.7-6.3 10.8-9.8zM1428.5 187.2c-1.6.9-4 1.3-4.6 2.6-2.8 6.1-5.2 12.4-7.3 18.8-.4 1.3.9 3.9 2.1 4.9.8.6 4.1-.1 4.4-.9 2.8-7.3 9.2-8.9 15.6-11.1 2.2-.7 4.2-3.1 5.4-5.2 1.1-2 2-5.2 1.1-6.8-.8-1.5-4.2-2-6.5-2-3.3 0-6.5.8-9.8 1.3 0-.5-.2-1-.4-1.6zM1049.7 419.5c2 6.1 4.8 12 6.5 18.2 1.3 4.7 3.4 8.8 8.3 7.3 3.2-.9 5.4-5.1 8.1-7.8-1.3-7.2-10.9-22-16.3-23.8-1.9-.7-4.9-1.1-6.2 0-1.1.9-1 4.2-.4 6.1zM1451.1 179.7c3.3.9 7 2.8 10.3 2.4 3-.4 7.7-3.1 7.9-5.3.5-4-1.4-8.5-3-12.5-.3-.6-6.2-.3-7.1 1.2-3.5 5.6-7.8 6.2-13.5 4.4-1.7-.5-4.5-.1-5.6 1-1.9 1.9-3 4.7-4.4 7.1 2.3 1.2 4.5 3.3 6.9 3.5 2.6.3 5.4-1.1 8.5-1.8zM1432.9 63.2c3.7-.7 6.8-4.5 12.2-8.3-6.1-7.5-10.4-12.8-14.8-18.2-3.5 4.9-8.2 9.3-10.1 14.7-1.7 4.9 6.9 12.9 12.7 11.8zM1349.1 46.2c-2.1 4.1-4.3 8.2-6.2 12.4-.7 1.5-.6 3.3-.8 4.4.1 7.5 7.8 14.3 12.7 11.4 5.3-3.2 8.2-8.7 5.4-14.4-2.6-5.2-7.4-9.3-11.1-13.8zM1315.5 71.4c-2.8 5.1-4.4 10.9-6.9 17.2 1.7 2.8 2.8 6.7 5.2 7.9 2 1 7.7-.5 8.1-2 2.1-7.7 4.3-15.8 4-23.6-.1-4.4-7.7-4.5-10.4.5zM1497.2 168.3c-.8-8.8-8.7-5.4-13.4-6.3-6.6-1.2-11 2.5-10.9 9.6.1 6.8 3.6 10.5 10 9.7 8.7.1 15-5.6 14.3-13zM972.7 200.3c3.9-4.6 9.6-9.3 10.1-14.5.4-4.6-5.1-9.8-8.3-14.5-.2-.3-4.1.7-4.6 1.8-2.3 4.8-4 9.8-5.6 14.2 1.1 4 1.3 7.3 2.9 9.9.9 1.7 5.2 3.5 5.5 3.1zM881.6 463.6c2.2-4.3 4.5-8.6 6.7-12.9 3.4-6.5 7-13 10.2-19.6 1.3-2.7 2.1-5.8 3.1-8.6-.9-.5-1.9-1-2.8-1.5-6.3 5.6-14.8 10.1-18.2 17.1-3.4 6.9-1.6 16.4-2.2 24.7 1.1.3 2.1.5 3.2.8zM824.3 578.1c-6.8-.2-15.8 8.4-15.9 14.3-.2 8.3 6 6.4 10.7 6.8 7.9 1.2 12.3-1.5 11.2-10.1-.7-4.4 1.4-10.8-6-11zM1308.1 331.1c4.7-2.8 10.1-4.9 13.8-8.7 3.7-3.8 4.9-11-.5-13-4.4-1.6-11.3.8-15.9 3.5-3 1.6 1.3 17.6 2.6 18.2zM1360.2 47.4c2.2-3.1 4.3-6.2 6-8.7-1.6-5.9-2-10.3-4-13.9-1.3-2.5-6.2-5.8-7-5.2-2.8 2.1-5.8 5.4-6.4 8.6-.6 3.6.7 8.1 2.7 11.3 2 3.1 5.7 5.3 8.7 7.9zM1460.6 54.8c-3.9-2.1-13.5 8.6-13.2 14.1.5 8.1 7.2 7.7 12.5 8.2 6.9.7 7.4-4.4 9.1-10.7-2.8-4.1-4.7-9.6-8.4-11.6zM1377.1 165.8c-2.5-2.2-5.2-4.2-9.5-7.6-2.7 8.4-5.6 15.2-6.7 22.4-.4 2.4 3.1 6.8 5.9 8.1 2.9 1.3 14.3-16.3 12.9-19.5-.6-1.4-1.5-2.5-2.6-3.4zM1478.6 566.6c-1.2-.7-5 .8-5.7 2.3-2.9 6 3.1 24.8 10.5 30.5 1.1-7.5 1.7-13.6 3-19.5 1.7-7.2-2.7-10.6-7.8-13.3zM1491.1 369.4c2.7-3.7 4.1-8.2 5.2-10.6-.4-4.4-.2-6.5-.8-8.3-.8-2.2-2.4-4.1-3.7-6.1-1.9 1.4-4.7 2.4-5.6 4.3-2.5 5-4.8 10.3-5.8 15.7-.5 2.6 2.1 5.8 3.3 8.7 2.5-1.2 6-1.7 7.4-3.7zM1354.3 169.8c9.8-13 6.4-26.8-7.2-31.5-5.9 7.1-2.7 17.2 7.2 31.5zM960.5 126c2.3 6.5 5.2 17 9.4 17.7 6.8 1.3 6.8-8.4 7.6-14.1.9-6.2-2.8-9.3-11.9-9.3-.9 1-5.6 4.3-5.1 5.7zM1331.4 582.9c-1.4-1.4-6.9-.8-9.1.8-4.3 3.3-7.6 7.9-11.4 12 .7 1.1 1.5 2.2 2.2 3.3 6.1 0 12.2.4 18.3-.2 1.7-.2 4.7-3.4 4.5-4.7-.7-4-1.9-8.5-4.5-11.2zM763.1 580.9c-5.9.9-9 6.2-7.4 12.8 1.4 5.8 7.4 7.1 20.2 4.1-2-12.8-6-17.9-12.8-16.9zM1124.3 112.7c5.1 2.4 8.1.4 8-7.5-1.4-3-3.1-8.2-6.1-12.4-3.3-4.6-8.3-3.3-10.3 2-3.4 8.5-1.1 13.4 8.4 17.9zM934.8 343.5c6.9-.4 9.2-6.3 9.2-13 0-6-2.8-11.2-8.5-9.9-3.6.8-5.9 7.1-9.8 12.4 3.9 4.7 6.7 10.7 9.1 10.5zM1346.6 560.5c-1.3-.4-3.6.9-4.9 2.1-6.8 6.4-6.6 18.8 3.4 27.3 1.5-8.3 3.3-16.6 4.5-24.9.1-1.4-1.7-4-3-4.5zM925.1 590c-1 2.4-.9 7.8.2 8.3 4.2 1.7 9.7 1.9 11.1-3.8 1.6-6.7 1.8-13.8 2.6-20.7-1.6-.4-3.1-.8-4.7-1.2-3.1 5.8-6.6 11.4-9.2 17.4zM856.8 585.4c.4 4.6 4.8 9 7.5 13.4 2.7-3.5 5.5-7 9.2-11.7-3.7-5-6.4-8.7-9-12.3-2.8 3.5-8 7.3-7.7 10.6zM1108.1 309.8c-1-4.3-3-8.5-5.4-12.1-1.3-1.9-4.4-2.6-6.7-3.9-1 2.2-1.9 4.4-3 6.9 1.5 4.7 2.2 9.6 4.6 13.5 1.4 2.2 5.6 2.6 8.5 3.9.8-2.8 2.6-5.8 2-8.3zM1019.4 143.4c-1.4.2-3 2.3-3.7 3.9-3.5 9.3-1.1 14.3 9.6 19.6 3.5-6.4 3-16.6-1-21-1.2-1.3-3.4-2.7-4.9-2.5zM1339.7 105.1c5.4-4.7 8.2-16.4 5.2-21.9-2.6-4.7-6.7-5.4-9.1-1.4-3.1 5.1-.9 18.3 3.9 23.3zM1232.1 245.2c1.2-4.5-8.5-16.7-13.9-16.8-.6.4-2.5 1.3-2.5 2 .4 3.9.1 8.8 2.4 11.4 2.7 3.2 7.7 4.6 11.8 6.5.2 0 1.9-1.9 2.2-3.1zM947.4 80.3c-.8 1.9-2.5 4.2-2.1 5.8 2.2 8 4.9 15.9 7.5 23.8 1.6-.2 3.1-.4 4.7-.6-1.2-8.8-2.1-17.6-3.8-26.3-.3-1.2-4.2-1.8-6.3-2.7zM1473.9 516.3v-28.1c-10.7 10.9-10.6 24.4 0 28.1zM1015.4 419.5c8.4-7 11.1-21 5.8-29.8-6.9 5.8-9.6 19.3-5.8 29.8zM1482.5 37.5c1.6-1.7 4.3-3.2 4.5-5.1 1.1-7.9-2.6-14.4-8-22.2-5.4 9.1-2.1 16.1-.8 23 .3 1.6 2.8 2.9 4.3 4.3zM1379.8 32.2c2.9-.1 8.4-5.5 7.9-7.2-1.2-3.9-5.2-6.9-8.1-10.3-2.5 2.4-5.1 4.7-9.1 8.5 4 4.2 6.8 9 9.3 9zM961.7 320.7c-2.2 3.2-6.2 6.4-6 9.5.2 3.7 4 7.2 6.3 10.7 2.5-2.8 5-5.5 8.8-9.6-3.9-4.5-6.5-7.6-9.1-10.6zM1115.5 442c.4-.7-1.6-3.9-2.1-3.8-4.3.8-9.1 1.2-12.6 3.4-2.8 1.7-4.2 5.9-7.1 10.2 7.3-1.4 12.1-1.6 16.4-3.3 2.3-.9 4-4 5.4-6.5zM839.7 592.5c-.6 1.3 2.3 6 4 6.2 8.2 1.2 6.3-5.6 7.5-12.6-.5-.8-2.1-3-3.6-5.2-2.8 3.8-6 7.4-7.9 11.6zM1452.5 593.3c3.1 2.5 5.4 5.6 7.3 5.4 2.5-.2 6.9-3.8 6.6-4.7-1.3-4.5-4-8.5-6.1-12.7-2.3 3.4-4.5 6.9-7.8 12zM1342.6 20.5c1.7-2.1 3.5-4.2 5.8-7-2.5-3.8-4.3-6.6-6.1-9.4-1.9 2.4-5.4 5.1-5.2 7.3.4 3.2 3.6 6.1 5.5 9.1zM1479.4 345.9c-2.9-3-4.8-4.9-6.6-6.8-2.1 2.9-5.1 5.6-6 8.8-.5 1.7 2.7 4.5 4.2 6.7 2.5-2.4 4.9-5 8.4-8.7zM1139.1 45.2c-.2 1.9 3.6 4.9 6.3 6 1.1.5 3.8-2.7 6.7-4.9-3-3.7-5.2-6.4-7.3-9-2 2.6-5.4 5.1-5.7 7.9zM783.9 576.1c-6 4.8-5.7 10-2.2 15.2.6.9 4.8.9 5.5 0 3.8-5.6 2.4-10.5-3.3-15.2zM869.8 49.5c.4-7.3.8-13.3 1.3-21.3-10.5 7-10.9 13.9-1.3 21.3zM807 354.6c.1 3.4 1.4 6.9 2.5 10.2.1.4 3.4.2 3.5-.1.7-3.2 1.5-6.4 1.4-9.7-.1-2.2-1.6-4.4-3.5-8.8-2 4.2-3.9 6.3-3.9 8.4zM1143.9 144.7c1.5 4.2 2.8 8.5 4.8 12.5.6 1.3 3.1 1.7 4.8 2.5.7-1.9 2.6-4.6 1.9-5.6-2.7-4-6.1-7.5-9.3-11.2-.7.6-1.5 1.2-2.2 1.8zM1494.5 567c1.2 0 2.5.1 3.7.1v-22.5c-.8 0-1.6 0-2.5-.1l-1.2 22.5zM765.7 164.1c1.5.6 2.9 1.3 4.4 1.9 1.5-3 3.1-6 4.6-8.9-1.9-.7-5.3-2.2-5.4-2-1.5 2.9-2.5 6-3.6 9zM844.4 386.2c.3-1-2.2-2.9-3.4-4.4-1.7 1.9-3.8 3.7-4.9 5.9-.4.9 1.4 3 3 5.9 2.4-3.3 4.6-5.1 5.3-7.4zM1086.9 596c.4 1.3.8 2.5 1.2 3.8 3.7-1 7.4-2 11.1-3.1-.6-1.6-1.2-3.3-1.8-4.9-3.4 1.5-6.9 2.8-10.5 4.2zM1494.6 598.2h3v-13.3c-1 0-2-.1-3-.1v13.4zM1233 187c-2.7 5.2-.3 8.5 5 10.7l3-1.5c-1.6-3.5-3.3-7-4.9-10.5-1.1.4-2.1.8-3.1 1.3z"/></svg>