<?xml version="1.0" encoding="utf-8"?>
<!-- Generator: Adobe Illustrator 25.2.0, SVG Export Plug-In . SVG Version: 6.00 Build 0)  -->
<svg version="1.1" id="Ebene_1" xmlns="http://www.w3.org/2000/svg" xmlns:xlink="http://www.w3.org/1999/xlink" x="0px" y="0px"
	 viewBox="0 0 28.1 40" style="enable-background:new 0 0 28.1 40;" xml:space="preserve">
<g>
	<path d="M14,3.9c-2.7,0-5.2,1.1-7.2,3c-1.9,1.9-3,4.5-3,7.2s1.1,5.2,3,7.2c1.9,1.9,4.5,3,7.2,3s5.2-1.1,7.2-3c1.9-1.9,3-4.5,3-7.2
		s-1.1-5.2-3-7.2S16.7,3.9,14,3.9z M14.7,13.4V5.2c2,0.1,3.8,0.9,5.2,2.2c-1.5,1.7-2.3,3.8-2.5,6H14.7z M13.4,13.4h-2.7
		c-0.1-2.2-1-4.3-2.4-6c1.4-1.2,3.2-2,5.1-2.1V13.4z M9.4,13.4H5.2c0.1-1.9,0.9-3.7,2.1-5.1C8.6,9.7,9.3,11.5,9.4,13.4z M9.4,14.7
		c-0.1,1.9-0.9,3.6-2.1,5c-1.2-1.4-1.9-3.1-2.1-5H9.4z M10.7,14.7h2.7v8.1c-2-0.1-3.8-0.9-5.2-2.2C9.7,19,10.5,16.9,10.7,14.7z
		 M14.7,14.7h2.7c0.1,2.2,1,4.3,2.5,6c-1.4,1.2-3.2,2-5.2,2.2V14.7z M18.7,14.7h4.1c-0.1,1.9-0.9,3.7-2.1,5.1
		C19.5,18.3,18.8,16.6,18.7,14.7z M18.7,13.4c0.1-1.9,0.9-3.6,2.1-5.1c1.2,1.4,1.9,3.1,2.1,5.1H18.7z"/>
	<path d="M24,4.1C21.3,1.5,17.8,0,14,0S6.8,1.5,4.1,4.1C1.5,6.8,0,10.3,0,14c0,2.6,0.6,4.9,1.9,7c0,0,0,0,0,0l11.6,18.6
		c0.1,0.2,0.3,0.3,0.5,0.3c0,0,0,0,0,0c0.2,0,0.4-0.1,0.5-0.3l11.5-18.5c0,0,0,0,0,0c1.3-2.2,2-4.6,2-7.1C28.1,10.3,26.6,6.8,24,4.1
		z M25,20.5L14,38.1L3,20.4c-1.1-1.9-1.7-4-1.7-6.4c0-3.4,1.3-6.6,3.7-9c2.4-2.4,5.6-3.7,9-3.7c3.4,0,6.6,1.3,9,3.7
		c2.4,2.4,3.7,5.6,3.7,9C26.8,16.3,26.2,18.6,25,20.5z"/>
</g>
</svg>
