<?xml version="1.0" encoding="UTF-8"?>
<!-- Generator: Adobe Illustrator 23.0.1, SVG Export Plug-In . SVG Version: 6.00 Build 0)  -->
<svg version="1.1" id="Ebene_1" xmlns="http://www.w3.org/2000/svg" xmlns:xlink="http://www.w3.org/1999/xlink" x="0px" y="0px" width="396.9" height="90.4" viewBox="0 0 396.9 90.4" style="enable-background:new 0 0 396.9 90.4;" xml:space="preserve">
<path d="M389.6,82.2c-0.7-1.1-1.1-1.8-1.3-2.1s-0.7-0.6-1.2-0.8c1.1-0.2,1.9-0.6,2.4-1.2c0.5-0.6,0.8-1.3,0.8-2.3  c0-0.9-0.3-1.8-0.9-2.4c-0.7-0.7-1.7-1-3.1-1h-5.7v12.1h2.4v-5h0.7c0.8,0,1.3,0.3,1.8,0.7c0.4,0.4,1,1.2,1.6,2.4l1,1.9h3L389.6,82.2   M384.9,77.9h-2v-3.3h2.3c0.8,0,1.4,0.2,1.8,0.4c0.4,0.3,0.6,0.7,0.6,1.2c0,0.6-0.3,1-0.7,1.3C386.7,77.7,385.9,77.9,384.9,77.9z"/>
<path d="M83.2,69.9c0,3.2-0.3,5.2-0.7,6.1c-0.4,0.9-1.3,1.4-2.6,1.4c-1.3,0-2.2-0.5-2.6-1.6c-0.4-1-0.7-3.3-0.7-6.7V36.3  c0-3.8,0.3-6.1,0.7-7.1c0.4-1,1.3-1.4,2.7-1.4c1.3,0,2.2,0.5,2.6,1.4c0.4,1,0.6,3.4,0.6,7.1L83.2,69.9 M105.5,41.7  c0-5.2-0.3-9-1.1-11.6c-0.8-2.5-2-5-4-7.4c-1.9-2.4-4.7-4.3-8.3-5.8c-3.6-1.5-7.9-2.3-12.9-2.3c-6,0-10.8,1.2-14.6,3.4  c-3.8,2.4-6.5,5.4-7.9,9.2c-1.4,3.8-2.2,9.1-2.2,15.9v18.7c0,6.2,0.4,10.8,1.2,13.9c0.8,3.1,2.2,5.7,4,7.9c1.9,2.2,4.5,3.8,8,4.9  c3.4,1.1,7.6,1.6,12.5,1.6c4.4,0,8.3-0.7,11.7-1.9c3.4-1.3,6.2-3.2,8.3-5.9c2.2-2.7,3.6-5.5,4.2-8.6c0.7-3,1-7.9,1-14.4L105.5,41.7  L105.5,41.7z"/>
<rect x="113.2" width="22.8" height="89.1"/>
<path d="M289.8,69.9c0,3.2-0.3,5.2-0.7,6.1c-0.4,0.9-1.3,1.4-2.6,1.4c-1.3,0-2.2-0.5-2.6-1.6c-0.4-1-0.7-3.3-0.7-6.7V36.3  c0-3.8,0.3-6.1,0.7-7.1c0.4-1,1.3-1.4,2.7-1.4c1.3,0,2.2,0.5,2.6,1.4c0.4,1,0.6,3.4,0.6,7.1L289.8,69.9 M312,41.7  c0-5.2-0.3-9-1.1-11.6c-0.8-2.5-2-5-4-7.4c-1.9-2.4-4.7-4.3-8.3-5.8s-7.9-2.3-12.9-2.3c-6,0-10.8,1.2-14.6,3.4  c-3.8,2.4-6.5,5.4-7.9,9.2c-1.4,3.8-2.2,9.1-2.2,15.9v18.7c0,6.2,0.4,10.8,1.2,13.9c0.8,3.1,2.2,5.7,4,7.9c1.9,2.2,4.5,3.8,8,4.9  s7.6,1.6,12.5,1.6c4.4,0,8.3-0.7,11.7-1.9c3.4-1.3,6.2-3.2,8.3-5.9c2.2-2.7,3.6-5.5,4.2-8.6c0.7-3,1-7.9,1-14.4L312,41.7L312,41.7z"/>
<path d="M48.7,67.5c0-5.3-1-9.4-3-12.2c-2-2.8-6.2-5.8-12.7-8.9c-4.9-2.4-8.1-4.2-9.6-5.5c-1.6-1.3-2.5-2.4-2.8-3.4  c-0.3-1-0.5-2.7-0.5-5c0-1.7,0.3-2.9,0.9-3.7c0.6-0.8,1.5-1.3,2.8-1.3c1.5,0,2.5,0.4,2.9,1.3c0.4,0.9,0.6,3,0.6,6.5v3.9H47v-4.3  c0-3.7-0.2-6.4-0.6-8.1c-0.4-1.8-1.5-3.6-3.3-5.6c-1.8-2-4.5-3.6-7.8-4.9c-3.4-1.3-7.5-1.8-12.3-1.8s-9.2,0.8-12.9,2.3  c-3.7,1.5-6.3,3.6-7.8,6.4C0.8,26.1,0,30.4,0,36.3c0,4.1,0.8,7.6,2.2,10.7c1.4,3,5.4,6.3,11.9,10c7.7,4.4,12.1,7,12.9,7.8  c0.8,0.8,1.2,3,1.2,6.6c0,2.5-0.3,4.2-0.9,5c-0.6,0.8-1.7,1.2-3.3,1.2c-1.4,0-2.4-0.6-2.9-1.8c-0.5-1.2-0.8-3.7-0.8-7.6v-4.6H0.6  v3.5c0,6,0.8,10.7,2.3,13.6c1.5,3,4.3,5.4,8.3,7.1c4,1.8,8.8,2.6,14.5,2.6c5.1,0,9.5-0.8,13.1-2.4s6.2-3.9,7.7-7  C48,77.9,48.7,73.5,48.7,67.5"/>
<path d="M231.7,67.6c0,4.4-0.3,7.1-0.7,8.2c-0.4,1.2-1.3,1.7-2.8,1.7c-1.3,0-2.3-0.6-2.8-1.7c-0.4-1.1-0.7-3.6-0.7-7.6V36.9  c0-4,0.2-6.6,0.6-7.6c0.4-1,1.3-1.5,2.7-1.5s2.4,0.6,2.9,1.8c0.5,1.2,0.8,3.6,0.8,7.4L231.7,67.6 M253.9,35.9  c0-5.4-0.1-8.9-0.3-10.6c-0.3-1.7-0.9-3.4-2.1-5c-1.2-1.8-2.9-3-5.1-4c-2.3-0.9-4.9-1.4-7.9-1.4c-2.6,0-5.1,0.5-7.4,1.6  c-2.3,1-4.3,2.6-6.1,4.8V0h-22.3v89.1h20.8l1.4-5.5c1.8,2.3,3.9,3.9,6.2,5.1c2.3,1.2,4.7,1.7,7.3,1.7c3.6,0,6.8-0.9,9.4-2.9  c2.6-1.9,4.3-4.2,5-6.8s1.1-6.6,1.1-11.9L253.9,35.9L253.9,35.9z"/>
<path d="M385.6,87.8c-2.5,0-4.6-0.9-6.5-2.7c-1.8-1.8-2.7-3.9-2.7-6.5c0-2.4,0.8-4.5,2.6-6.4c1.8-1.8,3.9-2.8,6.8-2.8  c1.3,0,2.6,0.3,4,1.1c1.4,0.8,2.6,1.8,3.4,3.3c0.9,1.4,1.3,3,1.3,4.8c0,2.5-0.9,4.6-2.7,6.5C390.2,86.8,388,87.8,385.6,87.8   M396.9,78.6c0-3-1.1-5.7-3.3-8c-2.2-2.3-5-3.4-8.4-3.4c-1.5,0-3.1,0.4-4.9,1.3c-1.8,0.8-3.2,2.2-4.4,4c-1.2,1.8-1.8,3.9-1.8,6  c0,3.1,1.1,5.8,3.4,8.1c2.2,2.2,4.9,3.4,8.1,3.4c3.1,0,5.8-1.1,8-3.4C395.8,84.4,396.9,81.7,396.9,78.6z"/>
<path d="M365.6,89.1L354.9,51l8.8-34.9H344c-1.1,4.5-2.7,12.9-4.9,25.4c-0.3-2-1.8-10.5-4.9-25.4h-18.6l9.7,34.9l-9.7,38.1h18.6  c1.8-7.9,3.4-16.2,4.9-24.9c1.1,7,2.7,15.3,4.9,24.9H365.6"/>
<path d="M172.7,42h-6.6v-5.3c0-4.1,0.2-6.6,0.6-7.6c0.3-0.9,1.3-1.4,2.9-1.4c1.3,0,2.1,0.6,2.5,1.7s0.6,3.5,0.6,7.3L172.7,42   M194.9,44.3c0-7.1-0.8-12.6-2.4-16.5c-1.6-3.9-4.5-7.1-8.6-9.4c-4-2.4-9.2-3.5-15.5-3.5c-5.1,0-9.7,1-13.5,2.9  c-3.9,1.9-6.7,4.8-8.5,8.5s-2.6,8.7-2.6,15.1v21.2c0,5.5,0.4,9.6,1.2,12.4c0.8,2.9,2.2,5.5,4.2,7.8c2,2.4,4.8,4.2,8.4,5.5  c3.6,1.3,7.7,2,12.4,2c4.9,0,8.9-0.7,12.1-2.1c3.2-1.3,5.9-3.4,8-6.2c2.1-2.8,3.4-5.4,4-7.7c0.6-2.4,0.8-5.9,0.8-10.4v-5.4h-21.1  v9.7c0,3.6-0.3,6-0.8,7.3c-0.6,1.3-1.7,1.9-3.4,1.9c-1.3,0-2.3-0.5-2.8-1.4c-0.5-0.9-0.8-3.1-0.8-6.4V53.8h28.8V44.3L194.9,44.3z"/>
</svg>